<?xml version="1.0" standalone="no"?>
<!DOCTYPE svg PUBLIC "-//W3C//DTD SVG 20010904//EN"
 "http://www.w3.org/TR/2001/REC-SVG-20010904/DTD/svg10.dtd">
<svg version="1.0" xmlns="http://www.w3.org/2000/svg"
 width="260.000000pt" height="260.000000pt" viewBox="0 0 260.000000 260.000000"
 preserveAspectRatio="xMidYMid meet">
<metadata>
Created by potrace 1.11, written by Peter Selinger 2001-2013
</metadata>
<g transform="translate(0.000000,260.000000) scale(0.100000,-0.100000)"
fill="#000000" stroke="none">
<path d="M445 2073 c-47 -10 -113 -39 -150 -64 -82 -55 -160 -158 -182 -240
-12 -47 -15 -282 -3 -327 31 -126 117 -230 238 -289 l76 -38 795 -5 796 -5 2
-50 c1 -27 0 -59 -2 -70 -4 -20 -12 -20 -905 -19 l-901 1 -45 -29 c-58 -39
-67 -73 -63 -221 4 -112 5 -117 34 -147 16 -17 45 -35 65 -41 23 -7 358 -9
1000 -7 l965 3 68 32 c114 54 228 188 255 299 4 16 7 137 7 269 0 227 -1 243
-23 296 l-23 55 -920 0 c-507 -1 -926 2 -931 5 -14 9 -16 139 -3 147 5 3 412
6 905 6 l895 1 36 23 c57 35 69 71 69 205 0 102 -2 118 -23 148 -49 73 19 69
-1052 68 -528 -1 -969 -3 -980 -6z"/>
</g>
</svg>
