<?xml version="1.0" encoding="utf-8"?>
<!DOCTYPE svg PUBLIC "-//W3C//DTD SVG 1.1//EN" "http://www.w3.org/Graphics/SVG/1.1/DTD/svg11.dtd">
<svg version="1.1" xmlns="http://www.w3.org/2000/svg" width="666px" height="881px" viewBox="0 0 666 881" preserveAspectRatio="xMidYMid meet">
 <g fill="#ffffff">
  <path d="M292 835.30 c0 -2.05 -0.20 -3.90 -0.50 -4.05 -0.30 -0.15 -0.50 -2.40 -0.50 -5 0 -2.60 -0.20 -4.85 -0.50 -5 -0.25 -0.15 -0.50 -0.75 -0.50 -1.30 0 -0.90 0.40 -0.95 6.50 -0.95 6.10 0 6.50 0.05 6.50 0.95 0 0.55 -0.20 1.15 -0.50 1.30 -0.30 0.20 -0.50 2.90 -0.50 6.50 0 3.60 -0.20 6.30 -0.50 6.50 -0.25 0.15 -0.50 1.30 -0.50 2.55 l0 2.20 -4.50 0 -4.50 0 0 -3.70z"/>
  <path d="M337 835.30 c0 -2.05 -0.20 -3.90 -0.50 -4.05 -0.30 -0.15 -0.50 -2.40 -0.50 -5 0 -2.60 -0.20 -4.85 -0.50 -5 -0.25 -0.15 -0.50 -0.75 -0.50 -1.30 0 -0.90 0.40 -0.95 6.50 -0.95 6.10 0 6.50 0.05 6.50 0.95 0 0.55 -0.20 1.15 -0.50 1.30 -0.30 0.20 -0.50 2.90 -0.50 6.50 0 3.60 -0.20 6.30 -0.50 6.50 -0.25 0.15 -0.50 1.30 -0.50 2.55 l0 2.20 -4.50 0 -4.50 0 0 -3.70z"/>
  <path d="M247.25 780 c-0.50 -0.55 -1.15 -1 -1.45 -1 -1 0 -1.80 -2.65 -1.80 -6 0 -5.90 2.05 -8 7.70 -8 2.85 0 3.10 0.10 5.15 2.10 l2.15 2.10 0 3.75 c0 3.75 0 3.75 -2.10 5.90 -2.05 2.10 -2.20 2.15 -5.45 2.15 -2.65 0 -3.45 -0.20 -4.20 -1z"/>
  <path d="M382.25 780 c-0.50 -0.55 -1.15 -1 -1.45 -1 -0.70 0 -2.80 -4.40 -2.80 -5.85 0 -0.60 0.25 -1.25 0.50 -1.40 0.30 -0.15 0.50 -0.70 0.50 -1.20 0 -1.65 1.55 -4 3.10 -4.80 0.90 -0.40 2.85 -0.75 4.60 -0.75 2.85 0 3.10 0.10 5.15 2.10 l2.15 2.10 0 3.75 c0 3.75 0 3.75 -2.10 5.90 -2.05 2.10 -2.20 2.15 -5.45 2.15 -2.65 0 -3.45 -0.20 -4.20 -1z"/>
  <path d="M202 739.30 c0 -2.05 -0.20 -3.90 -0.50 -4.05 -0.30 -0.15 -0.50 -2.40 -0.50 -5 0 -2.60 -0.20 -4.85 -0.50 -5 -0.25 -0.15 -0.50 -0.75 -0.50 -1.30 0 -0.90 0.40 -0.95 6.50 -0.95 6.10 0 6.50 0.05 6.50 0.95 0 0.55 -0.20 1.15 -0.50 1.30 -0.30 0.20 -0.50 2.90 -0.50 6.50 0 3.60 -0.20 6.30 -0.50 6.50 -0.25 0.15 -0.50 1.30 -0.50 2.55 l0 2.20 -4.50 0 -4.50 0 0 -3.70z"/>
  <path d="M427 739.30 c0 -2.05 -0.20 -3.90 -0.50 -4.05 -0.30 -0.15 -0.50 -2.40 -0.50 -5 0 -2.60 -0.20 -4.85 -0.50 -5 -0.25 -0.15 -0.50 -0.75 -0.50 -1.30 0 -0.90 0.40 -0.95 6.50 -0.95 6.10 0 6.50 0.05 6.50 0.95 0 0.55 -0.20 1.15 -0.50 1.30 -0.30 0.20 -0.50 2.90 -0.50 6.50 0 3.60 -0.20 6.30 -0.50 6.50 -0.25 0.15 -0.50 1.30 -0.50 2.55 l0 2.20 -4.50 0 -4.50 0 0 -3.70z"/>
  <path d="M170.15 690.60 c-0.65 -1.30 -1.15 -2.65 -1.15 -2.95 0 -0.30 -0.65 -1.85 -1.50 -3.40 -0.80 -1.55 -1.50 -3.15 -1.50 -3.50 0 -0.35 -0.65 -1.95 -1.50 -3.50 -0.80 -1.55 -1.50 -3.15 -1.50 -3.50 0 -0.35 -0.65 -1.95 -1.50 -3.50 -0.80 -1.55 -1.50 -3.15 -1.50 -3.50 0 -0.35 -0.65 -1.95 -1.50 -3.50 -0.80 -1.55 -1.50 -3.15 -1.50 -3.50 0 -0.35 -0.65 -1.95 -1.50 -3.50 -0.80 -1.55 -1.50 -3.15 -1.50 -3.50 0 -0.35 -0.65 -1.95 -1.50 -3.50 -0.80 -1.55 -1.50 -3.15 -1.50 -3.50 0 -0.35 -0.65 -1.95 -1.50 -3.50 -0.80 -1.55 -1.50 -3.15 -1.50 -3.55 0 -0.35 -0.45 -1.45 -1 -2.45 -0.55 -1 -1 -2.10 -1 -2.50 0 -0.40 -0.45 -1.50 -1 -2.50 -0.55 -1 -1 -2.35 -1 -3 0 -1.25 0 -1.25 4.90 -1.25 l4.85 0 1.15 2.40 c0.60 1.30 1.10 2.65 1.10 2.95 0 0.30 0.70 1.85 1.50 3.40 0.85 1.55 1.50 3.15 1.50 3.55 0 0.35 0.45 1.45 1 2.45 0.55 1 1 2.10 1 2.45 0 0.40 0.70 2 1.50 3.55 0.85 1.55 1.50 3.15 1.50 3.50 0 0.35 0.70 1.95 1.50 3.50 0.85 1.55 1.50 3.15 1.50 3.50 0 0.35 0.70 1.95 1.50 3.50 0.85 1.55 1.50 3.15 1.50 3.50 0 0.35 0.70 1.95 1.50 3.50 0.85 1.55 1.50 3.15 1.50 3.55 0 0.35 0.45 1.45 1 2.45 0.55 1 1 2.10 1 2.45 0 0.40 0.70 2 1.50 3.55 0.85 1.55 1.50 3.15 1.50 3.55 0 0.35 0.45 1.45 1 2.45 0.55 1 1 2.20 1 2.75 0 0.50 0.25 1.10 0.50 1.25 0.30 0.15 0.50 0.75 0.50 1.30 0 0.85 -0.40 0.95 -4.85 0.95 l-4.90 0 -1.10 -2.40z"/>
  <path d="M457 691.80 c0 -0.65 0.70 -2.50 1.50 -4.05 0.85 -1.55 1.50 -3.15 1.50 -3.50 0 -0.35 0.70 -1.95 1.50 -3.50 0.85 -1.55 1.50 -3.15 1.50 -3.55 0 -0.35 0.45 -1.45 1 -2.45 0.55 -1 1 -2.10 1 -2.45 0 -0.40 0.70 -2 1.50 -3.55 0.85 -1.55 1.50 -3.15 1.50 -3.50 0 -0.35 0.70 -1.95 1.50 -3.50 0.85 -1.55 1.50 -3.15 1.50 -3.50 0 -0.35 0.70 -1.95 1.50 -3.50 0.85 -1.55 1.50 -3.15 1.50 -3.55 0 -0.35 0.45 -1.45 1 -2.45 0.55 -1 1 -2.10 1 -2.45 0 -0.40 0.70 -2 1.50 -3.55 0.85 -1.55 1.50 -3.15 1.50 -3.50 0 -0.35 0.70 -1.95 1.50 -3.50 0.85 -1.55 1.50 -3.10 1.50 -3.40 0 -0.30 0.50 -1.65 1.15 -2.95 l1.10 -2.40 4.90 0 4.85 0 0 1.45 c0 0.85 -0.20 1.65 -0.50 1.80 -0.25 0.15 -0.50 0.75 -0.50 1.25 0 0.55 -0.45 1.75 -1 2.75 -0.55 1 -1 2.10 -1 2.45 0 0.40 -0.65 2 -1.50 3.55 -0.80 1.55 -1.50 3.15 -1.50 3.55 0 0.35 -0.45 1.45 -1 2.45 -0.55 1 -1 2.10 -1 2.45 0 0.40 -0.65 2 -1.50 3.55 -0.80 1.55 -1.50 3.15 -1.50 3.50 0 0.35 -0.65 1.95 -1.50 3.50 -0.80 1.55 -1.50 3.15 -1.50 3.50 0 0.35 -0.65 1.95 -1.50 3.50 -0.80 1.55 -1.50 3.15 -1.50 3.50 0 0.35 -0.65 1.95 -1.50 3.50 -0.80 1.55 -1.50 3.15 -1.50 3.50 0 0.35 -0.65 1.95 -1.50 3.50 -0.80 1.55 -1.50 3.15 -1.50 3.50 0 0.35 -0.65 1.95 -1.50 3.50 -0.80 1.55 -1.50 3.25 -1.50 3.70 0 1.70 -1.10 2.05 -6.10 2.05 -4.85 0 -4.90 0 -4.90 -1.20z"/>
  <path d="M125.15 594.60 c-0.65 -1.30 -1.15 -2.65 -1.15 -2.95 0 -0.30 -0.65 -1.85 -1.50 -3.40 -0.80 -1.55 -1.50 -3.15 -1.50 -3.50 0 -0.35 -0.65 -1.95 -1.50 -3.50 -0.80 -1.55 -1.50 -3.15 -1.50 -3.50 0 -0.35 -0.65 -1.95 -1.50 -3.50 -0.80 -1.55 -1.50 -3.15 -1.50 -3.50 0 -0.35 -0.65 -1.95 -1.50 -3.50 -0.80 -1.55 -1.50 -3.15 -1.50 -3.50 0 -0.35 -0.65 -1.95 -1.50 -3.50 -0.80 -1.55 -1.50 -3.15 -1.50 -3.50 0 -0.35 -0.65 -1.95 -1.50 -3.50 -0.80 -1.55 -1.50 -3.15 -1.50 -3.50 0 -0.35 -0.65 -1.95 -1.50 -3.50 -0.80 -1.55 -1.50 -3.15 -1.50 -3.55 0 -0.35 -0.45 -1.45 -1 -2.45 -0.55 -1 -1 -2.10 -1 -2.50 0 -0.40 -0.45 -1.50 -1 -2.50 -0.55 -1 -1 -2.35 -1 -3 0 -1.25 0 -1.25 4.90 -1.25 l4.85 0 1.15 2.40 c0.60 1.30 1.10 2.65 1.10 2.95 0 0.30 0.70 1.85 1.50 3.40 0.85 1.55 1.50 3.15 1.50 3.55 0 0.35 0.45 1.45 1 2.45 0.55 1 1 2.10 1 2.45 0 0.40 0.70 2 1.50 3.55 0.85 1.55 1.50 3.15 1.50 3.50 0 0.35 0.70 1.95 1.50 3.50 0.85 1.55 1.50 3.15 1.50 3.50 0 0.35 0.70 1.95 1.50 3.50 0.85 1.55 1.50 3.15 1.50 3.50 0 0.35 0.70 1.95 1.50 3.50 0.85 1.55 1.50 3.15 1.50 3.55 0 0.35 0.45 1.45 1 2.45 0.55 1 1 2.10 1 2.45 0 0.40 0.70 2 1.50 3.55 0.85 1.55 1.50 3.15 1.50 3.55 0 0.35 0.45 1.45 1 2.45 0.55 1 1 2.20 1 2.75 0 0.50 0.25 1.10 0.50 1.25 0.30 0.15 0.50 0.75 0.50 1.30 0 0.85 -0.40 0.95 -4.85 0.95 l-4.90 0 -1.10 -2.40z"/>
  <path d="M502 595.80 c0 -0.65 0.70 -2.50 1.50 -4.05 0.85 -1.55 1.50 -3.15 1.50 -3.50 0 -0.35 0.70 -1.95 1.50 -3.50 0.85 -1.55 1.50 -3.15 1.50 -3.55 0 -0.35 0.45 -1.45 1 -2.45 0.55 -1 1 -2.10 1 -2.45 0 -0.40 0.70 -2 1.50 -3.55 0.85 -1.55 1.50 -3.15 1.50 -3.50 0 -0.35 0.70 -1.95 1.50 -3.50 0.85 -1.55 1.50 -3.15 1.50 -3.50 0 -0.35 0.70 -1.95 1.50 -3.50 0.85 -1.55 1.50 -3.15 1.50 -3.55 0 -0.35 0.45 -1.45 1 -2.45 0.55 -1 1 -2.10 1 -2.45 0 -0.40 0.70 -2 1.50 -3.55 0.85 -1.55 1.50 -3.15 1.50 -3.50 0 -0.35 0.70 -1.95 1.50 -3.50 0.85 -1.55 1.50 -3.10 1.50 -3.40 0 -0.30 0.50 -1.65 1.15 -2.95 l1.10 -2.40 4.90 0 4.85 0 0 1.45 c0 0.85 -0.20 1.65 -0.50 1.80 -0.25 0.15 -0.50 0.75 -0.50 1.25 0 0.55 -0.45 1.75 -1 2.75 -0.55 1 -1 2.10 -1 2.45 0 0.40 -0.65 2 -1.50 3.55 -0.80 1.55 -1.50 3.15 -1.50 3.55 0 0.35 -0.45 1.45 -1 2.45 -0.55 1 -1 2.10 -1 2.45 0 0.40 -0.65 2 -1.50 3.55 -0.80 1.55 -1.50 3.15 -1.50 3.50 0 0.35 -0.65 1.95 -1.50 3.50 -0.80 1.55 -1.50 3.15 -1.50 3.50 0 0.35 -0.65 1.95 -1.50 3.50 -0.80 1.55 -1.50 3.15 -1.50 3.50 0 0.35 -0.65 1.95 -1.50 3.50 -0.80 1.55 -1.50 3.15 -1.50 3.50 0 0.35 -0.65 1.95 -1.50 3.50 -0.80 1.55 -1.50 3.15 -1.50 3.50 0 0.35 -0.65 1.95 -1.50 3.50 -0.80 1.55 -1.50 3.25 -1.50 3.70 0 1.70 -1.10 2.05 -6.10 2.05 -4.85 0 -4.90 0 -4.90 -1.20z"/>
  <path d="M80.15 498.60 c-0.65 -1.30 -1.15 -2.65 -1.15 -2.95 0 -0.30 -0.65 -1.85 -1.50 -3.40 -0.80 -1.55 -1.50 -3.15 -1.50 -3.50 0 -0.35 -0.65 -1.95 -1.50 -3.50 -0.80 -1.55 -1.50 -3.15 -1.50 -3.50 0 -0.35 -0.65 -1.95 -1.50 -3.50 -0.80 -1.55 -1.50 -3.15 -1.50 -3.50 0 -0.35 -0.65 -1.95 -1.50 -3.50 -0.80 -1.55 -1.50 -3.15 -1.50 -3.50 0 -0.35 -0.65 -1.95 -1.50 -3.50 -0.80 -1.55 -1.50 -3.15 -1.50 -3.50 0 -0.35 -0.65 -1.95 -1.50 -3.50 -0.85 -1.55 -1.50 -3.15 -1.50 -3.50 0 -0.35 -0.65 -1.95 -1.50 -3.50 -0.80 -1.55 -1.50 -3.15 -1.50 -3.55 0 -0.35 -0.45 -1.45 -1 -2.45 -0.55 -1 -1 -2.10 -1 -2.50 0 -0.40 -0.45 -1.50 -1 -2.50 -0.55 -1 -1 -2.35 -1 -3 0 -1.25 0 -1.25 4.90 -1.25 l4.85 0 1.10 2.40 c0.65 1.30 1.15 2.65 1.15 2.95 0 0.30 0.70 1.85 1.50 3.40 0.85 1.55 1.50 3.15 1.50 3.55 0 0.35 0.45 1.45 1 2.45 0.55 1 1 2.10 1 2.45 0 0.40 0.70 2 1.50 3.55 0.85 1.55 1.50 3.15 1.50 3.50 0 0.35 0.70 1.95 1.50 3.50 0.85 1.55 1.50 3.15 1.50 3.50 0 0.35 0.70 1.95 1.50 3.50 0.85 1.55 1.50 3.15 1.50 3.50 0 0.35 0.70 1.95 1.50 3.50 0.85 1.55 1.50 3.15 1.50 3.55 0 0.35 0.45 1.45 1 2.45 0.55 1 1 2.10 1 2.45 0 0.40 0.70 2 1.50 3.55 0.85 1.55 1.50 3.15 1.50 3.55 0 0.35 0.45 1.45 1 2.45 0.55 1 1 2.20 1 2.75 0 0.50 0.25 1.10 0.50 1.25 0.30 0.15 0.50 0.75 0.50 1.30 0 0.85 -0.40 0.95 -4.85 0.95 l-4.90 0 -1.10 -2.40z"/>
  <path d="M547 499.80 c0 -0.65 0.70 -2.50 1.50 -4.05 0.85 -1.55 1.50 -3.15 1.50 -3.50 0 -0.35 0.70 -1.95 1.50 -3.50 0.85 -1.55 1.50 -3.15 1.50 -3.55 0 -0.35 0.45 -1.45 1 -2.45 0.55 -1 1 -2.10 1 -2.45 0 -0.40 0.70 -2 1.50 -3.55 0.85 -1.55 1.50 -3.15 1.50 -3.50 0 -0.35 0.70 -1.95 1.50 -3.50 0.85 -1.55 1.50 -3.15 1.50 -3.50 0 -0.35 0.70 -1.95 1.50 -3.50 0.85 -1.55 1.50 -3.15 1.50 -3.55 0 -0.35 0.45 -1.45 1 -2.45 0.55 -1 1 -2.10 1 -2.45 0 -0.40 0.70 -2 1.50 -3.55 0.85 -1.55 1.50 -3.15 1.50 -3.50 0 -0.35 0.70 -1.95 1.50 -3.50 0.85 -1.55 1.50 -3.10 1.50 -3.40 0 -0.30 0.50 -1.65 1.15 -2.95 l1.10 -2.40 4.90 0 4.85 0 0 1.45 c0 0.85 -0.20 1.65 -0.50 1.80 -0.25 0.15 -0.50 0.75 -0.50 1.25 0 0.55 -0.45 1.75 -1 2.75 -0.55 1 -1 2.10 -1 2.45 0 0.40 -0.65 2 -1.50 3.55 -0.80 1.55 -1.50 3.15 -1.50 3.55 0 0.35 -0.45 1.45 -1 2.45 -0.55 1 -1 2.10 -1 2.45 0 0.40 -0.65 2 -1.50 3.55 -0.80 1.55 -1.50 3.15 -1.50 3.50 0 0.35 -0.65 1.95 -1.50 3.50 -0.80 1.55 -1.50 3.15 -1.50 3.50 0 0.35 -0.65 1.95 -1.50 3.50 -0.80 1.55 -1.50 3.15 -1.50 3.50 0 0.35 -0.65 1.95 -1.50 3.50 -0.80 1.55 -1.50 3.15 -1.50 3.50 0 0.35 -0.65 1.95 -1.50 3.50 -0.80 1.55 -1.50 3.15 -1.50 3.50 0 0.35 -0.65 1.95 -1.50 3.50 -0.80 1.55 -1.50 3.25 -1.50 3.70 0 1.70 -1.10 2.05 -6.10 2.05 -4.85 0 -4.90 0 -4.90 -1.20z"/>
  <path d="M67 371 l0 -41 4.50 0 4.50 0 0 41 0 41 -4.50 0 -4.50 0 0 -41z"/>
  <path d="M562 371 l0 -41 4.50 0 4.50 0 0 41 0 41 -4.50 0 -4.50 0 0 -41z"/>
  <path d="M67 275 l0 -41 4.50 0 4.50 0 0 41 0 41 -4.50 0 -4.50 0 0 -41z"/>
  <path d="M562 275 l0 -41 4.50 0 4.50 0 0 41 0 41 -4.50 0 -4.50 0 0 -41z"/>
  <path d="M67 179 l0 -41 4.50 0 4.50 0 0 41 0 41 -4.50 0 -4.50 0 0 -41z"/>
  <path d="M562 179 l0 -41 4.50 0 4.50 0 0 41 0 41 -4.50 0 -4.50 0 0 -41z"/>
  <path d="M67 83 l0 -41 4.50 0 4.50 0 0 41 0 41 -4.50 0 -4.50 0 0 -41z"/>
  <path d="M229 120 l0 -4 22.50 0 22.50 0 0 4 0 4 -22.50 0 -22.50 0 0 -4z"/>
  <path d="M364 120 l0 -4 22.50 0 22.50 0 0 4 0 4 -22.50 0 -22.50 0 0 -4z"/>
  <path d="M562 83 l0 -41 4.50 0 4.50 0 0 41 0 41 -4.50 0 -4.50 0 0 -41z"/>
  <path d="M277 115.80 c0 -0.65 0.70 -2.50 1.50 -4.05 0.85 -1.55 1.50 -3.15 1.50 -3.50 0 -0.35 0.70 -1.95 1.50 -3.50 0.85 -1.55 1.50 -3.15 1.50 -3.55 0 -0.35 0.45 -1.45 1 -2.45 0.55 -1 1 -2.10 1 -2.45 0 -0.40 0.70 -2 1.50 -3.55 0.85 -1.55 1.50 -3.15 1.50 -3.50 0 -0.35 0.70 -1.95 1.50 -3.50 0.85 -1.55 1.50 -3.15 1.50 -3.50 0 -0.35 0.70 -1.95 1.50 -3.50 0.85 -1.55 1.50 -3.15 1.50 -3.55 0 -0.35 0.45 -1.45 1 -2.45 0.55 -1 1 -2.10 1 -2.45 0 -0.40 0.70 -2 1.50 -3.55 0.85 -1.55 1.50 -3.15 1.50 -3.50 0 -0.35 0.70 -1.95 1.50 -3.50 0.85 -1.55 1.50 -3.10 1.50 -3.40 0 -0.30 0.50 -1.65 1.15 -2.95 l1.10 -2.40 4.90 0 4.85 0 0 1.45 c0 0.85 -0.20 1.65 -0.50 1.80 -0.25 0.15 -0.50 0.75 -0.50 1.25 0 0.55 -0.45 1.75 -1 2.75 -0.55 1 -1 2.10 -1 2.45 0 0.40 -0.65 2 -1.50 3.55 -0.80 1.55 -1.50 3.15 -1.50 3.55 0 0.35 -0.45 1.45 -1 2.45 -0.55 1 -1 2.10 -1 2.45 0 0.40 -0.65 2 -1.50 3.55 -0.80 1.55 -1.50 3.15 -1.50 3.50 0 0.35 -0.65 1.95 -1.50 3.50 -0.80 1.55 -1.50 3.15 -1.50 3.50 0 0.35 -0.65 1.95 -1.50 3.50 -0.80 1.55 -1.50 3.15 -1.50 3.50 0 0.35 -0.65 1.95 -1.50 3.50 -0.80 1.55 -1.50 3.15 -1.50 3.50 0 0.35 -0.65 1.95 -1.50 3.50 -0.80 1.55 -1.50 3.15 -1.50 3.50 0 0.35 -0.65 1.95 -1.50 3.50 -0.80 1.55 -1.50 3.25 -1.50 3.70 0 1.70 -1.10 2.05 -6.10 2.05 -4.85 0 -4.90 0 -4.90 -1.20z"/>
  <path d="M350.15 114.60 c-0.65 -1.30 -1.15 -2.65 -1.15 -2.95 0 -0.30 -0.65 -1.85 -1.50 -3.40 -0.80 -1.55 -1.50 -3.15 -1.50 -3.50 0 -0.35 -0.65 -1.95 -1.50 -3.50 -0.80 -1.55 -1.50 -3.15 -1.50 -3.50 0 -0.35 -0.65 -1.95 -1.50 -3.50 -0.80 -1.55 -1.50 -3.15 -1.50 -3.50 0 -0.35 -0.65 -1.95 -1.50 -3.50 -0.80 -1.55 -1.50 -3.15 -1.50 -3.50 0 -0.35 -0.65 -1.95 -1.50 -3.50 -0.80 -1.55 -1.50 -3.15 -1.50 -3.50 0 -0.35 -0.65 -1.95 -1.50 -3.50 -0.80 -1.55 -1.50 -3.15 -1.50 -3.50 0 -0.35 -0.65 -1.95 -1.50 -3.50 -0.80 -1.55 -1.50 -3.15 -1.50 -3.55 0 -0.35 -0.45 -1.45 -1 -2.45 -0.55 -1 -1 -2.10 -1 -2.50 0 -0.40 -0.45 -1.50 -1 -2.50 -0.55 -1 -1 -2.35 -1 -3 0 -1.25 0 -1.25 4.90 -1.25 l4.85 0 1.15 2.40 c0.60 1.30 1.10 2.65 1.10 2.95 0 0.30 0.70 1.85 1.50 3.40 0.85 1.55 1.50 3.15 1.50 3.55 0 0.35 0.45 1.45 1 2.45 0.55 1 1 2.10 1 2.45 0 0.40 0.70 2 1.50 3.55 0.85 1.55 1.50 3.15 1.50 3.50 0 0.35 0.70 1.95 1.50 3.50 0.85 1.55 1.50 3.15 1.50 3.50 0 0.35 0.70 1.95 1.50 3.50 0.85 1.55 1.50 3.15 1.50 3.50 0 0.35 0.70 1.95 1.50 3.50 0.85 1.55 1.50 3.15 1.50 3.55 0 0.35 0.45 1.45 1 2.45 0.55 1 1 2.10 1 2.45 0 0.40 0.70 2 1.50 3.55 0.85 1.55 1.50 3.15 1.50 3.55 0 0.35 0.45 1.45 1 2.45 0.55 1 1 2.20 1 2.75 0 0.50 0.25 1.10 0.50 1.25 0.30 0.15 0.50 0.75 0.50 1.30 0 0.85 -0.40 0.95 -4.85 0.95 l-4.90 0 -1.10 -2.40z"/>
  <path d="M202.25 108 c-0.50 -0.55 -1.15 -1 -1.45 -1 -1 0 -1.80 -2.65 -1.80 -6 0 -5.90 2.05 -8 7.75 -8 2.80 0 3.15 0.15 4.55 1.65 2.25 2.50 2.70 3.60 2.70 6.95 0 3 -0.10 3.20 -2.10 5.25 -2.05 2.10 -2.20 2.15 -5.45 2.15 -2.65 0 -3.45 -0.20 -4.20 -1z"/>
  <path d="M427.25 108 c-0.50 -0.55 -1.15 -1 -1.45 -1 -0.70 0 -2.80 -4.40 -2.80 -5.85 0 -0.60 0.25 -1.25 0.50 -1.40 0.30 -0.15 0.50 -0.70 0.50 -1.20 0 -1.65 1.55 -4 3.10 -4.80 0.90 -0.40 2.85 -0.75 4.65 -0.75 2.80 0 3.15 0.15 4.55 1.65 2.25 2.50 2.70 3.60 2.70 6.95 0 3 -0.10 3.20 -2.10 5.25 -2.05 2.10 -2.20 2.15 -5.45 2.15 -2.65 0 -3.45 -0.20 -4.20 -1z"/>
  <path d="M149 86.50 l0 -4.50 12.50 0 12.50 0 0 4.50 0 4.50 -12.50 0 -12.50 0 0 -4.50z"/>
  <path d="M464 86.50 l0 -4.50 12.50 0 12.50 0 0 4.50 0 4.50 -12.50 0 -12.50 0 0 -4.50z"/>
  <path d="M109.10 60.75 c-1.20 -0.65 -2.80 -1.75 -3.55 -2.45 -0.75 -0.70 -1.55 -1.30 -1.80 -1.30 -0.55 0 -4.75 -4.05 -4.75 -4.60 0 -0.20 2.65 -0.40 5.90 -0.40 5.30 0 6.05 0.10 6.85 1 0.50 0.55 1.15 1 1.45 1 0.30 0 2.15 1.60 4.05 3.50 1.90 1.95 3.75 3.50 4.10 3.50 0.35 0 0.65 0.25 0.65 0.50 0 0.30 -2.10 0.50 -5.35 0.45 -4.60 -0.05 -5.70 -0.25 -7.55 -1.20z"/>
  <path d="M516 61.60 c0 -0.55 3.20 -3.60 3.80 -3.60 0.25 0 1.50 -1 2.70 -2.25 3.35 -3.40 4.30 -3.75 10.85 -3.75 5.65 0 5.70 0 5.55 1.10 -0.10 0.60 -0.65 1.40 -1.30 1.70 -0.65 0.30 -1.80 1.15 -2.55 1.90 -0.75 0.70 -1.60 1.30 -1.90 1.30 -0.30 0 -0.80 0.35 -1.15 0.75 -0.30 0.35 -1.75 1.25 -3.15 2 -2.25 1.10 -3.20 1.25 -7.70 1.25 -2.85 0 -5.15 -0.20 -5.15 -0.40z"/>
 </g>
</svg>