<?xml version="1.0" encoding="utf-8"?>
<!DOCTYPE svg PUBLIC "-//W3C//DTD SVG 1.1//EN" "http://www.w3.org/Graphics/SVG/1.1/DTD/svg11.dtd">
<svg version="1.1" xmlns="http://www.w3.org/2000/svg" width="666px" height="881px" viewBox="0 0 666 881" preserveAspectRatio="xMidYMid meet">
 <g fill="#000000">
  <path d="M292 833.6 c0 -2.9 -0.3 -7.4 -0.6 -10 l-0.7 -4.6 5.8 0 5.8 0 -0.7 5.3 c-0.3 2.8 -0.6 7.3 -0.6 10 l0 4.7 -4.5 0 -4.5 0 0 -5.4z"/>
  <path d="M337 833.6 c0 -2.9 -0.3 -7.4 -0.6 -10 l-0.7 -4.6 5.8 0 5.8 0 -0.7 5.3 c-0.3 2.8 -0.6 7.3 -0.6 10 l0 4.7 -4.5 0 -4.5 0 0 -5.4z"/>
  <path d="M246.6 778.9 c-2 -1.6 -2.6 -2.9 -2.6 -5.9 0 -4.4 3.5 -8 7.7 -8 3.4 0 7.3 4.2 7.3 8 0 3.8 -3.9 8 -7.3 8 -1.3 0 -3.6 -0.9 -5.1 -2.1z"/>
  <path d="M381.6 778.9 c-3.7 -2.9 -3.7 -8.9 0 -11.8 1.5 -1.2 3.8 -2.1 5.1 -2.1 3.4 0 7.3 4.2 7.3 8 0 3.8 -3.9 8 -7.3 8 -1.3 0 -3.6 -0.9 -5.1 -2.1z"/>
  <path d="M202 737.6 c0 -2.9 -0.3 -7.4 -0.6 -10 l-0.7 -4.6 5.8 0 5.8 0 -0.7 5.3 c-0.3 2.8 -0.6 7.3 -0.6 10 l0 4.7 -4.5 0 -4.5 0 0 -5.4z"/>
  <path d="M427 737.6 c0 -2.9 -0.3 -7.4 -0.6 -10 l-0.7 -4.6 5.8 0 5.8 0 -0.7 5.3 c-0.3 2.8 -0.6 7.3 -0.6 10 l0 4.7 -4.5 0 -4.5 0 0 -5.4z"/>
  <path d="M171.5 692.1 c-0.4 -0.7 -22.9 -53.4 -27.2 -63.9 -0.4 -1 0.6 -1.2 4.2 -1 l4.8 0.3 12.4 29 c6.7 16 13 30.7 13.8 32.8 l1.5 3.7 -4.4 0 c-2.5 0 -4.7 -0.4 -5.1 -0.9z"/>
  <path d="M457.6 691.6 c0.3 -0.8 6.5 -15.6 13.8 -32.8 l13.3 -31.3 4.6 -0.3 c2.6 -0.2 4.7 0.1 4.6 0.5 0 0.4 -6.2 15.2 -13.7 32.8 l-13.7 32 -4.8 0.3 c-3.8 0.3 -4.6 0 -4.1 -1.2z"/>
  <path d="M126.5 596.1 c-0.4 -0.7 -22.9 -53.4 -27.2 -63.9 -0.4 -1 0.6 -1.2 4.2 -1 l4.8 0.3 12.4 29 c6.7 16 13 30.7 13.8 32.8 l1.5 3.7 -4.4 0 c-2.5 0 -4.7 -0.4 -5.1 -0.9z"/>
  <path d="M502.6 595.6 c0.3 -0.8 6.5 -15.6 13.8 -32.8 l13.3 -31.3 4.6 -0.3 c2.6 -0.2 4.7 0.1 4.6 0.5 0 0.4 -6.2 15.2 -13.7 32.8 l-13.7 32 -4.8 0.3 c-3.8 0.3 -4.6 0 -4.1 -1.2z"/>
  <path d="M81.5 500.1 c-0.4 -0.7 -22.9 -53.4 -27.2 -63.9 -0.4 -1 0.6 -1.2 4.2 -1 l4.8 0.3 12.4 29 c6.7 16 13 30.7 13.8 32.8 l1.5 3.7 -4.4 0 c-2.5 0 -4.7 -0.4 -5.1 -0.9z"/>
  <path d="M547.6 499.6 c0.3 -0.8 6.5 -15.6 13.8 -32.8 l13.3 -31.3 4.6 -0.3 c2.6 -0.2 4.7 0.1 4.6 0.5 0 0.4 -6.2 15.2 -13.7 32.8 l-13.7 32 -4.8 0.3 c-3.8 0.3 -4.6 0 -4.1 -1.2z"/>
  <path d="M67 371 l0 -41 4.5 0 4.5 0 0 41 0 41 -4.5 0 -4.5 0 0 -41z"/>
  <path d="M562 371 l0 -41 4.5 0 4.5 0 0 41 0 41 -4.5 0 -4.5 0 0 -41z"/>
  <path d="M67 275 l0 -41 4.5 0 4.5 0 0 41 0 41 -4.5 0 -4.5 0 0 -41z"/>
  <path d="M562 275 l0 -41 4.5 0 4.5 0 0 41 0 41 -4.5 0 -4.5 0 0 -41z"/>
  <path d="M67 179 l0 -41 4.5 0 4.5 0 0 41 0 41 -4.5 0 -4.5 0 0 -41z"/>
  <path d="M562 179 l0 -41 4.5 0 4.5 0 0 41 0 41 -4.5 0 -4.5 0 0 -41z"/>
  <path d="M67 83 l0 -41 4.5 0 4.5 0 0 41 0 41 -4.5 0 -4.5 0 0 -41z"/>
  <path d="M229 120 l0 -4 22.5 0 22.5 0 0 4 0 4 -22.5 0 -22.5 0 0 -4z"/>
  <path d="M364 120 l0 -4 22.5 0 22.5 0 0 4 0 4 -22.5 0 -22.5 0 0 -4z"/>
  <path d="M562 83 l0 -41 4.5 0 4.5 0 0 41 0 41 -4.5 0 -4.5 0 0 -41z"/>
  <path d="M277.6 115.6 c0.3 -0.8 6.5 -15.6 13.8 -32.8 l13.3 -31.3 4.6 -0.3 c2.6 -0.2 4.7 0.1 4.6 0.5 0 0.4 -6.2 15.2 -13.7 32.8 l-13.7 32 -4.8 0.3 c-3.8 0.3 -4.6 0 -4.1 -1.2z"/>
  <path d="M351.5 116.1 c-0.4 -0.7 -22.9 -53.4 -27.2 -63.9 -0.4 -1 0.6 -1.2 4.2 -1 l4.8 0.3 12.4 29 c6.7 16 13 30.7 13.8 32.8 l1.5 3.7 -4.4 0 c-2.5 0 -4.7 -0.4 -5.1 -0.9z"/>
  <path d="M201.6 106.9 c-2 -1.6 -2.6 -2.9 -2.6 -5.9 0 -4.4 3.5 -8 7.7 -8 3.4 0 7.3 4.2 7.3 8 0 3.8 -3.9 8 -7.3 8 -1.3 0 -3.6 -0.9 -5.1 -2.1z"/>
  <path d="M426.6 106.9 c-3.7 -2.9 -3.7 -8.9 0 -11.8 1.5 -1.2 3.8 -2.1 5.1 -2.1 3.4 0 7.3 4.2 7.3 8 0 3.8 -3.9 8 -7.3 8 -1.3 0 -3.6 -0.9 -5.1 -2.1z"/>
  <path d="M149 86.5 l0 -4.5 12.5 0 12.5 0 0 4.5 0 4.5 -12.5 0 -12.5 0 0 -4.5z"/>
  <path d="M464 86.5 l0 -4.5 12.5 0 12.5 0 0 4.5 0 4.5 -12.5 0 -12.5 0 0 -4.5z"/>
  <path d="M106 57.9 c-8.1 -5.9 -8.1 -5.9 -1.4 -5.9 5.6 0.1 6.1 0.3 11.4 5 l5.5 5 -5 -0.1 c-4.2 0 -5.8 -0.6 -10.5 -4z"/>
  <path d="M522 57 c5.2 -4.7 5.8 -4.9 11.3 -5 3.1 0 5.7 0.2 5.7 0.4 0 0.2 -2.9 2.5 -6.4 5 -5.6 4 -7.1 4.6 -11.3 4.6 l-4.8 -0.1 5.5 -4.9z"/>
 </g>
</svg>