<?xml version="1.0" encoding="utf-8"?>
<!DOCTYPE svg PUBLIC "-//W3C//DTD SVG 1.1//EN" "http://www.w3.org/Graphics/SVG/1.1/DTD/svg11.dtd">
<svg version="1.1" xmlns="http://www.w3.org/2000/svg" width="911px" height="658px" viewBox="0 0 911 658" preserveAspectRatio="xMidYMid meet">
 <g fill="#000000">
  <path d="M355 576.1 c-0.5 -1.1 -1 -3.4 -1 -5.1 0 -5.5 1.5 -7 6.8 -7 6 0 7.2 1.2 7.2 7 0 5.8 -1.2 7 -7.2 7 -3.7 0 -5 -0.4 -5.8 -1.9z"/>
  <path d="M600 561 c0 -1.6 -0.7 -2 -3.4 -2 -4.1 0 -4.5 -0.9 -4.5 -9.5 0 -8.6 0.4 -9.5 4.5 -9.5 2.7 0 3.4 -0.4 3.4 -2 0 -1.7 0.7 -2 4.5 -2 3.8 0 4.5 0.3 4.5 2 0 1.6 0.7 2 3.4 2 4.1 0 4.5 0.9 4.5 9.5 0 8.6 -0.4 9.5 -4.5 9.5 -2.7 0 -3.4 0.4 -3.4 2 0 1.7 -0.7 2 -4.5 2 -3.8 0 -4.5 -0.3 -4.5 -2z"/>
  <path d="M491.7 552.3 c-0.4 -0.3 -0.7 -4.2 -0.7 -8.5 l0 -7.8 5.5 0 5.5 0 0 8.5 0 8.5 -4.8 0 c-2.7 0 -5.2 -0.3 -5.5 -0.7z"/>
  <path d="M139 517.1 c-0.5 -1.1 -1 -3.4 -1 -5.1 0 -5.5 1.5 -7 6.8 -7 6 0 7.2 1.2 7.2 7 0 5.8 -1.2 7 -7.2 7 -3.7 0 -5 -0.4 -5.8 -1.9z"/>
  <path d="M276 502 c0 -1.6 -0.7 -2 -3.4 -2 -4.1 0 -4.5 -0.9 -4.5 -9.5 0 -8.6 0.4 -9.5 4.5 -9.5 2.7 0 3.4 -0.4 3.4 -2 0 -1.7 0.7 -2 4.5 -2 3.8 0 4.5 0.3 4.5 2 0 1.6 0.7 2 3.4 2 4.1 0 4.5 0.9 4.5 9.5 0 8.6 -0.4 9.5 -4.5 9.5 -2.7 0 -3.4 0.4 -3.4 2 0 1.7 -0.7 2 -4.5 2 -3.8 0 -4.5 -0.3 -4.5 -2z"/>
  <path d="M409 458.1 c-0.5 -1.1 -1 -3.4 -1 -5.1 0 -5.5 1.5 -7 6.8 -7 6 0 7.2 1.2 7.2 7 0 5.8 -1.2 7 -7.2 7 -3.7 0 -5 -0.4 -5.8 -1.9z"/>
  <path d="M436 458.1 c-0.5 -1.1 -1 -3.4 -1 -5.1 0 -5.5 1.5 -7 6.8 -7 6 0 7.2 1.2 7.2 7 0 5.8 -1.2 7 -7.2 7 -3.7 0 -5 -0.4 -5.8 -1.9z"/>
  <path d="M463 458.1 c-0.5 -1.1 -1 -3.4 -1 -5.1 0 -5.5 1.5 -7 6.8 -7 6 0 7.2 1.2 7.2 7 0 5.8 -1.2 7 -7.2 7 -3.7 0 -5 -0.4 -5.8 -1.9z"/>
  <path d="M708 453 l0 -5 -5 0 -5 0 0 -5 0 -5 5 0 5 0 0 -5 0 -5 5 0 5 0 0 5 0 5 4.5 0 4.5 0 0 5 0 5 -4.5 0 -4.5 0 0 5 0 5 -5 0 -5 0 0 -5z"/>
  <path d="M379 443 l0 -5 10 0 10 0 0 5 0 5 -10 0 -10 0 0 -5z"/>
  <path d="M487 443 l0 -5 10 0 10 0 0 5 0 5 -10 0 -10 0 0 -5z"/>
  <path d="M518.7 434.3 c-0.4 -0.3 -0.7 -4.2 -0.7 -8.5 l0 -7.8 5.5 0 5.5 0 0 8.5 0 8.5 -4.8 0 c-2.7 0 -5.2 -0.3 -5.5 -0.7z"/>
  <path d="M599.7 434.3 c-0.4 -0.3 -0.7 -4.2 -0.7 -8.5 l0 -7.8 5.5 0 5.5 0 0 8.5 0 8.5 -4.8 0 c-2.7 0 -5.2 -0.3 -5.5 -0.7z"/>
  <path d="M353.2 427.2 c-2.4 -2 -3.2 -3.5 -3.2 -5.9 l0 -3.3 5.8 0 c7.2 0 10.2 2.5 10.2 8.3 l0 3.7 -4.7 0 c-3.7 0 -5.5 -0.7 -8.1 -2.8z"/>
  <path d="M399 405 l0 -5 30 0 30 0 0 5 0 5 -30 0 -30 0 0 -5z"/>
  <path d="M311.6 404.1 c-2.6 -4.1 -16.6 -39.8 -16.6 -42.2 0 -3 0 -3 5.1 -2.7 l5 0.3 8 18.9 c5.2 12.5 7.9 20.2 7.9 22.8 l0 3.8 -4.4 0 c-2.5 0 -4.7 -0.4 -5 -0.9z"/>
  <path d="M564 401.9 c0 -1.7 3.7 -12 8.3 -23 l8.2 -19.9 4.8 0 4.7 0 0 3.6 c0 2.3 -3 10.9 -8.1 23 l-8.2 19.4 -4.8 0 c-4.8 0 -4.9 -0.1 -4.9 -3.1z"/>
  <path d="M329.2 399.8 c-1.6 -1.6 -1.6 -10 0 -11.6 0.7 -0.7 3 -1.2 5.3 -1.2 5.3 0 6.5 1.3 6.5 7 0 5.7 -1.2 7 -6.5 7 -2.3 0 -4.6 -0.5 -5.3 -1.2z"/>
  <path d="M382 399.1 c-0.5 -1.1 -1 -3.4 -1 -5.1 0 -5.5 1.5 -7 6.8 -7 6 0 7.2 1.2 7.2 7 0 5.8 -1.2 7 -7.2 7 -3.7 0 -5 -0.4 -5.8 -1.9z"/>
  <path d="M463 399.1 c-0.5 -1.1 -1 -3.4 -1 -5.1 0 -5.5 1.5 -7 6.8 -7 6 0 7.2 1.2 7.2 7 0 5.8 -1.2 7 -7.2 7 -3.7 0 -5 -0.4 -5.8 -1.9z"/>
  <path d="M545.2 399.8 c-1.6 -1.6 -1.6 -10 0 -11.6 0.7 -0.7 3 -1.2 5.3 -1.2 5.3 0 6.5 1.3 6.5 7 0 5.7 -1.2 7 -6.5 7 -2.3 0 -4.6 -0.5 -5.3 -1.2z"/>
  <path d="M168 394 l0 -5 -5 0 -5 0 0 -5 0 -5 5 0 5 0 0 -5 0 -5 5 0 5 0 0 5 0 5 4.5 0 4.5 0 0 5 0 5 -4.5 0 -4.5 0 0 5 0 5 -5 0 -5 0 0 -5z"/>
  <path d="M329.2 380.8 c-1.6 -1.6 -1.6 -10 0 -11.6 0.7 -0.7 3 -1.2 5.3 -1.2 5.3 0 6.5 1.3 6.5 7 0 5.7 -1.2 7 -6.5 7 -2.3 0 -4.6 -0.5 -5.3 -1.2z"/>
  <path d="M545.2 380.8 c-1.6 -1.6 -1.6 -10 0 -11.6 0.7 -0.7 3 -1.2 5.3 -1.2 5.3 0 6.5 1.3 6.5 7 0 5.7 -1.2 7 -6.5 7 -2.3 0 -4.6 -0.5 -5.3 -1.2z"/>
  <path d="M356.7 375.3 c-0.4 -0.3 -0.7 -4.2 -0.7 -8.5 l0 -7.8 5.5 0 5.5 0 0 8.5 0 8.5 -4.8 0 c-2.7 0 -5.2 -0.3 -5.5 -0.7z"/>
  <path d="M491.7 375.3 c-0.4 -0.3 -0.7 -4.2 -0.7 -8.5 l0 -7.8 5.5 0 5.5 0 0 8.5 0 8.5 -4.8 0 c-2.7 0 -5.2 -0.3 -5.5 -0.7z"/>
  <path d="M788.7 375.3 c-0.4 -0.3 -0.7 -4.2 -0.7 -8.5 l0 -7.8 5.5 0 5.5 0 0 8.5 0 8.5 -4.8 0 c-2.7 0 -5.2 -0.3 -5.5 -0.7z"/>
  <path d="M81.9 350.5 c-5 -2.7 -6.4 -7.6 -6.3 -21.5 0.1 -14.3 2.1 -21.4 7.4 -26.5 2.7 -2.6 4 -3 10 -3.3 6.6 -0.4 7.1 -0.3 9.9 2.5 2 2.1 3.2 4.7 4.1 8.9 1.7 7.8 0.7 21.5 -1.8 25.7 -1.7 3.1 -2.1 3.2 -9.8 3.7 -6.5 0.4 -7.6 0.7 -5.9 1.6 1.2 0.7 2.8 0.8 4 0.3 1.1 -0.4 3.5 -0.8 5.3 -0.8 3.1 -0.1 3.2 0 3.2 4.4 0 4 -0.3 4.7 -2.6 5.5 -3.7 1.5 -14.5 1.1 -17.5 -0.5z m14.1 -39.5 c0 -1.9 -3.1 -2.3 -4.8 -0.6 -1.5 1.5 -1.4 1.6 1.6 1.6 1.8 0 3.2 -0.5 3.2 -1z"/>
  <path d="M276 323 l0 -28 4.5 0 4.5 0 0 28 0 28 -4.5 0 -4.5 0 0 -28z"/>
  <path d="M426 346 l0 -5 16.5 0 16.5 0 0 5 0 5 -16.5 0 -16.5 0 0 -5z"/>
  <path d="M600 323 l0 -28 4.5 0 4.5 0 0 28 0 28 -4.5 0 -4.5 0 0 -28z"/>
  <path d="M302.2 340.8 c-0.7 -0.7 -1.2 -3.3 -1.2 -5.8 0 -5.7 1.2 -7 6.5 -7 5.3 0 6.5 1.3 6.5 7 0 5.7 -1.2 7 -6.5 7 -2.3 0 -4.6 -0.5 -5.3 -1.2z"/>
  <path d="M329.2 340.8 c-1.6 -1.6 -1.6 -10 0 -11.6 0.7 -0.7 3 -1.2 5.3 -1.2 5.3 0 6.5 1.3 6.5 7 0 5.7 -1.2 7 -6.5 7 -2.3 0 -4.6 -0.5 -5.3 -1.2z"/>
  <path d="M409 340.1 c-0.5 -1.1 -1 -3.4 -1 -5.1 0 -5.5 1.5 -7 6.8 -7 6 0 7.2 1.2 7.2 7 0 5.8 -1.2 7 -7.2 7 -3.7 0 -5 -0.4 -5.8 -1.9z"/>
  <path d="M518.2 340.8 c-1.6 -1.6 -1.6 -10 0 -11.6 0.7 -0.7 3 -1.2 5.3 -1.2 5.3 0 6.5 1.3 6.5 7 0 5.7 -1.2 7 -6.5 7 -2.3 0 -4.6 -0.5 -5.3 -1.2z"/>
  <path d="M572.2 340.8 c-1.6 -1.6 -1.6 -10 0 -11.6 0.7 -0.7 3 -1.2 5.3 -1.2 5.3 0 6.5 1.3 6.5 7 0 5.7 -1.2 7 -6.5 7 -2.3 0 -4.6 -0.5 -5.3 -1.2z"/>
  <path d="M652 340.1 c-0.5 -1.1 -1 -3.4 -1 -5.1 0 -5.5 1.5 -7 6.8 -7 6 0 7.2 1.2 7.2 7 0 5.8 -1.2 7 -7.2 7 -3.7 0 -5 -0.4 -5.8 -1.9z"/>
  <path d="M302.2 321.8 c-0.7 -0.7 -1.2 -3.3 -1.2 -5.8 0 -5.7 1.2 -7 6.5 -7 5.3 0 6.5 1.3 6.5 7 0 5.7 -1.2 7 -6.5 7 -2.3 0 -4.6 -0.5 -5.3 -1.2z"/>
  <path d="M329.2 321.8 c-1.6 -1.6 -1.6 -10 0 -11.6 0.7 -0.7 3 -1.2 5.3 -1.2 5.3 0 6.5 1.3 6.5 7 0 5.7 -1.2 7 -6.5 7 -2.3 0 -4.6 -0.5 -5.3 -1.2z"/>
  <path d="M518.2 321.8 c-1.6 -1.6 -1.6 -10 0 -11.6 0.7 -0.7 3 -1.2 5.3 -1.2 5.3 0 6.5 1.3 6.5 7 0 5.7 -1.2 7 -6.5 7 -2.3 0 -4.6 -0.5 -5.3 -1.2z"/>
  <path d="M572.2 321.8 c-1.6 -1.6 -1.6 -10 0 -11.6 0.7 -0.7 3 -1.2 5.3 -1.2 5.3 0 6.5 1.3 6.5 7 0 5.7 -1.2 7 -6.5 7 -2.3 0 -4.6 -0.5 -5.3 -1.2z"/>
  <path d="M383.7 316.3 c-0.4 -0.3 -0.7 -4.2 -0.7 -8.5 l0 -7.8 5.5 0 5.5 0 0 8.5 0 8.5 -4.8 0 c-2.7 0 -5.2 -0.3 -5.5 -0.7z"/>
  <path d="M464.7 316.3 c-0.4 -0.3 -0.7 -4.2 -0.7 -8.5 l0 -7.8 5.5 0 5.5 0 0 8.5 0 8.5 -4.8 0 c-2.7 0 -5.2 -0.3 -5.5 -0.7z"/>
  <path d="M276 264 l0 -28 4.5 0 4.5 0 0 28 0 28 -4.5 0 -4.5 0 0 -28z"/>
  <path d="M426 287 l0 -5 16.5 0 16.5 0 0 5 0 5 -16.5 0 -16.5 0 0 -5z"/>
  <path d="M600 264 l0 -28 4.5 0 4.5 0 0 28 0 28 -4.5 0 -4.5 0 0 -28z"/>
  <path d="M220 281.1 c-0.5 -1.1 -1 -3.4 -1 -5.1 0 -5.5 1.5 -7 6.8 -7 6 0 7.2 1.2 7.2 7 0 5.8 -1.2 7 -7.2 7 -3.7 0 -5 -0.4 -5.8 -1.9z"/>
  <path d="M302.2 281.8 c-0.7 -0.7 -1.2 -3.3 -1.2 -5.8 0 -5.7 1.2 -7 6.5 -7 5.3 0 6.5 1.3 6.5 7 0 5.7 -1.2 7 -6.5 7 -2.3 0 -4.6 -0.5 -5.3 -1.2z"/>
  <path d="M329.2 281.8 c-1.6 -1.6 -1.6 -10 0 -11.6 0.7 -0.7 3 -1.2 5.3 -1.2 5.3 0 6.5 1.3 6.5 7 0 5.7 -1.2 7 -6.5 7 -2.3 0 -4.6 -0.5 -5.3 -1.2z"/>
  <path d="M382 281.1 c-0.5 -1.1 -1 -3.4 -1 -5.1 0 -5.5 1.5 -7 6.8 -7 6 0 7.2 1.2 7.2 7 0 5.8 -1.2 7 -7.2 7 -3.7 0 -5 -0.4 -5.8 -1.9z"/>
  <path d="M517 281.1 c-0.5 -1.1 -1 -3.4 -1 -5.1 0 -5.5 1.5 -7 6.8 -7 6 0 7.2 1.2 7.2 7 0 5.8 -1.2 7 -7.2 7 -3.7 0 -5 -0.4 -5.8 -1.9z"/>
  <path d="M572.2 281.8 c-1.6 -1.6 -1.6 -10 0 -11.6 0.7 -0.7 3 -1.2 5.3 -1.2 5.3 0 6.5 1.3 6.5 7 0 5.7 -1.2 7 -6.5 7 -2.3 0 -4.6 -0.5 -5.3 -1.2z"/>
  <path d="M708 266 c0 -1.6 -0.7 -2 -3.4 -2 -4.1 0 -4.5 -0.9 -4.5 -9.5 0 -8.6 0.4 -9.5 4.5 -9.5 2.7 0 3.4 -0.4 3.4 -2 0 -1.7 0.7 -2 4.5 -2 3.8 0 4.5 0.3 4.5 2 0 1.6 0.7 2 3.4 2 4.1 0 4.5 0.9 4.5 9.5 0 8.6 -0.4 9.5 -4.5 9.5 -2.7 0 -3.4 0.4 -3.4 2 0 1.7 -0.7 2 -4.5 2 -3.8 0 -4.5 -0.3 -4.5 -2z"/>
  <path d="M302.2 262.8 c-0.7 -0.7 -1.2 -3.3 -1.2 -5.8 0 -5.7 1.2 -7 6.5 -7 5.3 0 6.5 1.3 6.5 7 0 5.7 -1.2 7 -6.5 7 -2.3 0 -4.6 -0.5 -5.3 -1.2z"/>
  <path d="M329.2 262.8 c-1.6 -1.6 -1.6 -10 0 -11.6 0.7 -0.7 3 -1.2 5.3 -1.2 5.3 0 6.5 1.3 6.5 7 0 5.7 -1.2 7 -6.5 7 -2.3 0 -4.6 -0.5 -5.3 -1.2z"/>
  <path d="M572.2 262.8 c-1.6 -1.6 -1.6 -10 0 -11.6 0.7 -0.7 3 -1.2 5.3 -1.2 5.3 0 6.5 1.3 6.5 7 0 5.7 -1.2 7 -6.5 7 -2.3 0 -4.6 -0.5 -5.3 -1.2z"/>
  <path d="M410.7 257.3 c-0.4 -0.3 -0.7 -4.2 -0.7 -8.5 l0 -7.8 5.5 0 5.5 0 0 8.5 0 8.5 -4.8 0 c-2.7 0 -5.2 -0.3 -5.5 -0.7z"/>
  <path d="M488.2 250.2 c-2.4 -2 -3.2 -3.5 -3.2 -5.9 l0 -3.3 5.8 0 c7.2 0 10.2 2.5 10.2 8.3 l0 3.7 -4.7 0 c-3.7 0 -5.5 -0.7 -8.1 -2.8z"/>
  <path d="M426 228 l0 -5 30 0 30 0 0 5 0 5 -30 0 -30 0 0 -5z"/>
  <path d="M294 224.9 c0 -1.7 3.7 -12 8.3 -23 l8.2 -19.9 4.8 0 4.7 0 0 3.6 c0 2.3 -3 10.9 -8.1 23 l-8.2 19.4 -4.8 0 c-4.8 0 -4.9 -0.1 -4.9 -3.1z"/>
  <path d="M581.6 227.1 c-2.6 -4.1 -16.6 -39.8 -16.6 -42.2 0 -3 0 -3 5.1 -2.7 l5 0.3 8 18.9 c5.2 12.5 7.9 20.2 7.9 22.8 l0 3.8 -4.4 0 c-2.5 0 -4.7 -0.4 -5 -0.9z"/>
  <path d="M329.2 222.8 c-1.6 -1.6 -1.6 -10 0 -11.6 0.7 -0.7 3 -1.2 5.3 -1.2 5.3 0 6.5 1.3 6.5 7 0 5.7 -1.2 7 -6.5 7 -2.3 0 -4.6 -0.5 -5.3 -1.2z"/>
  <path d="M355 222.1 c-0.5 -1.1 -1 -3.4 -1 -5.1 0 -5.5 1.5 -7 6.8 -7 6 0 7.2 1.2 7.2 7 0 5.8 -1.2 7 -7.2 7 -3.7 0 -5 -0.4 -5.8 -1.9z"/>
  <path d="M544 222.1 c-0.5 -1.1 -1 -3.4 -1 -5.1 0 -5.5 1.5 -7 6.8 -7 6 0 7.2 1.2 7.2 7 0 5.8 -1.2 7 -7.2 7 -3.7 0 -5 -0.4 -5.8 -1.9z"/>
  <path d="M114 207 c0 -1.6 -0.7 -2 -3.4 -2 -4.1 0 -4.5 -0.9 -4.5 -9.5 0 -8.6 0.4 -9.5 4.5 -9.5 2.7 0 3.4 -0.4 3.4 -2 0 -1.7 0.7 -2 4.5 -2 3.8 0 4.5 0.3 4.5 2 0 1.6 0.7 2 3.4 2 4.1 0 4.5 0.9 4.5 9.5 0 8.6 -0.4 9.5 -4.5 9.5 -2.7 0 -3.4 0.4 -3.4 2 0 1.7 -0.7 2 -4.5 2 -3.8 0 -4.5 -0.3 -4.5 -2z"/>
  <path d="M329.2 203.8 c-1.6 -1.6 -1.6 -10 0 -11.6 0.7 -0.7 3 -1.2 5.3 -1.2 5.3 0 6.5 1.3 6.5 7 0 5.7 -1.2 7 -6.5 7 -2.3 0 -4.6 -0.5 -5.3 -1.2z"/>
  <path d="M383.7 198.3 c-0.4 -0.3 -0.7 -4.2 -0.7 -8.5 l0 -7.8 5.5 0 5.5 0 0 8.5 0 8.5 -4.8 0 c-2.7 0 -5.2 -0.3 -5.5 -0.7z"/>
  <path d="M518.7 198.3 c-0.4 -0.3 -0.7 -4.2 -0.7 -8.5 l0 -7.8 5.5 0 5.5 0 0 8.5 0 8.5 -4.8 0 c-2.7 0 -5.2 -0.3 -5.5 -0.7z"/>
  <path d="M788.7 198.3 c-0.4 -0.3 -0.7 -4.2 -0.7 -8.5 l0 -7.8 5.5 0 5.5 0 0 8.5 0 8.5 -4.8 0 c-2.7 0 -5.2 -0.3 -5.5 -0.7z"/>
  <path d="M407.2 191.2 c-2.4 -2 -3.2 -3.5 -3.2 -5.9 l0 -3.3 5.8 0 c7.2 0 10.2 2.5 10.2 8.3 l0 3.7 -4.7 0 c-3.7 0 -5.5 -0.7 -8.1 -2.8z"/>
  <path d="M488.2 191.2 c-2.4 -2 -3.2 -3.5 -3.2 -5.9 l0 -3.3 5.8 0 c7.2 0 10.2 2.5 10.2 8.3 l0 3.7 -4.7 0 c-3.7 0 -5.5 -0.7 -8.1 -2.8z"/>
  <path d="M426 169 l0 -5 30 0 30 0 0 5 0 5 -30 0 -30 0 0 -5z"/>
  <path d="M328 163.1 c-0.5 -1.1 -1 -3.4 -1 -5.1 0 -5.5 1.5 -7 6.8 -7 6 0 7.2 1.2 7.2 7 0 5.8 -1.2 7 -7.2 7 -3.7 0 -5 -0.4 -5.8 -1.9z"/>
  <path d="M544 163.1 c-0.5 -1.1 -1 -3.4 -1 -5.1 0 -5.5 1.5 -7 6.8 -7 6 0 7.2 1.2 7.2 7 0 5.8 -1.2 7 -7.2 7 -3.7 0 -5 -0.4 -5.8 -1.9z"/>
  <path d="M654 158 l0 -5 -5 0 -5 0 0 -5 0 -5 5 0 5 0 0 -5 0 -5 5 0 5 0 0 5 0 5 4.5 0 4.5 0 0 5 0 5 -4.5 0 -4.5 0 0 5 0 5 -5 0 -5 0 0 -5z"/>
  <path d="M352 148 l0 -5 10 0 10 0 0 5 0 5 -10 0 -10 0 0 -5z"/>
  <path d="M514 148 l0 -5 10 0 10 0 0 5 0 5 -10 0 -10 0 0 -5z"/>
  <path d="M378.6 135.4 c-0.3 -2.6 -0.6 -6.4 -0.6 -8.5 l0 -3.9 10.5 0 10.5 0 0 3.9 c0 2.1 -0.3 5.9 -0.6 8.5 l-0.7 4.6 -9.2 0 -9.2 0 -0.7 -4.6z"/>
  <path d="M486.6 135.4 c-0.3 -2.6 -0.6 -6.4 -0.6 -8.5 l0 -3.9 10.5 0 10.5 0 0 3.9 c0 2.1 -0.3 5.9 -0.6 8.5 l-0.7 4.6 -9.2 0 -9.2 0 -0.7 -4.6z"/>
  <path d="M594.9 114.5 c-5 -2.7 -6.4 -7.6 -6.3 -21.5 0.1 -14.3 2.1 -21.4 7.4 -26.5 2.7 -2.6 4 -3 10 -3.3 6.6 -0.4 7.1 -0.3 9.9 2.5 2 2.1 3.2 4.7 4.1 8.9 1.7 7.8 0.7 21.5 -1.8 25.7 -1.7 3.1 -2.1 3.2 -9.8 3.7 -6.5 0.4 -7.6 0.7 -5.9 1.6 1.2 0.7 2.8 0.8 4 0.3 1.1 -0.4 3.5 -0.8 5.3 -0.8 3.1 -0.1 3.2 0 3.2 4.4 0 4 -0.3 4.7 -2.6 5.5 -3.7 1.5 -14.5 1.1 -17.5 -0.5z m14.1 -39.5 c0 -1.9 -3.1 -2.3 -4.8 -0.6 -1.5 1.5 -1.4 1.6 1.6 1.6 1.8 0 3.2 -0.5 3.2 -1z"/>
  <path d="M399 110 l0 -5 43.5 0 43.5 0 0 5 0 5 -43.5 0 -43.5 0 0 -5z"/>
  <path d="M733 104.1 c-0.5 -1.1 -1 -3.4 -1 -5.1 0 -5.5 1.5 -7 6.8 -7 6 0 7.2 1.2 7.2 7 0 5.8 -1.2 7 -7.2 7 -3.7 0 -5 -0.4 -5.8 -1.9z"/>
  <path d="M303 99 l0 -5 -5 0 -5 0 0 -5 0 -5 5 0 5 0 0 -5 0 -5 5 0 5 0 0 5 0 5 4.5 0 4.5 0 0 5 0 5 -4.5 0 -4.5 0 0 5 0 5 -5 0 -5 0 0 -5z"/>
  <path d="M221.7 80.3 c-0.4 -0.3 -0.7 -4.2 -0.7 -8.5 l0 -7.8 5.5 0 5.5 0 0 8.5 0 8.5 -4.8 0 c-2.7 0 -5.2 -0.3 -5.5 -0.7z"/>
  <path d="M544 45.1 c-0.5 -1.1 -1 -3.4 -1 -5.1 0 -5.5 1.5 -7 6.8 -7 6 0 7.2 1.2 7.2 7 0 5.8 -1.2 7 -7.2 7 -3.7 0 -5 -0.4 -5.8 -1.9z"/>
  <path d="M411 30 c0 -1.6 -0.7 -2 -3.4 -2 -4.1 0 -4.5 -0.9 -4.5 -9.5 0 -8.6 0.4 -9.5 4.5 -9.5 2.7 0 3.4 -0.4 3.4 -2 0 -1.7 0.7 -2 4.5 -2 3.8 0 4.5 0.3 4.5 2 0 1.6 0.7 2 3.4 2 4.1 0 4.5 0.9 4.5 9.5 0 8.6 -0.4 9.5 -4.5 9.5 -2.7 0 -3.4 0.4 -3.4 2 0 1.7 -0.7 2 -4.5 2 -3.8 0 -4.5 -0.3 -4.5 -2z"/>
 </g>
 <g fill="#ffffff">
  <path d="M0 329 l0 -329 455.5 0 455.5 0 0 329 0 329 -455.5 0 -455.5 0 0 -329z m364.4 243.8 c0.8 -1.3 0.8 -2.3 0 -3.5 -1.6 -2.6 -5.1 -2.8 -6.4 -0.4 -2.5 4.7 3.6 8.3 6.4 3.9z m241.6 -16.9 l0 -4.1 3.4 2.1 c2.9 1.8 3.5 1.9 4 0.6 0.4 -1.1 -0.5 -2.1 -3 -3.2 l-3.5 -1.7 3.5 -1.8 c2.4 -1.2 3.3 -2.3 3 -3.3 -0.5 -1.3 -1.1 -1.2 -4 0.6 l-3.4 2.1 0 -4.1 c0 -3 -0.4 -4.1 -1.5 -4.1 -1.1 0 -1.5 1.1 -1.5 4.1 l0 4.1 -3.4 -2.1 c-2.9 -1.8 -3.5 -1.9 -4 -0.6 -0.4 1.1 0.5 2.1 3 3.2 l3.5 1.7 -3.5 1.8 c-2.4 1.2 -3.3 2.3 -3 3.3 0.5 1.3 1.1 1.2 4 -0.6 l3.4 -2.1 0 4.1 c0 3 0.4 4.1 1.5 4.1 1.1 0 1.5 -1.1 1.5 -4.1z m-107 -11.4 c0 -5.2 -0.1 -5.5 -2.5 -5.5 -2.3 0 -2.5 0.3 -2.5 4.8 0 5.3 0.4 6.2 3.2 6.2 1.5 0 1.8 -0.8 1.8 -5.5z m-350.6 -30.7 c0.8 -1.3 0.8 -2.3 0 -3.5 -2.8 -4.5 -8.9 -0.9 -6.4 3.8 1.3 2.4 4.8 2.2 6.4 -0.3z m133.6 -16.9 l0 -4.1 3.4 2.1 c2.9 1.8 3.5 1.9 4 0.6 0.4 -1.1 -0.5 -2.1 -3 -3.2 l-3.5 -1.7 3.5 -1.8 c2.4 -1.2 3.3 -2.3 3 -3.3 -0.5 -1.3 -1.1 -1.2 -4 0.6 l-3.4 2.1 0 -4.1 c0 -3 -0.4 -4.1 -1.5 -4.1 -1.1 0 -1.5 1.1 -1.5 4.1 l0 4.1 -3.4 -2.1 c-2.9 -1.8 -3.5 -1.9 -4 -0.6 -0.4 1.1 0.5 2.1 3 3.2 l3.5 1.7 -3.5 1.8 c-2.4 1.2 -3.3 2.3 -3 3.3 0.5 1.3 1.1 1.2 4 -0.6 l3.4 -2.1 0 4.1 c0 3 0.4 4.1 1.5 4.1 1.1 0 1.5 -1.1 1.5 -4.1z m136.4 -42.1 c0.8 -1.3 0.8 -2.3 0 -3.5 -2.8 -4.5 -8.9 -0.9 -6.4 3.8 1.3 2.4 4.8 2.2 6.4 -0.3z m27 0 c0.8 -1.3 0.8 -2.3 0 -3.5 -2.8 -4.5 -8.9 -0.9 -6.4 3.8 1.3 2.4 4.8 2.2 6.4 -0.3z m27 0 c0.8 -1.3 0.8 -2.3 0 -3.5 -2.8 -4.5 -8.9 -0.9 -6.4 3.8 1.3 2.4 4.8 2.2 6.4 -0.3z m242.6 -4.8 l0 -5 4.5 0 c3.8 0 4.5 -0.3 4.5 -2 0 -1.7 -0.7 -2 -4.5 -2 l-4.5 0 0 -5 c0 -4.3 -0.3 -5 -2 -5 -1.7 0 -2 0.7 -2 5 l0 5 -5 0 c-4.3 0 -5 0.3 -5 2 0 1.7 0.7 2 5 2 l5 0 0 5 c0 4.3 0.3 5 2 5 1.7 0 2 -0.7 2 -5z m-319 -7 c0 -1.8 -0.7 -2 -7 -2 -6.3 0 -7 0.2 -7 2 0 1.8 0.7 2 7 2 6.3 0 7 -0.2 7 -2z m108 0 c0 -1.8 -0.7 -2 -7 -2 -6.3 0 -7 0.2 -7 2 0 1.8 0.7 2 7 2 6.3 0 7 -0.2 7 -2z m22 -16.5 c0 -5.2 -0.1 -5.5 -2.5 -5.5 -2.3 0 -2.5 0.3 -2.5 4.8 0 5.3 0.4 6.2 3.2 6.2 1.5 0 1.8 -0.8 1.8 -5.5z m81 0 c0 -5.2 -0.1 -5.5 -2.5 -5.5 -2.3 0 -2.5 0.3 -2.5 4.8 0 5.3 0.4 6.2 3.2 6.2 1.5 0 1.8 -0.8 1.8 -5.5z m-244 -0.2 c0 -2 -4.6 -5.3 -7.4 -5.3 l-3.1 0.1 3.5 2.9 c3.2 2.7 7 4 7 2.3z m93 -21.3 c0 -2 -0.7 -2 -27 -2 -26.3 0 -27 0 -27 2 0 2 0.7 2 27 2 26.3 0 27 0 27 -2z m-138 -3.8 c0 -0.5 -3.6 -9.4 -7.9 -19.8 -6.5 -15.3 -8.4 -19 -10.1 -19.2 -2 -0.3 -2.1 -0.3 -0.5 3.5 0.9 2.1 4.4 10.3 7.7 18.3 3.3 8 6.4 15.3 7 16.3 0.9 1.7 3.8 2.4 3.8 0.9z m260.9 -18.6 c4.4 -10.6 8.1 -19.6 8.1 -20 0 -0.3 -0.8 -0.6 -1.7 -0.6 -1.4 0 -3.4 4 -8.3 15.7 -10.9 26.3 -10.3 24.3 -8.1 24.3 1.5 0 3.6 -4.1 10 -19.4z m-242.1 14.2 c1.7 -1.7 1.5 -4.3 -0.4 -5.9 -3.1 -2.6 -7 2.5 -4.4 5.6 1.5 1.8 3.2 1.9 4.8 0.3z m54.6 -1 c0.8 -1.3 0.8 -2.3 0 -3.5 -2.8 -4.5 -8.9 -0.9 -6.4 3.8 1.3 2.4 4.8 2.2 6.4 -0.3z m81 0 c0.8 -1.3 0.8 -2.3 0 -3.5 -2.8 -4.5 -8.9 -0.9 -6.4 3.8 1.3 2.4 4.8 2.2 6.4 -0.3z m80.4 1 c1.7 -1.7 1.5 -4.3 -0.4 -5.9 -3.1 -2.6 -7 2.5 -4.4 5.6 1.5 1.8 3.2 1.9 4.8 0.3z m-377.8 -5.8 l0 -5 4.5 0 c3.8 0 4.5 -0.3 4.5 -2 0 -1.7 -0.7 -2 -4.5 -2 l-4.5 0 0 -5 c0 -4.3 -0.3 -5 -2 -5 -1.7 0 -2 0.7 -2 5 l0 5 -5 0 c-4.3 0 -5 0.3 -5 2 0 1.7 0.7 2 5 2 l5 0 0 5 c0 4.3 0.3 5 2 5 1.7 0 2 -0.7 2 -5z m161.8 -13.2 c1.7 -1.7 1.5 -4.3 -0.4 -5.9 -3.1 -2.6 -7 2.5 -4.4 5.6 1.5 1.8 3.2 1.9 4.8 0.3z m216 0 c1.7 -1.7 1.5 -4.3 -0.4 -5.9 -3.1 -2.6 -7 2.5 -4.4 5.6 1.5 1.8 3.2 1.9 4.8 0.3z m-188.8 -10.3 c0 -5.2 -0.1 -5.5 -2.5 -5.5 -2.3 0 -2.5 0.3 -2.5 4.8 0 5.3 0.4 6.2 3.2 6.2 1.5 0 1.8 -0.8 1.8 -5.5z m135 0 c0 -5.2 -0.1 -5.5 -2.5 -5.5 -2.3 0 -2.5 0.3 -2.5 4.8 0 5.3 0.4 6.2 3.2 6.2 1.5 0 1.8 -0.8 1.8 -5.5z m297 0 c0 -5.2 -0.1 -5.5 -2.5 -5.5 -2.3 0 -2.5 0.3 -2.5 4.8 0 5.3 0.4 6.2 3.2 6.2 1.5 0 1.8 -0.8 1.8 -5.5z m-699.6 -19.5 c1.4 -0.5 2.6 -1.6 2.6 -2.3 0 -1.2 -0.7 -1.2 -4 -0.4 -5.4 1.5 -9 0.1 -11.3 -4.3 -2.8 -5.5 -2.1 -21.9 1.4 -28.6 2.9 -5.7 6.3 -8 10.3 -7 3.8 0.9 5.6 5.8 5.6 15 0 8.1 -1.3 13 -3.3 12.3 -1.3 -0.4 -1.3 -1.7 -0.2 -11.2 l0.7 -6.1 -4.2 0.1 c-3.5 0 -4.7 0.5 -6.3 2.7 -2.5 3.3 -3.5 13.4 -1.8 16.7 1.4 2.5 4.3 2.8 6.2 0.5 1.1 -1.4 1.3 -1.4 2.1 0 0.5 0.9 2 1.6 3.4 1.6 8.1 0 9.8 -24.7 2.2 -32.3 -2.5 -2.6 -3.4 -2.9 -7 -2.4 -8.8 1.2 -14 10.9 -14.1 26.7 -0.1 10.7 1.7 16 6.2 18.5 3.1 1.7 7.9 1.9 11.5 0.5z m185.6 -25 c0 -21.6 -0.2 -25 -1.5 -25 -1.3 0 -1.5 3.4 -1.5 25 0 21.6 0.2 25 1.5 25 1.3 0 1.5 -3.4 1.5 -25z m174 23 c0 -1.9 -0.7 -2 -13.5 -2 -12.8 0 -13.5 0.1 -13.5 2 0 1.9 0.7 2 13.5 2 12.8 0 13.5 -0.1 13.5 -2z m150 -23 c0 -21.6 -0.2 -25 -1.5 -25 -1.3 0 -1.5 3.4 -1.5 25 0 21.6 0.2 25 1.5 25 1.3 0 1.5 -3.4 1.5 -25z m-296.2 14.8 c1.7 -1.7 1.5 -4.3 -0.4 -5.9 -3.1 -2.6 -7 2.5 -4.4 5.6 1.5 1.8 3.2 1.9 4.8 0.3z m27 0 c1.7 -1.7 1.5 -4.3 -0.4 -5.9 -3.1 -2.6 -7 2.5 -4.4 5.6 1.5 1.8 3.2 1.9 4.8 0.3z m81.6 -1 c0.8 -1.3 0.8 -2.3 0 -3.5 -2.8 -4.5 -8.9 -0.9 -6.4 3.8 1.3 2.4 4.8 2.2 6.4 -0.3z m107.4 1 c1.7 -1.7 1.5 -4.3 -0.4 -5.9 -3.1 -2.6 -7 2.5 -4.4 5.6 1.5 1.8 3.2 1.9 4.8 0.3z m54 0 c1.7 -1.7 1.5 -4.3 -0.4 -5.9 -3.1 -2.6 -7 2.5 -4.4 5.6 1.5 1.8 3.2 1.9 4.8 0.3z m81.6 -1 c0.8 -1.3 0.8 -2.3 0 -3.5 -2.8 -4.5 -8.9 -0.9 -6.4 3.8 1.3 2.4 4.8 2.2 6.4 -0.3z m-351.6 -18 c1.7 -1.7 1.5 -4.3 -0.4 -5.9 -3.1 -2.6 -7 2.5 -4.4 5.6 1.5 1.8 3.2 1.9 4.8 0.3z m27 0 c1.7 -1.7 1.5 -4.3 -0.4 -5.9 -3.1 -2.6 -7 2.5 -4.4 5.6 1.5 1.8 3.2 1.9 4.8 0.3z m189 0 c1.7 -1.7 1.5 -4.3 -0.4 -5.9 -3.1 -2.6 -7 2.5 -4.4 5.6 1.5 1.8 3.2 1.9 4.8 0.3z m54 0 c1.7 -1.7 1.5 -4.3 -0.4 -5.9 -3.1 -2.6 -7 2.5 -4.4 5.6 1.5 1.8 3.2 1.9 4.8 0.3z m-188.8 -10.3 c0 -5.2 -0.1 -5.5 -2.5 -5.5 -2.3 0 -2.5 0.3 -2.5 4.8 0 5.3 0.4 6.2 3.2 6.2 1.5 0 1.8 -0.8 1.8 -5.5z m81 0 c0 -5.2 -0.1 -5.5 -2.5 -5.5 -2.3 0 -2.5 0.3 -2.5 4.8 0 5.3 0.4 6.2 3.2 6.2 1.5 0 1.8 -0.8 1.8 -5.5z m-190 -44.5 c0 -21.6 -0.2 -25 -1.5 -25 -1.3 0 -1.5 3.4 -1.5 25 0 21.6 0.2 25 1.5 25 1.3 0 1.5 -3.4 1.5 -25z m174 23 c0 -1.9 -0.7 -2 -13.5 -2 -12.8 0 -13.5 0.1 -13.5 2 0 1.9 0.7 2 13.5 2 12.8 0 13.5 -0.1 13.5 -2z m150 -23 c0 -21.6 -0.2 -25 -1.5 -25 -1.3 0 -1.5 3.4 -1.5 25 0 21.6 0.2 25 1.5 25 1.3 0 1.5 -3.4 1.5 -25z m-376.6 13.8 c0.8 -1.3 0.8 -2.3 0 -3.5 -1.6 -2.6 -5.1 -2.8 -6.4 -0.4 -2.5 4.7 3.6 8.3 6.4 3.9z m80.4 1 c1.7 -1.7 1.5 -4.3 -0.4 -5.9 -3.1 -2.6 -7 2.5 -4.4 5.6 1.5 1.8 3.2 1.9 4.8 0.3z m27 0 c1.7 -1.7 1.5 -4.3 -0.4 -5.9 -3.1 -2.6 -7 2.5 -4.4 5.6 1.5 1.8 3.2 1.9 4.8 0.3z m54.6 -1 c0.8 -1.3 0.8 -2.3 0 -3.5 -2.8 -4.5 -8.9 -0.9 -6.4 3.8 1.3 2.4 4.8 2.2 6.4 -0.3z m135 0 c0.8 -1.3 0.8 -2.3 0 -3.5 -2.8 -4.5 -8.9 -0.9 -6.4 3.8 1.3 2.4 4.8 2.2 6.4 -0.3z m53.4 1 c1.7 -1.7 1.5 -4.3 -0.4 -5.9 -3.1 -2.6 -7 2.5 -4.4 5.6 1.5 1.8 3.2 1.9 4.8 0.3z m134.2 -17.9 l0 -4.1 3.4 2.1 c2.9 1.8 3.5 1.9 4 0.6 0.4 -1.1 -0.5 -2.1 -3 -3.2 l-3.5 -1.7 3.5 -1.8 c2.4 -1.2 3.3 -2.3 3 -3.3 -0.5 -1.3 -1.1 -1.2 -4 0.6 l-3.4 2.1 0 -4.1 c0 -3 -0.4 -4.1 -1.5 -4.1 -1.1 0 -1.5 1.1 -1.5 4.1 l0 4.1 -3.4 -2.1 c-2.9 -1.8 -3.5 -1.9 -4 -0.6 -0.4 1.1 0.5 2.1 3 3.2 l3.5 1.7 -3.5 1.8 c-2.4 1.2 -3.3 2.3 -3 3.3 0.5 1.3 1.1 1.2 4 -0.6 l3.4 -2.1 0 4.1 c0 3 0.4 4.1 1.5 4.1 1.1 0 1.5 -1.1 1.5 -4.1z m-404.2 -1.1 c1.7 -1.7 1.5 -4.3 -0.4 -5.9 -3.1 -2.6 -7 2.5 -4.4 5.6 1.5 1.8 3.2 1.9 4.8 0.3z m27 0 c1.7 -1.7 1.5 -4.3 -0.4 -5.9 -3.1 -2.6 -7 2.5 -4.4 5.6 1.5 1.8 3.2 1.9 4.8 0.3z m243 0 c1.7 -1.7 1.5 -4.3 -0.4 -5.9 -3.1 -2.6 -7 2.5 -4.4 5.6 1.5 1.8 3.2 1.9 4.8 0.3z m-161.8 -10.3 c0 -5.2 -0.1 -5.5 -2.5 -5.5 -2.3 0 -2.5 0.3 -2.5 4.8 0 5.3 0.4 6.2 3.2 6.2 1.5 0 1.8 -0.8 1.8 -5.5z m80 -0.2 c0 -2 -4.6 -5.3 -7.4 -5.3 l-3.1 0.1 3.5 2.9 c3.2 2.7 7 4 7 2.3z m-15 -21.3 c0 -2 -0.7 -2 -27 -2 -26.3 0 -27 0 -27 2 0 2 0.7 2 27 2 26.3 0 27 0 27 -2z m-174.1 -22.4 c4.4 -10.6 8.1 -19.6 8.1 -20 0 -0.3 -0.8 -0.6 -1.7 -0.6 -1.4 0 -3.4 4 -8.3 15.7 -10.9 26.3 -10.3 24.3 -8.1 24.3 1.5 0 3.6 -4.1 10 -19.4z m279.1 18.6 c0 -0.5 -3.6 -9.4 -7.9 -19.8 -6.5 -15.3 -8.4 -19 -10.1 -19.2 -2 -0.3 -2.1 -0.3 -0.5 3.5 0.9 2.1 4.4 10.3 7.7 18.3 3.3 8 6.4 15.3 7 16.3 0.9 1.7 3.8 2.4 3.8 0.9z m-251.2 -4.4 c1.7 -1.7 1.5 -4.3 -0.4 -5.9 -3.1 -2.6 -7 2.5 -4.4 5.6 1.5 1.8 3.2 1.9 4.8 0.3z m27.6 -1 c0.8 -1.3 0.8 -2.3 0 -3.5 -2.8 -4.5 -8.9 -0.9 -6.4 3.8 1.3 2.4 4.8 2.2 6.4 -0.3z m189 0 c0.8 -1.3 0.8 -2.3 0 -3.5 -1.6 -2.6 -5.1 -2.8 -6.4 -0.4 -2.5 4.7 3.6 8.3 6.4 3.9z m-433.4 -16.9 l0 -4.1 3.4 2.1 c2.9 1.8 3.5 1.9 4 0.6 0.4 -1.1 -0.5 -2.1 -3 -3.2 l-3.5 -1.7 3.5 -1.8 c2.4 -1.2 3.3 -2.3 3 -3.3 -0.5 -1.3 -1.1 -1.2 -4 0.6 l-3.4 2.1 0 -4.1 c0 -3 -0.4 -4.1 -1.5 -4.1 -1.1 0 -1.5 1.1 -1.5 4.1 l0 4.1 -3.4 -2.1 c-2.9 -1.8 -3.5 -1.9 -4 -0.6 -0.4 1.1 0.5 2.1 3 3.2 l3.5 1.7 -3.5 1.8 c-2.4 1.2 -3.3 2.3 -3 3.3 0.5 1.3 1.1 1.2 4 -0.6 l3.4 -2.1 0 4.1 c0 3 0.4 4.1 1.5 4.1 1.1 0 1.5 -1.1 1.5 -4.1z m216.8 -1.1 c1.7 -1.7 1.5 -4.3 -0.4 -5.9 -3.1 -2.6 -7 2.5 -4.4 5.6 1.5 1.8 3.2 1.9 4.8 0.3z m54.2 -10.3 c0 -5.2 -0.1 -5.5 -2.5 -5.5 -2.3 0 -2.5 0.3 -2.5 4.8 0 5.3 0.4 6.2 3.2 6.2 1.5 0 1.8 -0.8 1.8 -5.5z m135 0 c0 -5.2 -0.1 -5.5 -2.5 -5.5 -2.3 0 -2.5 0.3 -2.5 4.8 0 5.3 0.4 6.2 3.2 6.2 1.5 0 1.8 -0.8 1.8 -5.5z m270 0 c0 -5.2 -0.1 -5.5 -2.5 -5.5 -2.3 0 -2.5 0.3 -2.5 4.8 0 5.3 0.4 6.2 3.2 6.2 1.5 0 1.8 -0.8 1.8 -5.5z m-379 -0.2 c0 -2 -4.6 -5.3 -7.4 -5.3 l-3.1 0.1 3.5 2.9 c3.2 2.7 7 4 7 2.3z m81 0 c0 -2 -4.6 -5.3 -7.4 -5.3 l-3.1 0.1 3.5 2.9 c3.2 2.7 7 4 7 2.3z m-15 -21.3 c0 -2 -0.7 -2 -27 -2 -26.3 0 -27 0 -27 2 0 2 0.7 2 27 2 26.3 0 27 0 27 -2z m-145.6 -9.2 c0.8 -1.3 0.8 -2.3 0 -3.5 -2.8 -4.5 -8.9 -0.9 -6.4 3.8 1.3 2.4 4.8 2.2 6.4 -0.3z m216 0 c0.8 -1.3 0.8 -2.3 0 -3.5 -1.6 -2.6 -5.1 -2.8 -6.4 -0.4 -2.5 4.7 3.6 8.3 6.4 3.9z m107.6 -4.8 l0 -5 4.5 0 c3.8 0 4.5 -0.3 4.5 -2 0 -1.7 -0.7 -2 -4.5 -2 l-4.5 0 0 -5 c0 -4.3 -0.3 -5 -2 -5 -1.7 0 -2 0.7 -2 5 l0 5 -5 0 c-4.3 0 -5 0.3 -5 2 0 1.7 0.7 2 5 2 l5 0 0 5 c0 4.3 0.3 5 2 5 1.7 0 2 -0.7 2 -5z m-292 -7 c0 -1.8 -0.7 -2 -7 -2 -6.3 0 -7 0.2 -7 2 0 1.8 0.7 2 7 2 6.3 0 7 -0.2 7 -2z m162 0 c0 -1.8 -0.7 -2 -7 -2 -6.3 0 -7 0.2 -7 2 0 1.8 0.7 2 7 2 6.3 0 7 -0.2 7 -2z m-145 -16.5 c0 -5.3 -0.1 -5.5 -2.6 -5.5 -2.5 0 -2.6 0.2 -2 3.8 0.3 2 0.6 4.5 0.6 5.5 0 1 0.8 1.7 2 1.7 1.8 0 2 -0.7 2 -5.5z m9 3.8 c0 -1 0.3 -3.5 0.6 -5.5 0.6 -3.6 0.5 -3.8 -2 -3.8 -2.5 0 -2.6 0.2 -2.6 5.5 0 4.8 0.2 5.5 2 5.5 1.2 0 2 -0.7 2 -1.7z m99 -3.8 c0 -5.3 -0.1 -5.5 -2.6 -5.5 -2.5 0 -2.6 0.2 -2 3.8 0.3 2 0.6 4.5 0.6 5.5 0 1 0.8 1.7 2 1.7 1.8 0 2 -0.7 2 -5.5z m9 3.8 c0 -1 0.3 -3.5 0.6 -5.5 0.6 -3.6 0.5 -3.8 -2 -3.8 -2.5 0 -2.6 0.2 -2.6 5.5 0 4.8 0.2 5.5 2 5.5 1.2 0 2 -0.7 2 -1.7z m106.4 -23.3 c1.4 -0.5 2.6 -1.6 2.6 -2.3 0 -1.2 -0.7 -1.2 -4 -0.4 -5.4 1.5 -9 0.1 -11.3 -4.3 -2.8 -5.5 -2.1 -21.9 1.4 -28.6 2.9 -5.7 6.3 -8 10.3 -7 3.8 0.9 5.6 5.8 5.6 15 0 8.1 -1.3 13 -3.3 12.3 -1.3 -0.4 -1.3 -1.7 -0.2 -11.2 l0.7 -6.1 -4.2 0.1 c-3.5 0 -4.7 0.5 -6.3 2.7 -2.5 3.3 -3.5 13.4 -1.8 16.7 1.4 2.5 4.3 2.8 6.2 0.5 1.1 -1.4 1.3 -1.4 2.1 0 0.5 0.9 2 1.6 3.4 1.6 8.1 0 9.8 -24.7 2.2 -32.3 -2.5 -2.6 -3.4 -2.9 -7 -2.4 -8.8 1.2 -14 10.9 -14.1 26.7 -0.1 10.7 1.7 16 6.2 18.5 3.1 1.7 7.9 1.9 11.5 0.5z m-126.4 -2 c0 -2 -0.7 -2 -40.5 -2 -39.8 0 -40.5 0 -40.5 2 0 2 0.7 2 40.5 2 39.8 0 40.5 0 40.5 -2z m259.4 -9.2 c0.8 -1.3 0.8 -2.3 0 -3.5 -2.8 -4.5 -8.9 -0.9 -6.4 3.8 1.3 2.4 4.8 2.2 6.4 -0.3z m-432.4 -4.8 l0 -5 4.5 0 c3.8 0 4.5 -0.3 4.5 -2 0 -1.7 -0.7 -2 -4.5 -2 l-4.5 0 0 -5 c0 -4.3 -0.3 -5 -2 -5 -1.7 0 -2 0.7 -2 5 l0 5 -5 0 c-4.3 0 -5 0.3 -5 2 0 1.7 0.7 2 5 2 l5 0 0 5 c0 4.3 0.3 5 2 5 1.7 0 2 -0.7 2 -5z m-81 -23.5 c0 -5.2 -0.1 -5.5 -2.5 -5.5 -2.3 0 -2.5 0.3 -2.5 4.8 0 5.3 0.4 6.2 3.2 6.2 1.5 0 1.8 -0.8 1.8 -5.5z m324.4 -30.7 c0.8 -1.3 0.8 -2.3 0 -3.5 -2.8 -4.5 -8.9 -0.9 -6.4 3.8 1.3 2.4 4.8 2.2 6.4 -0.3z m-136.4 -16.9 l0 -4.1 3.4 2.1 c2.9 1.8 3.5 1.9 4 0.6 0.4 -1.1 -0.5 -2.1 -3 -3.2 l-3.5 -1.7 3.5 -1.8 c2.4 -1.2 3.3 -2.3 3 -3.3 -0.5 -1.3 -1.1 -1.2 -4 0.6 l-3.4 2.1 0 -4.1 c0 -3 -0.4 -4.1 -1.5 -4.1 -1.1 0 -1.5 1.1 -1.5 4.1 l0 4.1 -3.4 -2.1 c-2.9 -1.8 -3.5 -1.9 -4 -0.6 -0.4 1.1 0.5 2.1 3 3.2 l3.5 1.7 -3.5 1.8 c-2.4 1.2 -3.3 2.3 -3 3.3 0.5 1.3 1.1 1.2 4 -0.6 l3.4 -2.1 0 4.1 c0 3 0.4 4.1 1.5 4.1 1.1 0 1.5 -1.1 1.5 -4.1z"/>
  <path d="M89 328.6 c0 -5.7 1.5 -9.6 3.6 -9.6 1.4 0 1.6 0.8 1 5.2 -1.2 9.1 -4.6 12.3 -4.6 4.4z"/>
  <path d="M602 92.6 c0 -5.7 1.5 -9.6 3.6 -9.6 1.4 0 1.6 0.8 1 5.2 -1.2 9.1 -4.6 12.3 -4.6 4.4z"/>
 </g>
</svg>