<?xml version="1.0" encoding="utf-8"?>
<!DOCTYPE svg PUBLIC "-//W3C//DTD SVG 1.1//EN" "http://www.w3.org/Graphics/SVG/1.1/DTD/svg11.dtd">
<svg version="1.1" xmlns="http://www.w3.org/2000/svg" width="1754px" height="555px" viewBox="0 0 1754 555" preserveAspectRatio="xMidYMid meet">
 <g fill="#ffffff">
  <path d="M575 467 l0 -2 10.5 0 10.5 0 0 2 0 2 -10.5 0 -10.5 0 0 -2z"/>
  <path d="M562.9 463.8 l-3.4 -4.3 0 -8.1 0 -8.2 3.1 -4.3 3.2 -4.4 2.1 -0.3 2.1 -0.3 0 1.7 0 1.7 -2.5 3.3 -2.4 3.2 -0.7 3.9 -0.6 3.9 1.1 4 1.1 4 2.4 3.3 2.5 3.4 -0.5 0.8 c-0.3 0.5 -1.3 0.9 -2.3 0.9 l-1.8 0 -3.4 -4.2z"/>
  <path d="M604.9 463.8 l-3.4 -4.3 0 -8.1 0 -8.2 3.1 -4.3 3.2 -4.4 2.1 -0.3 2.1 -0.3 0 1.7 0 1.7 -2.5 3.3 -2.4 3.2 -0.7 3.9 -0.6 3.9 1.1 4 1.1 4 2.4 3.3 2.5 3.4 -0.5 0.8 c-0.3 0.5 -1.3 0.9 -2.3 0.9 l-1.8 0 -3.4 -4.2z"/>
  <path d="M625.9 463.8 l-3.4 -4.3 0 -8.1 0 -8.2 3.1 -4.3 3.2 -4.4 2.1 -0.3 2.1 -0.3 0 1.7 0 1.7 -2.5 3.3 -2.4 3.2 -0.7 3.9 -0.6 3.9 1.1 4 1.1 4 2.4 3.3 2.5 3.4 -0.5 0.8 c-0.3 0.5 -1.3 0.9 -2.3 0.9 l-1.8 0 -3.4 -4.2z"/>
  <path d="M580 421.2 l0 -1.9 2 -1.8 2 -1.8 1.4 -4.6 1.3 -4.5 -1 -4.1 -1 -4 -2.3 -3.2 -2.4 -3.2 0 -1.5 0 -1.6 2.3 0 2.2 0 2.9 4.6 2.9 4.5 0.5 4.4 0.4 4.4 -0.6 4.6 -0.7 4.6 -3.1 3.4 -3 3.5 -1.9 0 -1.9 0 0 -1.8z"/>
  <path d="M622 421.2 l0 -1.9 2 -1.8 2 -1.8 1.4 -4.6 1.3 -4.5 -1 -4.1 -1 -4 -2.3 -3.2 -2.4 -3.2 0 -1.5 0 -1.6 2.3 0 2.2 0 2.9 4.6 2.9 4.5 0.5 4.4 0.4 4.4 -0.6 4.6 -0.7 4.6 -3.1 3.4 -3 3.5 -1.9 0 -1.9 0 0 -1.8z"/>
  <path d="M643 421.2 l0 -1.9 2 -1.8 2 -1.8 1.4 -4.6 1.3 -4.5 -1 -4.1 -1 -4 -2.3 -3.2 -2.4 -3.2 0 -1.5 0 -1.6 2.3 0 2.2 0 2.9 4.6 2.9 4.5 0.5 4.4 0.4 4.4 -0.6 4.6 -0.7 4.6 -3.1 3.4 -3 3.5 -1.9 0 -1.9 0 0 -1.8z"/>
  <path d="M625.9 373.8 l-3.4 -4.3 0 -8.1 0 -8.2 3.1 -4.3 3.2 -4.4 2.1 -0.3 2.1 -0.3 0 1.7 0 1.7 -2.5 3.3 -2.4 3.2 -0.7 3.9 -0.6 3.9 1.1 4 1.1 4 2.4 3.3 2.5 3.4 -0.5 0.8 c-0.3 0.5 -1.3 0.9 -2.3 0.9 l-1.8 0 -3.4 -4.2z"/>
  <path d="M568.6 374.2 c-0.7 -1.2 -12.6 -29.4 -12.6 -29.9 0 -0.2 1.2 -0.3 2.7 -0.1 l2.7 0.3 5.8 14 c3.1 7.7 5.8 14.6 5.8 15.3 l0 1.2 -1.9 0 c-1.1 0 -2.2 -0.4 -2.5 -0.8z"/>
  <path d="M610.6 374.2 c-0.7 -1.2 -12.6 -29.4 -12.6 -29.9 0 -0.2 1.2 -0.3 2.7 -0.1 l2.7 0.3 5.8 14 c3.1 7.7 5.8 14.6 5.8 15.3 l0 1.2 -1.9 0 c-1.1 0 -2.2 -0.4 -2.5 -0.8z"/>
  <path d="M78 369 l-1 -2 2 -2 c2.5 -2.5 3.2 -2.5 5.4 -0.1 l1.8 1.9 -1.2 2.1 -1.1 2.1 -2.4 0 -2.4 0 -1.1 -2z"/>
  <path d="M99 369 l-1 -2 2 -2 c2.5 -2.5 3.2 -2.5 5.4 -0.1 l1.8 1.9 -1.2 2.1 -1.1 2.1 -2.4 0 -2.4 0 -1.1 -2z"/>
  <path d="M78 357 l-1 -2 2 -2 c2.5 -2.5 3.2 -2.5 5.4 -0.1 l1.8 1.9 -1.2 2.1 -1.1 2.1 -2.4 0 -2.4 0 -1.1 -2z"/>
  <path d="M99 357 l-1 -2 2 -2 c2.5 -2.5 3.2 -2.5 5.4 -0.1 l1.8 1.9 -1.2 2.1 -1.1 2.1 -2.4 0 -2.4 0 -1.1 -2z"/>
  <path d="M54.5 346.5 l-3 -2.5 3.6 0 3.6 0 1.6 1.8 c1 1 1.7 2.2 1.7 2.5 l0 0.7 -2.2 0 -2.3 -0.1 -3 -2.4z"/>
  <path d="M123 346.5 l2.3 -2.5 3.6 0 3.6 0.1 -3 2.4 -3 2.5 -2.9 0 -2.9 0 2.3 -2.5z"/>
  <path d="M542 315 l0 -19 2 0 2 0 0 19 0 19 -2 0 -2 0 0 -19z"/>
  <path d="M138 331.5 l0 -1.5 1.4 0 c0.7 0 1.9 -0.6 2.5 -1.4 l1.2 -1.4 -1.2 -2.6 -1.3 -2.7 1.6 -1.5 1.5 -1.6 2.2 1.4 2.1 1.3 0 4.2 0 4.2 -3 1.6 c-1.6 0.8 -3.8 1.5 -5 1.5 l-2 0 0 -1.5z"/>
  <path d="M583.9 328.8 l-3.4 -4.3 0 -8.1 0 -8.2 3.1 -4.3 3.2 -4.4 2.1 -0.3 2.1 -0.3 0 1.7 0 1.7 -2.5 3.3 -2.4 3.2 -0.7 3.9 -0.6 3.9 1.1 4 1.1 4 2.4 3.3 2.5 3.4 -0.5 0.8 c-0.3 0.5 -1.3 0.9 -2.3 0.9 l-1.8 0 -3.4 -4.2z"/>
  <path d="M604.9 328.8 l-3.4 -4.3 0 -8.1 0 -8.2 3.1 -4.3 3.2 -4.4 2.1 -0.3 2.1 -0.3 0 1.7 0 1.7 -2.5 3.3 -2.4 3.2 -0.7 3.9 -0.6 3.9 1.1 4 1.1 4 2.4 3.3 2.5 3.4 -0.5 0.8 c-0.3 0.5 -1.3 0.9 -2.3 0.9 l-1.8 0 -3.4 -4.2z"/>
  <path d="M526.6 329.2 c-0.7 -1.2 -12.6 -29.4 -12.6 -29.9 0 -0.2 1.2 -0.3 2.7 -0.1 l2.7 0.3 5.8 14 c3.1 7.7 5.8 14.6 5.8 15.3 l0 1.2 -1.9 0 c-1.1 0 -2.2 -0.4 -2.5 -0.8z"/>
  <path d="M57 324 l-1 -2 2 -2 c2.5 -2.5 3.2 -2.5 5.4 -0.1 l1.8 1.9 -1.2 2.1 -1.1 2.1 -2.4 0 -2.4 0 -1.1 -2z"/>
  <path d="M624 324 l-1 -2 2 -2 c2.5 -2.5 3.2 -2.5 5.4 -0.1 l1.8 1.9 -1.2 2.1 -1.1 2.1 -2.4 0 -2.4 0 -1.1 -2z"/>
  <path d="M645 324 l-1 -2 2 -2 c2.5 -2.5 3.2 -2.5 5.4 -0.1 l1.8 1.9 -1.2 2.1 -1.1 2.1 -2.4 0 -2.4 0 -1.1 -2z"/>
  <path d="M666 324 l-1 -2 2 -2 c2.5 -2.5 3.2 -2.5 5.4 -0.1 l1.8 1.9 -1.2 2.1 -1.1 2.1 -2.4 0 -2.4 0 -1.1 -2z"/>
  <path d="M687 324 l-1 -2 2 -2 c2.5 -2.5 3.2 -2.5 5.4 -0.1 l1.8 1.9 -1.2 2.1 -1.1 2.1 -2.4 0 -2.4 0 -1.1 -2z"/>
  <path d="M708 324 l-1 -2 2 -2 c2.5 -2.5 3.2 -2.5 5.4 -0.1 l1.8 1.9 -1.2 2.1 -1.1 2.1 -2.4 0 -2.4 0 -1.1 -2z"/>
  <path d="M729 324 l-1 -2 2 -2 c2.5 -2.5 3.2 -2.5 5.4 -0.1 l1.8 1.9 -1.2 2.1 -1.1 2.1 -2.4 0 -2.4 0 -1.1 -2z"/>
  <path d="M750 324 l-1 -2 2 -2 c2.5 -2.5 3.2 -2.5 5.4 -0.1 l1.8 1.9 -1.2 2.1 -1.1 2.1 -2.4 0 -2.4 0 -1.1 -2z"/>
  <path d="M771 324 l-1 -2 2 -2 c2.5 -2.5 3.2 -2.5 5.4 -0.1 l1.8 1.9 -1.2 2.1 -1.1 2.1 -2.4 0 -2.4 0 -1.1 -2z"/>
  <path d="M792 324 l-1 -2 2 -2 c2.5 -2.5 3.2 -2.5 5.4 -0.1 l1.8 1.9 -1.2 2.1 -1.1 2.1 -2.4 0 -2.4 0 -1.1 -2z"/>
  <path d="M813 324 l-1 -2 2 -2 c2.5 -2.5 3.2 -2.5 5.4 -0.1 l1.8 1.9 -1.2 2.1 -1.1 2.1 -2.4 0 -2.4 0 -1.1 -2z"/>
  <path d="M834 324 l-1 -2 2 -2 c2.5 -2.5 3.2 -2.5 5.4 -0.1 l1.8 1.9 -1.2 2.1 -1.1 2.1 -2.4 0 -2.4 0 -1.1 -2z"/>
  <path d="M855 324 l-1 -2 2 -2 c2.5 -2.5 3.2 -2.5 5.4 -0.1 l1.8 1.9 -1.2 2.1 -1.1 2.1 -2.4 0 -2.4 0 -1.1 -2z"/>
  <path d="M876 324 l-1 -2 2 -2 c2.5 -2.5 3.2 -2.5 5.4 -0.1 l1.8 1.9 -1.2 2.1 -1.1 2.1 -2.4 0 -2.4 0 -1.1 -2z"/>
  <path d="M897 324 l-1 -2 2 -2 c2.5 -2.5 3.2 -2.5 5.4 -0.1 l1.8 1.9 -1.2 2.1 -1.1 2.1 -2.4 0 -2.4 0 -1.1 -2z"/>
  <path d="M918 324 l-1 -2 2 -2 c2.5 -2.5 3.2 -2.5 5.4 -0.1 l1.8 1.9 -1.2 2.1 -1.1 2.1 -2.4 0 -2.4 0 -1.1 -2z"/>
  <path d="M939 324 l-1 -2 2 -2 c2.5 -2.5 3.2 -2.5 5.4 -0.1 l1.8 1.9 -1.2 2.1 -1.1 2.1 -2.4 0 -2.4 0 -1.1 -2z"/>
  <path d="M960 324 l-1 -2 2 -2 c2.5 -2.5 3.2 -2.5 5.4 -0.1 l1.8 1.9 -1.2 2.1 -1.1 2.1 -2.4 0 -2.4 0 -1.1 -2z"/>
  <path d="M981 324 l-1 -2 2 -2 c2.5 -2.5 3.2 -2.5 5.4 -0.1 l1.8 1.9 -1.2 2.1 -1.1 2.1 -2.4 0 -2.4 0 -1.1 -2z"/>
  <path d="M1002 324 l-1 -2 2 -2 c2.5 -2.5 3.2 -2.5 5.4 -0.1 l1.8 1.9 -1.2 2.1 -1.1 2.1 -2.4 0 -2.4 0 -1.1 -2z"/>
  <path d="M1023 324 l-1 -2 2 -2 c2.5 -2.5 3.2 -2.5 5.4 -0.1 l1.8 1.9 -1.2 2.1 -1.1 2.1 -2.4 0 -2.4 0 -1.1 -2z"/>
  <path d="M1044 324 l-1 -2 2 -2 c2.5 -2.5 3.2 -2.5 5.4 -0.1 l1.8 1.9 -1.2 2.1 -1.1 2.1 -2.4 0 -2.4 0 -1.1 -2z"/>
  <path d="M1065 324 l-1 -2 2 -2 c2.5 -2.5 3.2 -2.5 5.4 -0.1 l1.8 1.9 -1.2 2.1 -1.1 2.1 -2.4 0 -2.4 0 -1.1 -2z"/>
  <path d="M1086 324 l-1 -2 2 -2 c2.5 -2.5 3.2 -2.5 5.4 -0.1 l1.8 1.9 -1.2 2.1 -1.1 2.1 -2.4 0 -2.4 0 -1.1 -2z"/>
  <path d="M1107 324 l-1 -2 2 -2 c2.5 -2.5 3.2 -2.5 5.4 -0.1 l1.8 1.9 -1.2 2.1 -1.1 2.1 -2.4 0 -2.4 0 -1.1 -2z"/>
  <path d="M1128 324 l-1 -2 2 -2 c2.5 -2.5 3.2 -2.5 5.4 -0.1 l1.8 1.9 -1.2 2.1 -1.1 2.1 -2.4 0 -2.4 0 -1.1 -2z"/>
  <path d="M1149 324 l-1 -2 2 -2 c2.5 -2.5 3.2 -2.5 5.4 -0.1 l1.8 1.9 -1.2 2.1 -1.1 2.1 -2.4 0 -2.4 0 -1.1 -2z"/>
  <path d="M1170 324 l-1 -2 2 -2 c2.5 -2.5 3.2 -2.5 5.4 -0.1 l1.8 1.9 -1.2 2.1 -1.1 2.1 -2.4 0 -2.4 0 -1.1 -2z"/>
  <path d="M1191 324 l-1 -2 2 -2 c2.5 -2.5 3.2 -2.5 5.4 -0.1 l1.8 1.9 -1.2 2.1 -1.1 2.1 -2.4 0 -2.4 0 -1.1 -2z"/>
  <path d="M1212 324 l-1 -2 2 -2 c2.5 -2.5 3.2 -2.5 5.4 -0.1 l1.8 1.9 -1.2 2.1 -1.1 2.1 -2.4 0 -2.4 0 -1.1 -2z"/>
  <path d="M1233 324 l-1 -2 2 -2 c2.5 -2.5 3.2 -2.5 5.4 -0.1 l1.8 1.9 -1.2 2.1 -1.1 2.1 -2.4 0 -2.4 0 -1.1 -2z"/>
  <path d="M1254 324 l-1 -2 2 -2 c2.5 -2.5 3.2 -2.5 5.4 -0.1 l1.8 1.9 -1.2 2.1 -1.1 2.1 -2.4 0 -2.4 0 -1.1 -2z"/>
  <path d="M1275 324 l-1 -2 2 -2 c2.5 -2.5 3.2 -2.5 5.4 -0.1 l1.8 1.9 -1.2 2.1 -1.1 2.1 -2.4 0 -2.4 0 -1.1 -2z"/>
  <path d="M1296 324 l-1 -2 2 -2 c2.5 -2.5 3.2 -2.5 5.4 -0.1 l1.8 1.9 -1.2 2.1 -1.1 2.1 -2.4 0 -2.4 0 -1.1 -2z"/>
  <path d="M1317 324 l-1 -2 2 -2 c2.5 -2.5 3.2 -2.5 5.4 -0.1 l1.8 1.9 -1.2 2.1 -1.1 2.1 -2.4 0 -2.4 0 -1.1 -2z"/>
  <path d="M1338 324 l-1 -2 2 -2 c2.5 -2.5 3.2 -2.5 5.4 -0.1 l1.8 1.9 -1.2 2.1 -1.1 2.1 -2.4 0 -2.4 0 -1.1 -2z"/>
  <path d="M1359 324 l-1 -2 2 -2 c2.5 -2.5 3.2 -2.5 5.4 -0.1 l1.8 1.9 -1.2 2.1 -1.1 2.1 -2.4 0 -2.4 0 -1.1 -2z"/>
  <path d="M1380 324 l-1 -2 2 -2 c2.5 -2.5 3.2 -2.5 5.4 -0.1 l1.8 1.9 -1.2 2.1 -1.1 2.1 -2.4 0 -2.4 0 -1.1 -2z"/>
  <path d="M1401 324 l-1 -2 2 -2 c2.5 -2.5 3.2 -2.5 5.4 -0.1 l1.8 1.9 -1.2 2.1 -1.1 2.1 -2.4 0 -2.4 0 -1.1 -2z"/>
  <path d="M1422 324 l-1 -2 2 -2 c2.5 -2.5 3.2 -2.5 5.4 -0.1 l1.8 1.9 -1.2 2.1 -1.1 2.1 -2.4 0 -2.4 0 -1.1 -2z"/>
  <path d="M1443 324 l-1 -2 2 -2 c2.5 -2.5 3.2 -2.5 5.4 -0.1 l1.8 1.9 -1.2 2.1 -1.1 2.1 -2.4 0 -2.4 0 -1.1 -2z"/>
  <path d="M1464 324 l-1 -2 2 -2 c2.5 -2.5 3.2 -2.5 5.4 -0.1 l1.8 1.9 -1.2 2.1 -1.1 2.1 -2.4 0 -2.4 0 -1.1 -2z"/>
  <path d="M1485 324 l-1 -2 2 -2 c2.5 -2.5 3.2 -2.5 5.4 -0.1 l1.8 1.9 -1.2 2.1 -1.1 2.1 -2.4 0 -2.4 0 -1.1 -2z"/>
  <path d="M1506 324 l-1 -2 2 -2 c2.5 -2.5 3.2 -2.5 5.4 -0.1 l1.8 1.9 -1.2 2.1 -1.1 2.1 -2.4 0 -2.4 0 -1.1 -2z"/>
  <path d="M1527 324 l-1 -2 2 -2 c2.5 -2.5 3.2 -2.5 5.4 -0.1 l1.8 1.9 -1.2 2.1 -1.1 2.1 -2.4 0 -2.4 0 -1.1 -2z"/>
  <path d="M1548 324 l-1 -2 2 -2 c2.5 -2.5 3.2 -2.5 5.4 -0.1 l1.8 1.9 -1.2 2.1 -1.1 2.1 -2.4 0 -2.4 0 -1.1 -2z"/>
  <path d="M1569 324 l-1 -2 2 -2 c2.5 -2.5 3.2 -2.5 5.4 -0.1 l1.8 1.9 -1.2 2.1 -1.1 2.1 -2.4 0 -2.4 0 -1.1 -2z"/>
  <path d="M1590 324 l-1 -2 2 -2 c2.5 -2.5 3.2 -2.5 5.4 -0.1 l1.8 1.9 -1.2 2.1 -1.1 2.1 -2.4 0 -2.4 0 -1.1 -2z"/>
  <path d="M118 316 l0 -2 5.5 0 5.5 0 0 2 0 2 -5.5 0 -5.5 0 0 -2z"/>
  <path d="M160 316 l0 -2 5.5 0 5.5 0 0 2 0 2 -5.5 0 -5.5 0 0 -2z"/>
  <path d="M202 316 l0 -2 5.5 0 5.5 0 0 2 0 2 -5.5 0 -5.5 0 0 -2z"/>
  <path d="M244 316 l0 -2 5.5 0 5.5 0 0 2 0 2 -5.5 0 -5.5 0 0 -2z"/>
  <path d="M286 316 l0 -2 5.5 0 5.5 0 0 2 0 2 -5.5 0 -5.5 0 0 -2z"/>
  <path d="M328 316 l0 -2 5.5 0 5.5 0 0 2 0 2 -5.5 0 -5.5 0 0 -2z"/>
  <path d="M370 316 l0 -2 5.5 0 5.5 0 0 2 0 2 -5.5 0 -5.5 0 0 -2z"/>
  <path d="M412 316 l0 -2 5.5 0 5.5 0 0 2 0 2 -5.5 0 -5.5 0 0 -2z"/>
  <path d="M454 316 l0 -2 5.5 0 5.5 0 0 2 0 2 -5.5 0 -5.5 0 0 -2z"/>
  <path d="M496 316 l0 -2 5.5 0 5.5 0 0 2 0 2 -5.5 0 -5.5 0 0 -2z"/>
  <path d="M141 312 l-1 -2 2 -2 c2.5 -2.5 3.2 -2.5 5.4 -0.1 l1.8 1.9 -1.2 2.1 -1.1 2.1 -2.4 0 -2.4 0 -1.1 -2z"/>
  <path d="M624 312 l-1 -2 2 -2 c2.5 -2.5 3.2 -2.5 5.4 -0.1 l1.8 1.9 -1.2 2.1 -1.1 2.1 -2.4 0 -2.4 0 -1.1 -2z"/>
  <path d="M645 312 l-1 -2 2 -2 c2.5 -2.5 3.2 -2.5 5.4 -0.1 l1.8 1.9 -1.2 2.1 -1.1 2.1 -2.4 0 -2.4 0 -1.1 -2z"/>
  <path d="M666 312 l-1 -2 2 -2 c2.5 -2.5 3.2 -2.5 5.4 -0.1 l1.8 1.9 -1.2 2.1 -1.1 2.1 -2.4 0 -2.4 0 -1.1 -2z"/>
  <path d="M687 312 l-1 -2 2 -2 c2.5 -2.5 3.2 -2.5 5.4 -0.1 l1.8 1.9 -1.2 2.1 -1.1 2.1 -2.4 0 -2.4 0 -1.1 -2z"/>
  <path d="M708 312 l-1 -2 2 -2 c2.5 -2.5 3.2 -2.5 5.4 -0.1 l1.8 1.9 -1.2 2.1 -1.1 2.1 -2.4 0 -2.4 0 -1.1 -2z"/>
  <path d="M729 312 l-1 -2 2 -2 c2.5 -2.5 3.2 -2.5 5.4 -0.1 l1.8 1.9 -1.2 2.1 -1.1 2.1 -2.4 0 -2.4 0 -1.1 -2z"/>
  <path d="M750 312 l-1 -2 2 -2 c2.5 -2.5 3.2 -2.5 5.4 -0.1 l1.8 1.9 -1.2 2.1 -1.1 2.1 -2.4 0 -2.4 0 -1.1 -2z"/>
  <path d="M771 312 l-1 -2 2 -2 c2.5 -2.5 3.2 -2.5 5.4 -0.1 l1.8 1.9 -1.2 2.1 -1.1 2.1 -2.4 0 -2.4 0 -1.1 -2z"/>
  <path d="M792 312 l-1 -2 2 -2 c2.5 -2.5 3.2 -2.5 5.4 -0.1 l1.8 1.9 -1.2 2.1 -1.1 2.1 -2.4 0 -2.4 0 -1.1 -2z"/>
  <path d="M813 312 l-1 -2 2 -2 c2.5 -2.5 3.2 -2.5 5.4 -0.1 l1.8 1.9 -1.2 2.1 -1.1 2.1 -2.4 0 -2.4 0 -1.1 -2z"/>
  <path d="M834 312 l-1 -2 2 -2 c2.5 -2.5 3.2 -2.5 5.4 -0.1 l1.8 1.9 -1.2 2.1 -1.1 2.1 -2.4 0 -2.4 0 -1.1 -2z"/>
  <path d="M855 312 l-1 -2 2 -2 c2.5 -2.5 3.2 -2.5 5.4 -0.1 l1.8 1.9 -1.2 2.1 -1.1 2.1 -2.4 0 -2.4 0 -1.1 -2z"/>
  <path d="M876 312 l-1 -2 2 -2 c2.5 -2.5 3.2 -2.5 5.4 -0.1 l1.8 1.9 -1.2 2.1 -1.1 2.1 -2.4 0 -2.4 0 -1.1 -2z"/>
  <path d="M897 312 l-1 -2 2 -2 c2.5 -2.5 3.2 -2.5 5.4 -0.1 l1.8 1.9 -1.2 2.1 -1.1 2.1 -2.4 0 -2.4 0 -1.1 -2z"/>
  <path d="M918 312 l-1 -2 2 -2 c2.5 -2.5 3.2 -2.5 5.4 -0.1 l1.8 1.9 -1.2 2.1 -1.1 2.1 -2.4 0 -2.4 0 -1.1 -2z"/>
  <path d="M939 312 l-1 -2 2 -2 c2.5 -2.5 3.2 -2.5 5.4 -0.1 l1.8 1.9 -1.2 2.1 -1.1 2.1 -2.4 0 -2.4 0 -1.1 -2z"/>
  <path d="M960 312 l-1 -2 2 -2 c2.5 -2.5 3.2 -2.5 5.4 -0.1 l1.8 1.9 -1.2 2.1 -1.1 2.1 -2.4 0 -2.4 0 -1.1 -2z"/>
  <path d="M981 312 l-1 -2 2 -2 c2.5 -2.5 3.2 -2.5 5.4 -0.1 l1.8 1.9 -1.2 2.1 -1.1 2.1 -2.4 0 -2.4 0 -1.1 -2z"/>
  <path d="M1002 312 l-1 -2 2 -2 c2.5 -2.5 3.2 -2.5 5.4 -0.1 l1.8 1.9 -1.2 2.1 -1.1 2.1 -2.4 0 -2.4 0 -1.1 -2z"/>
  <path d="M1023 312 l-1 -2 2 -2 c2.5 -2.5 3.2 -2.5 5.4 -0.1 l1.8 1.9 -1.2 2.1 -1.1 2.1 -2.4 0 -2.4 0 -1.1 -2z"/>
  <path d="M1044 312 l-1 -2 2 -2 c2.5 -2.5 3.2 -2.5 5.4 -0.1 l1.8 1.9 -1.2 2.1 -1.1 2.1 -2.4 0 -2.4 0 -1.1 -2z"/>
  <path d="M1065 312 l-1 -2 2 -2 c2.5 -2.5 3.2 -2.5 5.4 -0.1 l1.8 1.9 -1.2 2.1 -1.1 2.1 -2.4 0 -2.4 0 -1.1 -2z"/>
  <path d="M1086 312 l-1 -2 2 -2 c2.5 -2.5 3.2 -2.5 5.4 -0.1 l1.8 1.9 -1.2 2.1 -1.1 2.1 -2.4 0 -2.4 0 -1.1 -2z"/>
  <path d="M1107 312 l-1 -2 2 -2 c2.5 -2.5 3.2 -2.5 5.4 -0.1 l1.8 1.9 -1.2 2.1 -1.1 2.1 -2.4 0 -2.4 0 -1.1 -2z"/>
  <path d="M1128 312 l-1 -2 2 -2 c2.5 -2.5 3.2 -2.5 5.4 -0.1 l1.8 1.9 -1.2 2.1 -1.1 2.1 -2.4 0 -2.4 0 -1.1 -2z"/>
  <path d="M1149 312 l-1 -2 2 -2 c2.5 -2.5 3.2 -2.5 5.4 -0.1 l1.8 1.9 -1.2 2.1 -1.1 2.1 -2.4 0 -2.4 0 -1.1 -2z"/>
  <path d="M1170 312 l-1 -2 2 -2 c2.5 -2.5 3.2 -2.5 5.4 -0.1 l1.8 1.9 -1.2 2.1 -1.1 2.1 -2.4 0 -2.4 0 -1.1 -2z"/>
  <path d="M1191 312 l-1 -2 2 -2 c2.5 -2.5 3.2 -2.5 5.4 -0.1 l1.8 1.9 -1.2 2.1 -1.1 2.1 -2.4 0 -2.4 0 -1.1 -2z"/>
  <path d="M1212 312 l-1 -2 2 -2 c2.5 -2.5 3.2 -2.5 5.4 -0.1 l1.8 1.9 -1.2 2.1 -1.1 2.1 -2.4 0 -2.4 0 -1.1 -2z"/>
  <path d="M1233 312 l-1 -2 2 -2 c2.5 -2.5 3.2 -2.5 5.4 -0.1 l1.8 1.9 -1.2 2.1 -1.1 2.1 -2.4 0 -2.4 0 -1.1 -2z"/>
  <path d="M1254 312 l-1 -2 2 -2 c2.5 -2.5 3.2 -2.5 5.4 -0.1 l1.8 1.9 -1.2 2.1 -1.1 2.1 -2.4 0 -2.4 0 -1.1 -2z"/>
  <path d="M1275 312 l-1 -2 2 -2 c2.5 -2.5 3.2 -2.5 5.4 -0.1 l1.8 1.9 -1.2 2.1 -1.1 2.1 -2.4 0 -2.4 0 -1.1 -2z"/>
  <path d="M1296 312 l-1 -2 2 -2 c2.5 -2.5 3.2 -2.5 5.4 -0.1 l1.8 1.9 -1.2 2.1 -1.1 2.1 -2.4 0 -2.4 0 -1.1 -2z"/>
  <path d="M1317 312 l-1 -2 2 -2 c2.5 -2.5 3.2 -2.5 5.4 -0.1 l1.8 1.9 -1.2 2.1 -1.1 2.1 -2.4 0 -2.4 0 -1.1 -2z"/>
  <path d="M1338 312 l-1 -2 2 -2 c2.5 -2.5 3.2 -2.5 5.4 -0.1 l1.8 1.9 -1.2 2.1 -1.1 2.1 -2.4 0 -2.4 0 -1.1 -2z"/>
  <path d="M1359 312 l-1 -2 2 -2 c2.5 -2.5 3.2 -2.5 5.4 -0.1 l1.8 1.9 -1.2 2.1 -1.1 2.1 -2.4 0 -2.4 0 -1.1 -2z"/>
  <path d="M1380 312 l-1 -2 2 -2 c2.5 -2.5 3.2 -2.5 5.4 -0.1 l1.8 1.9 -1.2 2.1 -1.1 2.1 -2.4 0 -2.4 0 -1.1 -2z"/>
  <path d="M1401 312 l-1 -2 2 -2 c2.5 -2.5 3.2 -2.5 5.4 -0.1 l1.8 1.9 -1.2 2.1 -1.1 2.1 -2.4 0 -2.4 0 -1.1 -2z"/>
  <path d="M1422 312 l-1 -2 2 -2 c2.5 -2.5 3.2 -2.5 5.4 -0.1 l1.8 1.9 -1.2 2.1 -1.1 2.1 -2.4 0 -2.4 0 -1.1 -2z"/>
  <path d="M1443 312 l-1 -2 2 -2 c2.5 -2.5 3.2 -2.5 5.4 -0.1 l1.8 1.9 -1.2 2.1 -1.1 2.1 -2.4 0 -2.4 0 -1.1 -2z"/>
  <path d="M1464 312 l-1 -2 2 -2 c2.5 -2.5 3.2 -2.5 5.4 -0.1 l1.8 1.9 -1.2 2.1 -1.1 2.1 -2.4 0 -2.4 0 -1.1 -2z"/>
  <path d="M1485 312 l-1 -2 2 -2 c2.5 -2.5 3.2 -2.5 5.4 -0.1 l1.8 1.9 -1.2 2.1 -1.1 2.1 -2.4 0 -2.4 0 -1.1 -2z"/>
  <path d="M1506 312 l-1 -2 2 -2 c2.5 -2.5 3.2 -2.5 5.4 -0.1 l1.8 1.9 -1.2 2.1 -1.1 2.1 -2.4 0 -2.4 0 -1.1 -2z"/>
  <path d="M1527 312 l-1 -2 2 -2 c2.5 -2.5 3.2 -2.5 5.4 -0.1 l1.8 1.9 -1.2 2.1 -1.1 2.1 -2.4 0 -2.4 0 -1.1 -2z"/>
  <path d="M1548 312 l-1 -2 2 -2 c2.5 -2.5 3.2 -2.5 5.4 -0.1 l1.8 1.9 -1.2 2.1 -1.1 2.1 -2.4 0 -2.4 0 -1.1 -2z"/>
  <path d="M1569 312 l-1 -2 2 -2 c2.5 -2.5 3.2 -2.5 5.4 -0.1 l1.8 1.9 -1.2 2.1 -1.1 2.1 -2.4 0 -2.4 0 -1.1 -2z"/>
  <path d="M1590 312 l-1 -2 2 -2 c2.5 -2.5 3.2 -2.5 5.4 -0.1 l1.8 1.9 -1.2 2.1 -1.1 2.1 -2.4 0 -2.4 0 -1.1 -2z"/>
  <path d="M33.5 301.5 l-3 -2.5 3.6 0 3.6 0 1.6 1.8 c1 1 1.7 2.2 1.7 2.5 l0 0.7 -2.2 0 -2.3 -0.1 -3 -2.4z"/>
  <path d="M96.5 301.5 l-3 -2.5 3.6 0 3.6 0 1.6 1.8 c1 1 1.7 2.2 1.7 2.5 l0 0.7 -2.2 0 -2.3 -0.1 -3 -2.4z"/>
  <path d="M180.5 301.5 l-3 -2.5 3.6 0 3.6 0 1.6 1.8 c1 1 1.7 2.2 1.7 2.5 l0 0.7 -2.2 0 -2.3 -0.1 -3 -2.4z"/>
  <path d="M222.5 301.5 l-3 -2.5 3.6 0 3.6 0 1.6 1.8 c1 1 1.7 2.2 1.7 2.5 l0 0.7 -2.2 0 -2.3 -0.1 -3 -2.4z"/>
  <path d="M264.5 301.5 l-3 -2.5 3.6 0 3.6 0 1.6 1.8 c1 1 1.7 2.2 1.7 2.5 l0 0.7 -2.2 0 -2.3 -0.1 -3 -2.4z"/>
  <path d="M306.5 301.5 l-3 -2.5 3.6 0 3.6 0 1.6 1.8 c1 1 1.7 2.2 1.7 2.5 l0 0.7 -2.2 0 -2.3 -0.1 -3 -2.4z"/>
  <path d="M348.5 301.5 l-3 -2.5 3.6 0 3.6 0 1.6 1.8 c1 1 1.7 2.2 1.7 2.5 l0 0.7 -2.2 0 -2.3 -0.1 -3 -2.4z"/>
  <path d="M390.5 301.5 l-3 -2.5 3.6 0 3.6 0 1.6 1.8 c1 1 1.7 2.2 1.7 2.5 l0 0.7 -2.2 0 -2.3 -0.1 -3 -2.4z"/>
  <path d="M432.5 301.5 l-3 -2.5 3.6 0 3.6 0 1.6 1.8 c1 1 1.7 2.2 1.7 2.5 l0 0.7 -2.2 0 -2.3 -0.1 -3 -2.4z"/>
  <path d="M474.5 301.5 l-3 -2.5 3.6 0 3.6 0 1.6 1.8 c1 1 1.7 2.2 1.7 2.5 l0 0.7 -2.2 0 -2.3 -0.1 -3 -2.4z"/>
  <path d="M1614 301.5 l2.3 -2.5 3.6 0 3.6 0.1 -3 2.4 -3 2.5 -2.9 0 -2.9 0 2.3 -2.5z"/>
  <path d="M542 270 l0 -19 2 0 2 0 0 19 0 19 -2 0 -2 0 0 -19z"/>
  <path d="M1625 287 l0 -2 10.5 0 10.5 0 0 2 0 2 -10.5 0 -10.5 0 0 -2z"/>
  <path d="M16.9 283.8 l-3.4 -4.3 0 -8.1 0 -8.2 3.1 -4.3 3.2 -4.4 2.1 -0.3 2.1 -0.3 0 1.7 0 1.7 -2.5 3.3 -2.4 3.2 -0.7 3.9 -0.6 3.9 1.1 4 1.1 4 2.4 3.3 2.5 3.4 -0.5 0.8 c-0.3 0.5 -1.3 0.9 -2.3 0.9 l-1.8 0 -3.4 -4.2z"/>
  <path d="M79.9 283.8 l-3.4 -4.3 0 -8.1 0 -8.2 3.1 -4.3 3.2 -4.4 2.1 -0.3 2.1 -0.3 0 1.7 0 1.7 -2.5 3.3 -2.4 3.2 -0.7 3.9 -0.6 3.9 1.1 4 1.1 4 2.4 3.3 2.5 3.4 -0.5 0.8 c-0.3 0.5 -1.3 0.9 -2.3 0.9 l-1.8 0 -3.4 -4.2z"/>
  <path d="M121.9 283.8 l-3.4 -4.3 0 -8.1 0 -8.2 3.1 -4.3 3.2 -4.4 2.1 -0.3 2.1 -0.3 0 1.7 0 1.7 -2.5 3.3 -2.4 3.2 -0.7 3.9 -0.6 3.9 1.1 4 1.1 4 2.4 3.3 2.5 3.4 -0.5 0.8 c-0.3 0.5 -1.3 0.9 -2.3 0.9 l-1.8 0 -3.4 -4.2z"/>
  <path d="M163.9 283.8 l-3.4 -4.3 0 -8.1 0 -8.2 3.1 -4.3 3.2 -4.4 2.1 -0.3 2.1 -0.3 0 1.7 0 1.7 -2.5 3.3 -2.4 3.2 -0.7 3.9 -0.6 3.9 1.1 4 1.1 4 2.4 3.3 2.5 3.4 -0.5 0.8 c-0.3 0.5 -1.3 0.9 -2.3 0.9 l-1.8 0 -3.4 -4.2z"/>
  <path d="M205.9 283.8 l-3.4 -4.3 0 -8.1 0 -8.2 3.1 -4.3 3.2 -4.4 2.1 -0.3 2.1 -0.3 0 1.7 0 1.7 -2.5 3.3 -2.4 3.2 -0.7 3.9 -0.6 3.9 1.1 4 1.1 4 2.4 3.3 2.5 3.4 -0.5 0.8 c-0.3 0.5 -1.3 0.9 -2.3 0.9 l-1.8 0 -3.4 -4.2z"/>
  <path d="M247.9 283.8 l-3.4 -4.3 0 -8.1 0 -8.2 3.1 -4.3 3.2 -4.4 2.1 -0.3 2.1 -0.3 0 1.7 0 1.7 -2.5 3.3 -2.4 3.2 -0.7 3.9 -0.6 3.9 1.1 4 1.1 4 2.4 3.3 2.5 3.4 -0.5 0.8 c-0.3 0.5 -1.3 0.9 -2.3 0.9 l-1.8 0 -3.4 -4.2z"/>
  <path d="M289.9 283.8 l-3.4 -4.3 0 -8.1 0 -8.2 3.1 -4.3 3.2 -4.4 2.1 -0.3 2.1 -0.3 0 1.7 0 1.7 -2.5 3.3 -2.4 3.2 -0.7 3.9 -0.6 3.9 1.1 4 1.1 4 2.4 3.3 2.5 3.4 -0.5 0.8 c-0.3 0.5 -1.3 0.9 -2.3 0.9 l-1.8 0 -3.4 -4.2z"/>
  <path d="M331.9 283.8 l-3.4 -4.3 0 -8.1 0 -8.2 3.1 -4.3 3.2 -4.4 2.1 -0.3 2.1 -0.3 0 1.7 0 1.7 -2.5 3.3 -2.4 3.2 -0.7 3.9 -0.6 3.9 1.1 4 1.1 4 2.4 3.3 2.5 3.4 -0.5 0.8 c-0.3 0.5 -1.3 0.9 -2.3 0.9 l-1.8 0 -3.4 -4.2z"/>
  <path d="M373.9 283.8 l-3.4 -4.3 0 -8.1 0 -8.2 3.1 -4.3 3.2 -4.4 2.1 -0.3 2.1 -0.3 0 1.7 0 1.7 -2.5 3.3 -2.4 3.2 -0.7 3.9 -0.6 3.9 1.1 4 1.1 4 2.4 3.3 2.5 3.4 -0.5 0.8 c-0.3 0.5 -1.3 0.9 -2.3 0.9 l-1.8 0 -3.4 -4.2z"/>
  <path d="M415.9 283.8 l-3.4 -4.3 0 -8.1 0 -8.2 3.1 -4.3 3.2 -4.4 2.1 -0.3 2.1 -0.3 0 1.7 0 1.7 -2.5 3.3 -2.4 3.2 -0.7 3.9 -0.6 3.9 1.1 4 1.1 4 2.4 3.3 2.5 3.4 -0.5 0.8 c-0.3 0.5 -1.3 0.9 -2.3 0.9 l-1.8 0 -3.4 -4.2z"/>
  <path d="M457.9 283.8 l-3.4 -4.3 0 -8.1 0 -8.2 3.1 -4.3 3.2 -4.4 2.1 -0.3 2.1 -0.3 0 1.7 0 1.7 -2.5 3.3 -2.4 3.2 -0.7 3.9 -0.6 3.9 1.1 4 1.1 4 2.4 3.3 2.5 3.4 -0.5 0.8 c-0.3 0.5 -1.3 0.9 -2.3 0.9 l-1.8 0 -3.4 -4.2z"/>
  <path d="M499.9 283.8 l-3.4 -4.3 0 -8.1 0 -8.2 3.1 -4.3 3.2 -4.4 2.1 -0.3 2.1 -0.3 0 1.7 0 1.7 -2.5 3.3 -2.4 3.2 -0.7 3.9 -0.6 3.9 1.1 4 1.1 4 2.4 3.3 2.5 3.4 -0.5 0.8 c-0.3 0.5 -1.3 0.9 -2.3 0.9 l-1.8 0 -3.4 -4.2z"/>
  <path d="M601 286.2 l0 -1.9 2 -1.8 2 -1.8 1.4 -4.6 1.3 -4.5 -1 -4.1 -1 -4 -2.3 -3.2 -2.4 -3.2 0 -1.5 0 -1.6 2.3 0 2.2 0 2.9 4.6 2.9 4.5 0.5 4.4 0.4 4.4 -0.6 4.6 -0.7 4.6 -3.1 3.4 -3 3.5 -1.9 0 -1.9 0 0 -1.8z"/>
  <path d="M622 286.2 l0 -1.9 2 -1.8 2 -1.8 1.4 -4.6 1.3 -4.5 -1 -4.1 -1 -4 -2.3 -3.2 -2.4 -3.2 0 -1.5 0 -1.6 2.3 0 2.2 0 2.9 4.6 2.9 4.5 0.5 4.4 0.4 4.4 -0.6 4.6 -0.7 4.6 -3.1 3.4 -3 3.5 -1.9 0 -1.9 0 0 -1.8z"/>
  <path d="M1653 279 l-1 -2 2 -2 c2.5 -2.5 3.2 -2.5 5.4 -0.1 l1.8 1.9 -1.2 2.1 -1.1 2.1 -2.4 0 -2.4 0 -1.1 -2z"/>
  <path d="M1671.3 279.3 l-0.6 -1.6 4.3 -3.7 4.3 -3.7 -4.2 -3.3 -4.1 -3.3 0 -1.3 c0 -0.7 0.5 -1.6 1 -1.9 l1.1 -0.7 2.2 1.5 c1.2 0.8 4.2 3.3 6.6 5.6 l4.4 4 -6.1 5.1 c-3.3 2.7 -6.5 5 -7.1 5 l-1.2 0 -0.6 -1.7z"/>
  <path d="M725 275 l0 -2 7.5 0 7.5 0 0 2 0 2 -7.5 0 -7.5 0 0 -2z"/>
  <path d="M746 275 l0 -2 7.5 0 7.5 0 0 2 0 2 -7.5 0 -7.5 0 0 -2z"/>
  <path d="M767 275 l0 -2 7.5 0 7.5 0 0 2 0 2 -7.5 0 -7.5 0 0 -2z"/>
  <path d="M788 275 l0 -2 7.5 0 7.5 0 0 2 0 2 -7.5 0 -7.5 0 0 -2z"/>
  <path d="M809 275 l0 -2 7.5 0 7.5 0 0 2 0 2 -7.5 0 -7.5 0 0 -2z"/>
  <path d="M830 275 l0 -2 7.5 0 7.5 0 0 2 0 2 -7.5 0 -7.5 0 0 -2z"/>
  <path d="M851 275 l0 -2 7.5 0 7.5 0 0 2 0 2 -7.5 0 -7.5 0 0 -2z"/>
  <path d="M872 275 l0 -2 7.5 0 7.5 0 0 2 0 2 -7.5 0 -7.5 0 0 -2z"/>
  <path d="M893 275 l0 -2 7.5 0 7.5 0 0 2 0 2 -7.5 0 -7.5 0 0 -2z"/>
  <path d="M914 275 l0 -2 7.5 0 7.5 0 0 2 0 2 -7.5 0 -7.5 0 0 -2z"/>
  <path d="M935 275 l0 -2 7.5 0 7.5 0 0 2 0 2 -7.5 0 -7.5 0 0 -2z"/>
  <path d="M956 275 l0 -2 7.5 0 7.5 0 0 2 0 2 -7.5 0 -7.5 0 0 -2z"/>
  <path d="M977 275 l0 -2 7.5 0 7.5 0 0 2 0 2 -7.5 0 -7.5 0 0 -2z"/>
  <path d="M998 275 l0 -2 7.5 0 7.5 0 0 2 0 2 -7.5 0 -7.5 0 0 -2z"/>
  <path d="M1019 275 l0 -2 7.5 0 7.5 0 0 2 0 2 -7.5 0 -7.5 0 0 -2z"/>
  <path d="M1040 275 l0 -2 7.5 0 7.5 0 0 2 0 2 -7.5 0 -7.5 0 0 -2z"/>
  <path d="M1061 275 l0 -2 7.5 0 7.5 0 0 2 0 2 -7.5 0 -7.5 0 0 -2z"/>
  <path d="M1082 275 l0 -2 7.5 0 7.5 0 0 2 0 2 -7.5 0 -7.5 0 0 -2z"/>
  <path d="M1103 275 l0 -2 7.5 0 7.5 0 0 2 0 2 -7.5 0 -7.5 0 0 -2z"/>
  <path d="M1124 275 l0 -2 7.5 0 7.5 0 0 2 0 2 -7.5 0 -7.5 0 0 -2z"/>
  <path d="M1145 275 l0 -2 7.5 0 7.5 0 0 2 0 2 -7.5 0 -7.5 0 0 -2z"/>
  <path d="M1166 275 l0 -2 7.5 0 7.5 0 0 2 0 2 -7.5 0 -7.5 0 0 -2z"/>
  <path d="M1187 275 l0 -2 7.5 0 7.5 0 0 2 0 2 -7.5 0 -7.5 0 0 -2z"/>
  <path d="M1208 275 l0 -2 7.5 0 7.5 0 0 2 0 2 -7.5 0 -7.5 0 0 -2z"/>
  <path d="M1229 275 l0 -2 7.5 0 7.5 0 0 2 0 2 -7.5 0 -7.5 0 0 -2z"/>
  <path d="M1250 275 l0 -2 7.5 0 7.5 0 0 2 0 2 -7.5 0 -7.5 0 0 -2z"/>
  <path d="M1271 275 l0 -2 7.5 0 7.5 0 0 2 0 2 -7.5 0 -7.5 0 0 -2z"/>
  <path d="M1292 275 l0 -2 7.5 0 7.5 0 0 2 0 2 -7.5 0 -7.5 0 0 -2z"/>
  <path d="M1313 275 l0 -2 7.5 0 7.5 0 0 2 0 2 -7.5 0 -7.5 0 0 -2z"/>
  <path d="M1334 275 l0 -2 7.5 0 7.5 0 0 2 0 2 -7.5 0 -7.5 0 0 -2z"/>
  <path d="M1355 275 l0 -2 7.5 0 7.5 0 0 2 0 2 -7.5 0 -7.5 0 0 -2z"/>
  <path d="M1376 275 l0 -2 7.5 0 7.5 0 0 2 0 2 -7.5 0 -7.5 0 0 -2z"/>
  <path d="M1397 275 l0 -2 7.5 0 7.5 0 0 2 0 2 -7.5 0 -7.5 0 0 -2z"/>
  <path d="M1418 275 l0 -2 7.5 0 7.5 0 0 2 0 2 -7.5 0 -7.5 0 0 -2z"/>
  <path d="M1439 275 l0 -2 7.5 0 7.5 0 0 2 0 2 -7.5 0 -7.5 0 0 -2z"/>
  <path d="M1460 275 l0 -2 7.5 0 7.5 0 0 2 0 2 -7.5 0 -7.5 0 0 -2z"/>
  <path d="M706 271 l0 -2 5.5 0 5.5 0 0 2 0 2 -5.5 0 -5.5 0 0 -2z"/>
  <path d="M1483 271 l0 -2 5.5 0 5.5 0 0 2 0 2 -5.5 0 -5.5 0 0 -2z"/>
  <path d="M725 267 l0 -2 7.5 0 7.5 0 0 2 0 2 -7.5 0 -7.5 0 0 -2z"/>
  <path d="M746 267 l0 -2 7.5 0 7.5 0 0 2 0 2 -7.5 0 -7.5 0 0 -2z"/>
  <path d="M767 267 l0 -2 7.5 0 7.5 0 0 2 0 2 -7.5 0 -7.5 0 0 -2z"/>
  <path d="M788 267 l0 -2 7.5 0 7.5 0 0 2 0 2 -7.5 0 -7.5 0 0 -2z"/>
  <path d="M809 267 l0 -2 7.5 0 7.5 0 0 2 0 2 -7.5 0 -7.5 0 0 -2z"/>
  <path d="M830 267 l0 -2 7.5 0 7.5 0 0 2 0 2 -7.5 0 -7.5 0 0 -2z"/>
  <path d="M851 267 l0 -2 7.5 0 7.5 0 0 2 0 2 -7.5 0 -7.5 0 0 -2z"/>
  <path d="M872 267 l0 -2 7.5 0 7.5 0 0 2 0 2 -7.5 0 -7.5 0 0 -2z"/>
  <path d="M893 267 l0 -2 7.5 0 7.5 0 0 2 0 2 -7.5 0 -7.5 0 0 -2z"/>
  <path d="M914 267 l0 -2 7.5 0 7.5 0 0 2 0 2 -7.5 0 -7.5 0 0 -2z"/>
  <path d="M935 267 l0 -2 7.5 0 7.5 0 0 2 0 2 -7.5 0 -7.5 0 0 -2z"/>
  <path d="M956 267 l0 -2 7.5 0 7.5 0 0 2 0 2 -7.5 0 -7.5 0 0 -2z"/>
  <path d="M977 267 l0 -2 7.5 0 7.5 0 0 2 0 2 -7.5 0 -7.5 0 0 -2z"/>
  <path d="M998 267 l0 -2 7.5 0 7.5 0 0 2 0 2 -7.5 0 -7.5 0 0 -2z"/>
  <path d="M1019 267 l0 -2 7.5 0 7.5 0 0 2 0 2 -7.5 0 -7.5 0 0 -2z"/>
  <path d="M1040 267 l0 -2 7.5 0 7.5 0 0 2 0 2 -7.5 0 -7.5 0 0 -2z"/>
  <path d="M1061 267 l0 -2 7.5 0 7.5 0 0 2 0 2 -7.5 0 -7.5 0 0 -2z"/>
  <path d="M1082 267 l0 -2 7.5 0 7.5 0 0 2 0 2 -7.5 0 -7.5 0 0 -2z"/>
  <path d="M1103 267 l0 -2 7.5 0 7.5 0 0 2 0 2 -7.5 0 -7.5 0 0 -2z"/>
  <path d="M1124 267 l0 -2 7.5 0 7.5 0 0 2 0 2 -7.5 0 -7.5 0 0 -2z"/>
  <path d="M1145 267 l0 -2 7.5 0 7.5 0 0 2 0 2 -7.5 0 -7.5 0 0 -2z"/>
  <path d="M1166 267 l0 -2 7.5 0 7.5 0 0 2 0 2 -7.5 0 -7.5 0 0 -2z"/>
  <path d="M1187 267 l0 -2 7.5 0 7.5 0 0 2 0 2 -7.5 0 -7.5 0 0 -2z"/>
  <path d="M1208 267 l0 -2 7.5 0 7.5 0 0 2 0 2 -7.5 0 -7.5 0 0 -2z"/>
  <path d="M1229 267 l0 -2 7.5 0 7.5 0 0 2 0 2 -7.5 0 -7.5 0 0 -2z"/>
  <path d="M1250 267 l0 -2 7.5 0 7.5 0 0 2 0 2 -7.5 0 -7.5 0 0 -2z"/>
  <path d="M1271 267 l0 -2 7.5 0 7.5 0 0 2 0 2 -7.5 0 -7.5 0 0 -2z"/>
  <path d="M1292 267 l0 -2 7.5 0 7.5 0 0 2 0 2 -7.5 0 -7.5 0 0 -2z"/>
  <path d="M1313 267 l0 -2 7.5 0 7.5 0 0 2 0 2 -7.5 0 -7.5 0 0 -2z"/>
  <path d="M1334 267 l0 -2 7.5 0 7.5 0 0 2 0 2 -7.5 0 -7.5 0 0 -2z"/>
  <path d="M1355 267 l0 -2 7.5 0 7.5 0 0 2 0 2 -7.5 0 -7.5 0 0 -2z"/>
  <path d="M1376 267 l0 -2 7.5 0 7.5 0 0 2 0 2 -7.5 0 -7.5 0 0 -2z"/>
  <path d="M1397 267 l0 -2 7.5 0 7.5 0 0 2 0 2 -7.5 0 -7.5 0 0 -2z"/>
  <path d="M1418 267 l0 -2 7.5 0 7.5 0 0 2 0 2 -7.5 0 -7.5 0 0 -2z"/>
  <path d="M1439 267 l0 -2 7.5 0 7.5 0 0 2 0 2 -7.5 0 -7.5 0 0 -2z"/>
  <path d="M1460 267 l0 -2 7.5 0 7.5 0 0 2 0 2 -7.5 0 -7.5 0 0 -2z"/>
  <path d="M542 225 l0 -19 2 0 2 0 0 19 0 19 -2 0 -2 0 0 -19z"/>
  <path d="M1625 242 l0 -2 10.5 0 10.5 0 0 2 0 2 -10.5 0 -10.5 0 0 -2z"/>
  <path d="M138 241.5 l0 -1.5 1.4 0 c0.7 0 1.9 -0.6 2.5 -1.4 l1.2 -1.4 -1.2 -2.6 -1.3 -2.7 1.6 -1.5 1.5 -1.6 2.2 1.4 2.1 1.3 0 4.2 0 4.2 -3 1.6 c-1.6 0.8 -3.8 1.5 -5 1.5 l-2 0 0 -1.5z"/>
  <path d="M583.9 238.8 l-3.4 -4.3 0 -8.1 0 -8.2 3.1 -4.3 3.2 -4.4 2.1 -0.3 2.1 -0.3 0 1.7 0 1.7 -2.5 3.3 -2.4 3.2 -0.7 3.9 -0.6 3.9 1.1 4 1.1 4 2.4 3.3 2.5 3.4 -0.5 0.8 c-0.3 0.5 -1.3 0.9 -2.3 0.9 l-1.8 0 -3.4 -4.2z"/>
  <path d="M604.9 238.8 l-3.4 -4.3 0 -8.1 0 -8.2 3.1 -4.3 3.2 -4.4 2.1 -0.3 2.1 -0.3 0 1.7 0 1.7 -2.5 3.3 -2.4 3.2 -0.7 3.9 -0.6 3.9 1.1 4 1.1 4 2.4 3.3 2.5 3.4 -0.5 0.8 c-0.3 0.5 -1.3 0.9 -2.3 0.9 l-1.8 0 -3.4 -4.2z"/>
  <path d="M514 238.8 c0 -0.7 2.7 -7.6 5.8 -15.3 l5.8 -14 2.2 -0.3 2.2 -0.3 0 1.3 c0 0.7 -2.6 7.7 -5.7 15.5 l-5.8 14.3 -2.2 0 -2.3 0 0 -1.2z"/>
  <path d="M99 234 l-1 -2 2 -2 c2.5 -2.5 3.2 -2.5 5.4 -0.1 l1.8 1.9 -1.2 2.1 -1.1 2.1 -2.4 0 -2.4 0 -1.1 -2z"/>
  <path d="M183 234 l-1 -2 2 -2 c2.5 -2.5 3.2 -2.5 5.4 -0.1 l1.8 1.9 -1.2 2.1 -1.1 2.1 -2.4 0 -2.4 0 -1.1 -2z"/>
  <path d="M225 234 l-1 -2 2 -2 c2.5 -2.5 3.2 -2.5 5.4 -0.1 l1.8 1.9 -1.2 2.1 -1.1 2.1 -2.4 0 -2.4 0 -1.1 -2z"/>
  <path d="M267 234 l-1 -2 2 -2 c2.5 -2.5 3.2 -2.5 5.4 -0.1 l1.8 1.9 -1.2 2.1 -1.1 2.1 -2.4 0 -2.4 0 -1.1 -2z"/>
  <path d="M309 234 l-1 -2 2 -2 c2.5 -2.5 3.2 -2.5 5.4 -0.1 l1.8 1.9 -1.2 2.1 -1.1 2.1 -2.4 0 -2.4 0 -1.1 -2z"/>
  <path d="M351 234 l-1 -2 2 -2 c2.5 -2.5 3.2 -2.5 5.4 -0.1 l1.8 1.9 -1.2 2.1 -1.1 2.1 -2.4 0 -2.4 0 -1.1 -2z"/>
  <path d="M393 234 l-1 -2 2 -2 c2.5 -2.5 3.2 -2.5 5.4 -0.1 l1.8 1.9 -1.2 2.1 -1.1 2.1 -2.4 0 -2.4 0 -1.1 -2z"/>
  <path d="M435 234 l-1 -2 2 -2 c2.5 -2.5 3.2 -2.5 5.4 -0.1 l1.8 1.9 -1.2 2.1 -1.1 2.1 -2.4 0 -2.4 0 -1.1 -2z"/>
  <path d="M477 234 l-1 -2 2 -2 c2.5 -2.5 3.2 -2.5 5.4 -0.1 l1.8 1.9 -1.2 2.1 -1.1 2.1 -2.4 0 -2.4 0 -1.1 -2z"/>
  <path d="M624 234 l-1 -2 2 -2 c2.5 -2.5 3.2 -2.5 5.4 -0.1 l1.8 1.9 -1.2 2.1 -1.1 2.1 -2.4 0 -2.4 0 -1.1 -2z"/>
  <path d="M645 234 l-1 -2 2 -2 c2.5 -2.5 3.2 -2.5 5.4 -0.1 l1.8 1.9 -1.2 2.1 -1.1 2.1 -2.4 0 -2.4 0 -1.1 -2z"/>
  <path d="M666 234 l-1 -2 2 -2 c2.5 -2.5 3.2 -2.5 5.4 -0.1 l1.8 1.9 -1.2 2.1 -1.1 2.1 -2.4 0 -2.4 0 -1.1 -2z"/>
  <path d="M687 234 l-1 -2 2 -2 c2.5 -2.5 3.2 -2.5 5.4 -0.1 l1.8 1.9 -1.2 2.1 -1.1 2.1 -2.4 0 -2.4 0 -1.1 -2z"/>
  <path d="M708 234 l-1 -2 2 -2 c2.5 -2.5 3.2 -2.5 5.4 -0.1 l1.8 1.9 -1.2 2.1 -1.1 2.1 -2.4 0 -2.4 0 -1.1 -2z"/>
  <path d="M729 234 l-1 -2 2 -2 c2.5 -2.5 3.2 -2.5 5.4 -0.1 l1.8 1.9 -1.2 2.1 -1.1 2.1 -2.4 0 -2.4 0 -1.1 -2z"/>
  <path d="M750 234 l-1 -2 2 -2 c2.5 -2.5 3.2 -2.5 5.4 -0.1 l1.8 1.9 -1.2 2.1 -1.1 2.1 -2.4 0 -2.4 0 -1.1 -2z"/>
  <path d="M771 234 l-1 -2 2 -2 c2.5 -2.5 3.2 -2.5 5.4 -0.1 l1.8 1.9 -1.2 2.1 -1.1 2.1 -2.4 0 -2.4 0 -1.1 -2z"/>
  <path d="M792 234 l-1 -2 2 -2 c2.5 -2.5 3.2 -2.5 5.4 -0.1 l1.8 1.9 -1.2 2.1 -1.1 2.1 -2.4 0 -2.4 0 -1.1 -2z"/>
  <path d="M813 234 l-1 -2 2 -2 c2.5 -2.5 3.2 -2.5 5.4 -0.1 l1.8 1.9 -1.2 2.1 -1.1 2.1 -2.4 0 -2.4 0 -1.1 -2z"/>
  <path d="M834 234 l-1 -2 2 -2 c2.5 -2.5 3.2 -2.5 5.4 -0.1 l1.8 1.9 -1.2 2.1 -1.1 2.1 -2.4 0 -2.4 0 -1.1 -2z"/>
  <path d="M855 234 l-1 -2 2 -2 c2.5 -2.5 3.2 -2.5 5.4 -0.1 l1.8 1.9 -1.2 2.1 -1.1 2.1 -2.4 0 -2.4 0 -1.1 -2z"/>
  <path d="M876 234 l-1 -2 2 -2 c2.5 -2.5 3.2 -2.5 5.4 -0.1 l1.8 1.9 -1.2 2.1 -1.1 2.1 -2.4 0 -2.4 0 -1.1 -2z"/>
  <path d="M897 234 l-1 -2 2 -2 c2.5 -2.5 3.2 -2.5 5.4 -0.1 l1.8 1.9 -1.2 2.1 -1.1 2.1 -2.4 0 -2.4 0 -1.1 -2z"/>
  <path d="M918 234 l-1 -2 2 -2 c2.5 -2.5 3.2 -2.5 5.4 -0.1 l1.8 1.9 -1.2 2.1 -1.1 2.1 -2.4 0 -2.4 0 -1.1 -2z"/>
  <path d="M939 234 l-1 -2 2 -2 c2.5 -2.5 3.2 -2.5 5.4 -0.1 l1.8 1.9 -1.2 2.1 -1.1 2.1 -2.4 0 -2.4 0 -1.1 -2z"/>
  <path d="M960 234 l-1 -2 2 -2 c2.5 -2.5 3.2 -2.5 5.4 -0.1 l1.8 1.9 -1.2 2.1 -1.1 2.1 -2.4 0 -2.4 0 -1.1 -2z"/>
  <path d="M981 234 l-1 -2 2 -2 c2.5 -2.5 3.2 -2.5 5.4 -0.1 l1.8 1.9 -1.2 2.1 -1.1 2.1 -2.4 0 -2.4 0 -1.1 -2z"/>
  <path d="M1002 234 l-1 -2 2 -2 c2.5 -2.5 3.2 -2.5 5.4 -0.1 l1.8 1.9 -1.2 2.1 -1.1 2.1 -2.4 0 -2.4 0 -1.1 -2z"/>
  <path d="M1023 234 l-1 -2 2 -2 c2.5 -2.5 3.2 -2.5 5.4 -0.1 l1.8 1.9 -1.2 2.1 -1.1 2.1 -2.4 0 -2.4 0 -1.1 -2z"/>
  <path d="M1044 234 l-1 -2 2 -2 c2.5 -2.5 3.2 -2.5 5.4 -0.1 l1.8 1.9 -1.2 2.1 -1.1 2.1 -2.4 0 -2.4 0 -1.1 -2z"/>
  <path d="M1065 234 l-1 -2 2 -2 c2.5 -2.5 3.2 -2.5 5.4 -0.1 l1.8 1.9 -1.2 2.1 -1.1 2.1 -2.4 0 -2.4 0 -1.1 -2z"/>
  <path d="M1086 234 l-1 -2 2 -2 c2.5 -2.5 3.2 -2.5 5.4 -0.1 l1.8 1.9 -1.2 2.1 -1.1 2.1 -2.4 0 -2.4 0 -1.1 -2z"/>
  <path d="M1107 234 l-1 -2 2 -2 c2.5 -2.5 3.2 -2.5 5.4 -0.1 l1.8 1.9 -1.2 2.1 -1.1 2.1 -2.4 0 -2.4 0 -1.1 -2z"/>
  <path d="M1128 234 l-1 -2 2 -2 c2.5 -2.5 3.2 -2.5 5.4 -0.1 l1.8 1.9 -1.2 2.1 -1.1 2.1 -2.4 0 -2.4 0 -1.1 -2z"/>
  <path d="M1149 234 l-1 -2 2 -2 c2.5 -2.5 3.2 -2.5 5.4 -0.1 l1.8 1.9 -1.2 2.1 -1.1 2.1 -2.4 0 -2.4 0 -1.1 -2z"/>
  <path d="M1170 234 l-1 -2 2 -2 c2.5 -2.5 3.2 -2.5 5.4 -0.1 l1.8 1.9 -1.2 2.1 -1.1 2.1 -2.4 0 -2.4 0 -1.1 -2z"/>
  <path d="M1191 234 l-1 -2 2 -2 c2.5 -2.5 3.2 -2.5 5.4 -0.1 l1.8 1.9 -1.2 2.1 -1.1 2.1 -2.4 0 -2.4 0 -1.1 -2z"/>
  <path d="M1212 234 l-1 -2 2 -2 c2.5 -2.5 3.2 -2.5 5.4 -0.1 l1.8 1.9 -1.2 2.1 -1.1 2.1 -2.4 0 -2.4 0 -1.1 -2z"/>
  <path d="M1233 234 l-1 -2 2 -2 c2.5 -2.5 3.2 -2.5 5.4 -0.1 l1.8 1.9 -1.2 2.1 -1.1 2.1 -2.4 0 -2.4 0 -1.1 -2z"/>
  <path d="M1254 234 l-1 -2 2 -2 c2.5 -2.5 3.2 -2.5 5.4 -0.1 l1.8 1.9 -1.2 2.1 -1.1 2.1 -2.4 0 -2.4 0 -1.1 -2z"/>
  <path d="M1275 234 l-1 -2 2 -2 c2.5 -2.5 3.2 -2.5 5.4 -0.1 l1.8 1.9 -1.2 2.1 -1.1 2.1 -2.4 0 -2.4 0 -1.1 -2z"/>
  <path d="M1296 234 l-1 -2 2 -2 c2.5 -2.5 3.2 -2.5 5.4 -0.1 l1.8 1.9 -1.2 2.1 -1.1 2.1 -2.4 0 -2.4 0 -1.1 -2z"/>
  <path d="M1317 234 l-1 -2 2 -2 c2.5 -2.5 3.2 -2.5 5.4 -0.1 l1.8 1.9 -1.2 2.1 -1.1 2.1 -2.4 0 -2.4 0 -1.1 -2z"/>
  <path d="M1338 234 l-1 -2 2 -2 c2.5 -2.5 3.2 -2.5 5.4 -0.1 l1.8 1.9 -1.2 2.1 -1.1 2.1 -2.4 0 -2.4 0 -1.1 -2z"/>
  <path d="M1359 234 l-1 -2 2 -2 c2.5 -2.5 3.2 -2.5 5.4 -0.1 l1.8 1.9 -1.2 2.1 -1.1 2.1 -2.4 0 -2.4 0 -1.1 -2z"/>
  <path d="M1380 234 l-1 -2 2 -2 c2.5 -2.5 3.2 -2.5 5.4 -0.1 l1.8 1.9 -1.2 2.1 -1.1 2.1 -2.4 0 -2.4 0 -1.1 -2z"/>
  <path d="M1401 234 l-1 -2 2 -2 c2.5 -2.5 3.2 -2.5 5.4 -0.1 l1.8 1.9 -1.2 2.1 -1.1 2.1 -2.4 0 -2.4 0 -1.1 -2z"/>
  <path d="M1422 234 l-1 -2 2 -2 c2.5 -2.5 3.2 -2.5 5.4 -0.1 l1.8 1.9 -1.2 2.1 -1.1 2.1 -2.4 0 -2.4 0 -1.1 -2z"/>
  <path d="M1443 234 l-1 -2 2 -2 c2.5 -2.5 3.2 -2.5 5.4 -0.1 l1.8 1.9 -1.2 2.1 -1.1 2.1 -2.4 0 -2.4 0 -1.1 -2z"/>
  <path d="M1464 234 l-1 -2 2 -2 c2.5 -2.5 3.2 -2.5 5.4 -0.1 l1.8 1.9 -1.2 2.1 -1.1 2.1 -2.4 0 -2.4 0 -1.1 -2z"/>
  <path d="M1485 234 l-1 -2 2 -2 c2.5 -2.5 3.2 -2.5 5.4 -0.1 l1.8 1.9 -1.2 2.1 -1.1 2.1 -2.4 0 -2.4 0 -1.1 -2z"/>
  <path d="M1506 234 l-1 -2 2 -2 c2.5 -2.5 3.2 -2.5 5.4 -0.1 l1.8 1.9 -1.2 2.1 -1.1 2.1 -2.4 0 -2.4 0 -1.1 -2z"/>
  <path d="M1527 234 l-1 -2 2 -2 c2.5 -2.5 3.2 -2.5 5.4 -0.1 l1.8 1.9 -1.2 2.1 -1.1 2.1 -2.4 0 -2.4 0 -1.1 -2z"/>
  <path d="M1548 234 l-1 -2 2 -2 c2.5 -2.5 3.2 -2.5 5.4 -0.1 l1.8 1.9 -1.2 2.1 -1.1 2.1 -2.4 0 -2.4 0 -1.1 -2z"/>
  <path d="M1569 234 l-1 -2 2 -2 c2.5 -2.5 3.2 -2.5 5.4 -0.1 l1.8 1.9 -1.2 2.1 -1.1 2.1 -2.4 0 -2.4 0 -1.1 -2z"/>
  <path d="M1590 234 l-1 -2 2 -2 c2.5 -2.5 3.2 -2.5 5.4 -0.1 l1.8 1.9 -1.2 2.1 -1.1 2.1 -2.4 0 -2.4 0 -1.1 -2z"/>
  <path d="M1611 234 l-1 -2 2 -2 c2.5 -2.5 3.2 -2.5 5.4 -0.1 l1.8 1.9 -1.2 2.1 -1.1 2.1 -2.4 0 -2.4 0 -1.1 -2z"/>
  <path d="M118 226 l0 -2 5.5 0 5.5 0 0 2 0 2 -5.5 0 -5.5 0 0 -2z"/>
  <path d="M160 226 l0 -2 5.5 0 5.5 0 0 2 0 2 -5.5 0 -5.5 0 0 -2z"/>
  <path d="M202 226 l0 -2 5.5 0 5.5 0 0 2 0 2 -5.5 0 -5.5 0 0 -2z"/>
  <path d="M244 226 l0 -2 5.5 0 5.5 0 0 2 0 2 -5.5 0 -5.5 0 0 -2z"/>
  <path d="M286 226 l0 -2 5.5 0 5.5 0 0 2 0 2 -5.5 0 -5.5 0 0 -2z"/>
  <path d="M328 226 l0 -2 5.5 0 5.5 0 0 2 0 2 -5.5 0 -5.5 0 0 -2z"/>
  <path d="M370 226 l0 -2 5.5 0 5.5 0 0 2 0 2 -5.5 0 -5.5 0 0 -2z"/>
  <path d="M412 226 l0 -2 5.5 0 5.5 0 0 2 0 2 -5.5 0 -5.5 0 0 -2z"/>
  <path d="M454 226 l0 -2 5.5 0 5.5 0 0 2 0 2 -5.5 0 -5.5 0 0 -2z"/>
  <path d="M496 226 l0 -2 5.5 0 5.5 0 0 2 0 2 -5.5 0 -5.5 0 0 -2z"/>
  <path d="M141 222 l-1 -2 2 -2 c2.5 -2.5 3.2 -2.5 5.4 -0.1 l1.8 1.9 -1.2 2.1 -1.1 2.1 -2.4 0 -2.4 0 -1.1 -2z"/>
  <path d="M624 222 l-1 -2 2 -2 c2.5 -2.5 3.2 -2.5 5.4 -0.1 l1.8 1.9 -1.2 2.1 -1.1 2.1 -2.4 0 -2.4 0 -1.1 -2z"/>
  <path d="M645 222 l-1 -2 2 -2 c2.5 -2.5 3.2 -2.5 5.4 -0.1 l1.8 1.9 -1.2 2.1 -1.1 2.1 -2.4 0 -2.4 0 -1.1 -2z"/>
  <path d="M666 222 l-1 -2 2 -2 c2.5 -2.5 3.2 -2.5 5.4 -0.1 l1.8 1.9 -1.2 2.1 -1.1 2.1 -2.4 0 -2.4 0 -1.1 -2z"/>
  <path d="M687 222 l-1 -2 2 -2 c2.5 -2.5 3.2 -2.5 5.4 -0.1 l1.8 1.9 -1.2 2.1 -1.1 2.1 -2.4 0 -2.4 0 -1.1 -2z"/>
  <path d="M708 222 l-1 -2 2 -2 c2.5 -2.5 3.2 -2.5 5.4 -0.1 l1.8 1.9 -1.2 2.1 -1.1 2.1 -2.4 0 -2.4 0 -1.1 -2z"/>
  <path d="M729 222 l-1 -2 2 -2 c2.5 -2.5 3.2 -2.5 5.4 -0.1 l1.8 1.9 -1.2 2.1 -1.1 2.1 -2.4 0 -2.4 0 -1.1 -2z"/>
  <path d="M750 222 l-1 -2 2 -2 c2.5 -2.5 3.2 -2.5 5.4 -0.1 l1.8 1.9 -1.2 2.1 -1.1 2.1 -2.4 0 -2.4 0 -1.1 -2z"/>
  <path d="M771 222 l-1 -2 2 -2 c2.5 -2.5 3.2 -2.5 5.4 -0.1 l1.8 1.9 -1.2 2.1 -1.1 2.1 -2.4 0 -2.4 0 -1.1 -2z"/>
  <path d="M792 222 l-1 -2 2 -2 c2.5 -2.5 3.2 -2.5 5.4 -0.1 l1.8 1.9 -1.2 2.1 -1.1 2.1 -2.4 0 -2.4 0 -1.1 -2z"/>
  <path d="M813 222 l-1 -2 2 -2 c2.5 -2.5 3.2 -2.5 5.4 -0.1 l1.8 1.9 -1.2 2.1 -1.1 2.1 -2.4 0 -2.4 0 -1.1 -2z"/>
  <path d="M834 222 l-1 -2 2 -2 c2.5 -2.5 3.2 -2.5 5.4 -0.1 l1.8 1.9 -1.2 2.1 -1.1 2.1 -2.4 0 -2.4 0 -1.1 -2z"/>
  <path d="M855 222 l-1 -2 2 -2 c2.5 -2.5 3.2 -2.5 5.4 -0.1 l1.8 1.9 -1.2 2.1 -1.1 2.1 -2.4 0 -2.4 0 -1.1 -2z"/>
  <path d="M876 222 l-1 -2 2 -2 c2.5 -2.5 3.2 -2.5 5.4 -0.1 l1.8 1.9 -1.2 2.1 -1.1 2.1 -2.4 0 -2.4 0 -1.1 -2z"/>
  <path d="M897 222 l-1 -2 2 -2 c2.5 -2.5 3.2 -2.5 5.4 -0.1 l1.8 1.9 -1.2 2.1 -1.1 2.1 -2.4 0 -2.4 0 -1.1 -2z"/>
  <path d="M918 222 l-1 -2 2 -2 c2.5 -2.5 3.2 -2.5 5.4 -0.1 l1.8 1.9 -1.2 2.1 -1.1 2.1 -2.4 0 -2.4 0 -1.1 -2z"/>
  <path d="M939 222 l-1 -2 2 -2 c2.5 -2.5 3.2 -2.5 5.4 -0.1 l1.8 1.9 -1.2 2.1 -1.1 2.1 -2.4 0 -2.4 0 -1.1 -2z"/>
  <path d="M960 222 l-1 -2 2 -2 c2.5 -2.5 3.2 -2.5 5.4 -0.1 l1.8 1.9 -1.2 2.1 -1.1 2.1 -2.4 0 -2.4 0 -1.1 -2z"/>
  <path d="M981 222 l-1 -2 2 -2 c2.5 -2.5 3.2 -2.5 5.4 -0.1 l1.8 1.9 -1.2 2.1 -1.1 2.1 -2.4 0 -2.4 0 -1.1 -2z"/>
  <path d="M1002 222 l-1 -2 2 -2 c2.5 -2.5 3.2 -2.5 5.4 -0.1 l1.8 1.9 -1.2 2.1 -1.1 2.1 -2.4 0 -2.4 0 -1.1 -2z"/>
  <path d="M1023 222 l-1 -2 2 -2 c2.5 -2.5 3.2 -2.5 5.4 -0.1 l1.8 1.9 -1.2 2.1 -1.1 2.1 -2.4 0 -2.4 0 -1.1 -2z"/>
  <path d="M1044 222 l-1 -2 2 -2 c2.5 -2.5 3.2 -2.5 5.4 -0.1 l1.8 1.9 -1.2 2.1 -1.1 2.1 -2.4 0 -2.4 0 -1.1 -2z"/>
  <path d="M1065 222 l-1 -2 2 -2 c2.5 -2.5 3.2 -2.5 5.4 -0.1 l1.8 1.9 -1.2 2.1 -1.1 2.1 -2.4 0 -2.4 0 -1.1 -2z"/>
  <path d="M1086 222 l-1 -2 2 -2 c2.5 -2.5 3.2 -2.5 5.4 -0.1 l1.8 1.9 -1.2 2.1 -1.1 2.1 -2.4 0 -2.4 0 -1.1 -2z"/>
  <path d="M1107 222 l-1 -2 2 -2 c2.5 -2.5 3.2 -2.5 5.4 -0.1 l1.8 1.9 -1.2 2.1 -1.1 2.1 -2.4 0 -2.4 0 -1.1 -2z"/>
  <path d="M1128 222 l-1 -2 2 -2 c2.5 -2.5 3.2 -2.5 5.4 -0.1 l1.8 1.9 -1.2 2.1 -1.1 2.1 -2.4 0 -2.4 0 -1.1 -2z"/>
  <path d="M1149 222 l-1 -2 2 -2 c2.5 -2.5 3.2 -2.5 5.4 -0.1 l1.8 1.9 -1.2 2.1 -1.1 2.1 -2.4 0 -2.4 0 -1.1 -2z"/>
  <path d="M1170 222 l-1 -2 2 -2 c2.5 -2.5 3.2 -2.5 5.4 -0.1 l1.8 1.9 -1.2 2.1 -1.1 2.1 -2.4 0 -2.4 0 -1.1 -2z"/>
  <path d="M1191 222 l-1 -2 2 -2 c2.5 -2.5 3.2 -2.5 5.4 -0.1 l1.8 1.9 -1.2 2.1 -1.1 2.1 -2.4 0 -2.4 0 -1.1 -2z"/>
  <path d="M1212 222 l-1 -2 2 -2 c2.5 -2.5 3.2 -2.5 5.4 -0.1 l1.8 1.9 -1.2 2.1 -1.1 2.1 -2.4 0 -2.4 0 -1.1 -2z"/>
  <path d="M1233 222 l-1 -2 2 -2 c2.5 -2.5 3.2 -2.5 5.4 -0.1 l1.8 1.9 -1.2 2.1 -1.1 2.1 -2.4 0 -2.4 0 -1.1 -2z"/>
  <path d="M1254 222 l-1 -2 2 -2 c2.5 -2.5 3.2 -2.5 5.4 -0.1 l1.8 1.9 -1.2 2.1 -1.1 2.1 -2.4 0 -2.4 0 -1.1 -2z"/>
  <path d="M1275 222 l-1 -2 2 -2 c2.5 -2.5 3.2 -2.5 5.4 -0.1 l1.8 1.9 -1.2 2.1 -1.1 2.1 -2.4 0 -2.4 0 -1.1 -2z"/>
  <path d="M1296 222 l-1 -2 2 -2 c2.5 -2.5 3.2 -2.5 5.4 -0.1 l1.8 1.9 -1.2 2.1 -1.1 2.1 -2.4 0 -2.4 0 -1.1 -2z"/>
  <path d="M1317 222 l-1 -2 2 -2 c2.5 -2.5 3.2 -2.5 5.4 -0.1 l1.8 1.9 -1.2 2.1 -1.1 2.1 -2.4 0 -2.4 0 -1.1 -2z"/>
  <path d="M1338 222 l-1 -2 2 -2 c2.5 -2.5 3.2 -2.5 5.4 -0.1 l1.8 1.9 -1.2 2.1 -1.1 2.1 -2.4 0 -2.4 0 -1.1 -2z"/>
  <path d="M1359 222 l-1 -2 2 -2 c2.5 -2.5 3.2 -2.5 5.4 -0.1 l1.8 1.9 -1.2 2.1 -1.1 2.1 -2.4 0 -2.4 0 -1.1 -2z"/>
  <path d="M1380 222 l-1 -2 2 -2 c2.5 -2.5 3.2 -2.5 5.4 -0.1 l1.8 1.9 -1.2 2.1 -1.1 2.1 -2.4 0 -2.4 0 -1.1 -2z"/>
  <path d="M1401 222 l-1 -2 2 -2 c2.5 -2.5 3.2 -2.5 5.4 -0.1 l1.8 1.9 -1.2 2.1 -1.1 2.1 -2.4 0 -2.4 0 -1.1 -2z"/>
  <path d="M1422 222 l-1 -2 2 -2 c2.5 -2.5 3.2 -2.5 5.4 -0.1 l1.8 1.9 -1.2 2.1 -1.1 2.1 -2.4 0 -2.4 0 -1.1 -2z"/>
  <path d="M1443 222 l-1 -2 2 -2 c2.5 -2.5 3.2 -2.5 5.4 -0.1 l1.8 1.9 -1.2 2.1 -1.1 2.1 -2.4 0 -2.4 0 -1.1 -2z"/>
  <path d="M1464 222 l-1 -2 2 -2 c2.5 -2.5 3.2 -2.5 5.4 -0.1 l1.8 1.9 -1.2 2.1 -1.1 2.1 -2.4 0 -2.4 0 -1.1 -2z"/>
  <path d="M1485 222 l-1 -2 2 -2 c2.5 -2.5 3.2 -2.5 5.4 -0.1 l1.8 1.9 -1.2 2.1 -1.1 2.1 -2.4 0 -2.4 0 -1.1 -2z"/>
  <path d="M1506 222 l-1 -2 2 -2 c2.5 -2.5 3.2 -2.5 5.4 -0.1 l1.8 1.9 -1.2 2.1 -1.1 2.1 -2.4 0 -2.4 0 -1.1 -2z"/>
  <path d="M1527 222 l-1 -2 2 -2 c2.5 -2.5 3.2 -2.5 5.4 -0.1 l1.8 1.9 -1.2 2.1 -1.1 2.1 -2.4 0 -2.4 0 -1.1 -2z"/>
  <path d="M1548 222 l-1 -2 2 -2 c2.5 -2.5 3.2 -2.5 5.4 -0.1 l1.8 1.9 -1.2 2.1 -1.1 2.1 -2.4 0 -2.4 0 -1.1 -2z"/>
  <path d="M1569 222 l-1 -2 2 -2 c2.5 -2.5 3.2 -2.5 5.4 -0.1 l1.8 1.9 -1.2 2.1 -1.1 2.1 -2.4 0 -2.4 0 -1.1 -2z"/>
  <path d="M37 213.5 l0 -4.5 2.5 0 2.5 0 0 4.5 0 4.5 -2.5 0 -2.5 0 0 -4.5z"/>
  <path d="M625.9 193.8 l-3.4 -4.3 0 -8.1 0 -8.2 3.1 -4.3 3.2 -4.4 2.1 -0.3 2.1 -0.3 0 1.7 0 1.7 -2.5 3.3 -2.4 3.2 -0.7 3.9 -0.6 3.9 1.1 4 1.1 4 2.4 3.3 2.5 3.4 -0.5 0.8 c-0.3 0.5 -1.3 0.9 -2.3 0.9 l-1.8 0 -3.4 -4.2z"/>
  <path d="M556 193.8 c0 -0.7 2.7 -7.6 5.8 -15.3 l5.8 -14 2.2 -0.3 2.2 -0.3 0 1.3 c0 0.7 -2.6 7.7 -5.7 15.5 l-5.8 14.3 -2.2 0 -2.3 0 0 -1.2z"/>
  <path d="M598 193.8 c0 -0.7 2.7 -7.6 5.8 -15.3 l5.8 -14 2.2 -0.3 2.2 -0.3 0 1.3 c0 0.7 -2.6 7.7 -5.7 15.5 l-5.8 14.3 -2.2 0 -2.3 0 0 -1.2z"/>
  <path d="M57 189 l-1 -2 2 -2 c2.5 -2.5 3.2 -2.5 5.4 -0.1 l1.8 1.9 -1.2 2.1 -1.1 2.1 -2.4 0 -2.4 0 -1.1 -2z"/>
  <path d="M78 189 l-1 -2 2 -2 c2.5 -2.5 3.2 -2.5 5.4 -0.1 l1.8 1.9 -1.2 2.1 -1.1 2.1 -2.4 0 -2.4 0 -1.1 -2z"/>
  <path d="M99 189 l-1 -2 2 -2 c2.5 -2.5 3.2 -2.5 5.4 -0.1 l1.8 1.9 -1.2 2.1 -1.1 2.1 -2.4 0 -2.4 0 -1.1 -2z"/>
  <path d="M120 189 l-1 -2 2 -2 c2.5 -2.5 3.2 -2.5 5.4 -0.1 l1.8 1.9 -1.2 2.1 -1.1 2.1 -2.4 0 -2.4 0 -1.1 -2z"/>
  <path d="M78 177 l-1 -2 2 -2 c2.5 -2.5 3.2 -2.5 5.4 -0.1 l1.8 1.9 -1.2 2.1 -1.1 2.1 -2.4 0 -2.4 0 -1.1 -2z"/>
  <path d="M99 177 l-1 -2 2 -2 c2.5 -2.5 3.2 -2.5 5.4 -0.1 l1.8 1.9 -1.2 2.1 -1.1 2.1 -2.4 0 -2.4 0 -1.1 -2z"/>
  <path d="M580 151.2 l0 -1.9 2 -1.8 2 -1.8 1.4 -4.6 1.3 -4.5 -1 -4.1 -1 -4 -2.3 -3.2 -2.4 -3.2 0 -1.5 0 -1.6 2.3 0 2.2 0 2.9 4.6 2.9 4.5 0.5 4.4 0.4 4.4 -0.6 4.6 -0.7 4.6 -3.1 3.4 -3 3.5 -1.9 0 -1.9 0 0 -1.8z"/>
  <path d="M622 151.2 l0 -1.9 2 -1.8 2 -1.8 1.4 -4.6 1.3 -4.5 -1 -4.1 -1 -4 -2.3 -3.2 -2.4 -3.2 0 -1.5 0 -1.6 2.3 0 2.2 0 2.9 4.6 2.9 4.5 0.5 4.4 0.4 4.4 -0.6 4.6 -0.7 4.6 -3.1 3.4 -3 3.5 -1.9 0 -1.9 0 0 -1.8z"/>
  <path d="M643 151.2 l0 -1.9 2 -1.8 2 -1.8 1.4 -4.6 1.3 -4.5 -1 -4.1 -1 -4 -2.3 -3.2 -2.4 -3.2 0 -1.5 0 -1.6 2.3 0 2.2 0 2.9 4.6 2.9 4.5 0.5 4.4 0.4 4.4 -0.6 4.6 -0.7 4.6 -3.1 3.4 -3 3.5 -1.9 0 -1.9 0 0 -1.8z"/>
  <path d="M562.9 103.8 l-3.4 -4.3 0 -8.1 0 -8.2 3.1 -4.3 3.2 -4.4 2.1 -0.3 2.1 -0.3 0 1.7 0 1.7 -2.5 3.3 -2.4 3.2 -0.7 3.9 -0.6 3.9 1.1 4 1.1 4 2.4 3.3 2.5 3.4 -0.5 0.8 c-0.3 0.5 -1.3 0.9 -2.3 0.9 l-1.8 0 -3.4 -4.2z"/>
  <path d="M604.9 103.8 l-3.4 -4.3 0 -8.1 0 -8.2 3.1 -4.3 3.2 -4.4 2.1 -0.3 2.1 -0.3 0 1.7 0 1.7 -2.5 3.3 -2.4 3.2 -0.7 3.9 -0.6 3.9 1.1 4 1.1 4 2.4 3.3 2.5 3.4 -0.5 0.8 c-0.3 0.5 -1.3 0.9 -2.3 0.9 l-1.8 0 -3.4 -4.2z"/>
  <path d="M625.9 103.8 l-3.4 -4.3 0 -8.1 0 -8.2 3.1 -4.3 3.2 -4.4 2.1 -0.3 2.1 -0.3 0 1.7 0 1.7 -2.5 3.3 -2.4 3.2 -0.7 3.9 -0.6 3.9 1.1 4 1.1 4 2.4 3.3 2.5 3.4 -0.5 0.8 c-0.3 0.5 -1.3 0.9 -2.3 0.9 l-1.8 0 -3.4 -4.2z"/>
  <path d="M575 62 l0 -2 10.5 0 10.5 0 0 2 0 2 -10.5 0 -10.5 0 0 -2z"/>
 </g>
</svg>