<?xml version="1.0" encoding="utf-8"?>
<!DOCTYPE svg PUBLIC "-//W3C//DTD SVG 20010904//EN" "http://www.w3.org/TR/2001/REC-SVG-20010904/DTD/svg10.dtd">
<svg version="1.0" xmlns="http://www.w3.org/2000/svg" width="551px" height="458px" viewBox="0 0 551 458" preserveAspectRatio="xMidYMid meet">
 <g fill="#f6ffff">
  <path d="M393.8 433.6 l-1.8 -1.3 0 -4.6 0 -4.5 -2.5 -0.6 -2.5 -0.6 0 -1.5 0 -1.5 2.5 0 2.5 0 0 -3 0 -3 1.7 -2 1.7 -2 3.3 0 3.3 0 0 1.4 0 1.5 -2.2 0.3 -2.3 0.3 -0.3 3.5 -0.4 3.5 -1.1 0.7 -1.2 0.8 1.2 0.8 1.2 0.7 0.3 4.5 0.3 4.5 2.3 0.3 2.2 0.3 0 1.5 0 1.4 -3.2 0 -3.3 -0.1 -1.7 -1.3z"/>
  <path d="M426.4 433.9 l-0.7 -1.1 1.4 -0.9 c0.8 -0.5 2 -0.9 2.7 -0.9 l1.2 0 0 -4.3 0 -4.3 1.2 -1.2 1.2 -1.2 -1.2 0 -1.2 0 0 -3.9 0 -4 -2.2 -0.3 -2.3 -0.3 0 -1 0 -1 3.4 -0.3 3.3 -0.3 1.9 2 1.9 2 0 3.1 0 3 2.5 0 2.5 0 0 1.4 0 1.5 -2.2 0.3 -2.3 0.3 -0.3 4.3 -0.3 4.3 -2 2 -1.9 1.9 -2.9 0 -3 0 -0.7 -1.1z"/>
  <path d="M427 392.5 l0 -1.5 2.5 0 2.5 0 0 -4.9 0 -4.9 1.3 -0.5 1.2 -0.5 -1.2 -0.1 -1.3 -0.1 0 -4 0 -4 -2.5 0 -2.5 0 0 -1.5 0 -1.5 3.6 0 3.5 0 1.4 1.4 1.4 1.3 0.3 3.4 0.3 3.4 2.3 0.3 2.2 0.3 0 1.4 0 1.4 -2.2 0.3 -2.3 0.3 -0.3 4.4 -0.3 4.4 -1.4 1.3 -1.4 1.4 -3.5 0 -3.6 0 0 -1.5z"/>
  <path d="M374.6 385.9 c-3.2 -3.2 -6.2 -5.9 -6.7 -5.9 l-0.9 0 0 -1.5 0 -1.5 -1 0 -1 0 0 -4 0 -4 0.9 0 c1.1 0 12.1 10.8 12.1 11.9 0 0.4 1.1 1.4 2.5 2.1 l2.5 1.3 0 3.9 0 3.8 -1.2 -0.1 -1.3 0 -5.9 -6z"/>
  <path d="M351.2 369.5 l-2 -2.5 -1.2 0 -1.2 0 0.4 -1.2 0.5 -1.3 2.1 -0.3 2.2 -0.3 0.6 1.5 0.6 1.6 1.5 0 1.4 0 -0.6 1 -0.6 1 1.5 0 1.6 0 0 1.5 0 1.5 -2.4 0 -2.5 0 -1.9 -2.5z"/>
  <path d="M325.7 356.3 c-0.4 -0.3 -0.7 -1 -0.7 -1.5 l0 -0.8 9 0 9 0 0 1.5 0 1.5 -8.3 0 -8.4 0 -0.6 -0.7z"/>
  <path d="M385 355.5 l0 -1.5 9.1 0 9.1 0 -0.4 1.3 -0.5 1.2 -8.6 0.3 -8.7 0.3 0 -1.6z"/>
  <path d="M314.3 352.6 l-1.2 -1.4 -0.3 -4.3 -0.3 -4.4 -2.2 -0.3 -2.3 -0.3 0 -1.5 0 -1.4 2.5 0 2.5 0 0 -3.6 0 -3.5 1.4 -1.5 1.5 -1.4 3.5 0 3.6 0 0 1.4 0 1.5 -2.2 0.3 -2.3 0.3 -0.3 3.5 -0.4 3.5 -1.1 0.7 -1.2 0.8 1.3 0 1.2 0 0 5 0 5 1.9 0 1.9 0 1.2 1.5 1.2 1.5 -4.3 0 -4.4 -0.1 -1.2 -1.3z"/>
  <path d="M411.8 351 l-2.8 -2.9 0 -6.6 0 -6.7 2.9 -2.9 2.9 -2.9 2.6 0 2.6 0 0 1.5 0 1.5 -1.1 0 c-0.6 0 -1.7 0.6 -2.5 1.4 l-1.4 1.5 0 6.8 0 6.8 2.5 1.9 c1.4 1 2.5 2.3 2.5 2.7 l0 0.9 -2.7 0 -2.8 -0.1 -2.7 -2.9z"/>
  <path d="M434 353 l0 -1 -1.1 0 c-0.7 0 -1.8 -0.8 -2.5 -1.7 l-1.3 -1.8 -0.1 -6.8 0 -6.9 2.9 -2.9 2.9 -2.9 2.1 0 2 0 0.5 0.9 0.6 0.8 -3 2.3 -3 2.3 0 6.2 0 6.2 2.5 1.9 2.5 1.9 0 1.2 0 1.3 -2.5 0 -2.5 0 0 -1z"/>
  <path d="M449 352.9 c0 -0.6 0.6 -1.7 1.4 -2.5 0.8 -0.8 1.9 -1.4 2.5 -1.4 l1.1 0 0 -7.5 0 -7.5 -1.1 0 c-1.4 0 -3.9 -2.5 -3.9 -3.9 l0 -1.1 2.1 0 2.1 0 2.9 2.9 2.9 2.9 0 6.9 -0.1 6.8 -1.3 1.8 c-0.7 0.9 -1.8 1.7 -2.5 1.7 l-1.1 0 0 1 0 1 -2.5 0 -2.5 0 0 -1.1z"/>
  <path d="M469 352.7 l0 -1.2 2.5 -1.9 2.5 -1.9 0 -6.8 0 -6.9 -1.1 0 c-1.4 0 -3.9 -2.5 -3.9 -3.9 l0 -1.1 2.5 0 2.5 0 0 1 0 1 2 0 2 0 0 1.5 0 1.5 1 0 1 0 0 7.5 0 7.5 -1 0 -1 0 0 1.5 0 1.5 -2 0 -2 0 0 1 0 1 -2.5 0 -2.5 0 0 -1.3z"/>
  <path d="M365 340.5 l0 -1.5 9 0 9 0 0 1.5 0 1.5 -9 0 -9 0 0 -1.5z"/>
  <path d="M206 330.9 c0 -0.6 0.6 -1.7 1.4 -2.5 l1.5 -1.4 3.9 0 4 0 0.5 1.3 0.5 1.2 0.1 -1.2 0.1 -1.3 3 0 3 0 0 1.1 c0 0.6 -0.6 1.7 -1.4 2.5 l-1.5 1.4 -3.3 0 -3.4 0 -1.2 -1.2 -1.2 -1.2 0 1.2 0 1.2 -3 0 -3 0 0 -1.1z"/>
  <path d="M226 330.9 c0 -0.6 0.6 -1.7 1.4 -2.5 l1.5 -1.4 3.1 -0.4 3.1 -0.4 1.5 1.5 1.4 1.4 0 -1 0 -1.1 3 0 3 0 0 1.1 c0 0.7 -0.8 1.8 -1.7 2.5 l-1.8 1.3 -3.7 0.1 -3.6 0 -0.5 -1.2 -0.5 -1.3 -0.1 1.3 -0.1 1.2 -3 0 -3 0 0 -1.1z"/>
  <path d="M246 330.9 c0 -0.6 0.6 -1.7 1.4 -2.5 l1.5 -1.4 3.9 0 4 0 0.5 1.3 0.5 1.2 0.1 -1.2 0.1 -1.3 3 0 3 0 0 1.1 c0 0.7 -0.8 1.8 -1.7 2.5 l-1.8 1.3 -3.7 0.1 -3.8 0 0 -1.2 0 -1.2 -1.2 1.2 -1.2 1.2 -2.3 0 -2.3 0 0 -1.1z"/>
  <path d="M266 330.9 c0 -0.6 0.6 -1.7 1.4 -2.5 l1.5 -1.4 3.9 0 4 0 0.5 1.3 0.5 1.2 0.1 -1.2 0.1 -1.3 3 0 3 0 0 0.8 c0 0.4 -0.9 1.5 -2 2.5 l-2 1.7 -3.4 0 -3.4 0 -0.6 -1.2 -0.6 -1.3 -0.6 1.3 -0.6 1.2 -2.4 0 -2.4 0 0 -1.1z"/>
  <path d="M286 315.5 l0 -1.5 9.1 0 9.1 0 -0.4 1.3 -0.5 1.2 -8.6 0.3 -8.7 0.3 0 -1.6z"/>
  <path d="M306 315.5 l0 -1.5 8.5 0 8.5 0 0 1.5 0 1.5 -8.5 0 -8.5 0 0 -1.5z"/>
  <path d="M330 315.5 l0 -1.5 0.9 0 1 0 0.3 -3.7 0.3 -3.8 2.5 0 2.5 0 0.3 3.8 0.3 3.7 -1.5 0 -1.6 0 0 1.5 0 1.5 -2.5 0 -2.5 0 0 -1.5z"/>
  <path d="M369.5 316 l-0.6 -1 1.5 -0.6 1.6 -0.6 0 -4 0 -3.9 2.8 0.3 2.7 0.3 0.3 3.8 0.3 3.7 -1.5 0 -1.6 0 0 1.5 0 1.5 -2.4 0 -2.5 0 -0.6 -1z"/>
  <path d="M196 313 l0 -1 -1.3 0 -1.4 0 -1.1 -2.2 -1.1 -2.3 -0.4 -6.7 -0.5 -6.8 1.4 0 1.4 0 0 -1.5 0 -1.5 1.5 0 1.5 0 0 -1 0 -1 2.5 0 2.5 0 0 1.1 c0 1.4 -2.5 3.9 -3.9 3.9 l-1.1 0 0 7.5 0 7.5 1.1 0 c1.4 0 3.9 2.5 3.9 3.9 l0 1.1 -2.5 0 -2.5 0 0 -1z"/>
  <path d="M391.8 310.9 l-2.8 -3 0 -6.5 0 -6.5 3.2 -3 3.2 -2.9 2.3 0 2.3 0 0 1.5 0 1.5 -1.1 0 c-0.6 0 -1.7 0.6 -2.5 1.4 l-1.4 1.5 0 6.9 0 6.9 2.5 1.3 2.5 1.3 0 1.4 0 1.3 -2.7 -0.1 -2.8 0 -2.7 -3z"/>
  <path d="M411.8 310.9 l-2.8 -3 0 -6.4 0 -6.4 3 -3.1 2.9 -3 2.6 0 2.5 0 0 1.5 0 1.5 -1.1 0 c-0.6 0 -1.7 0.6 -2.5 1.4 l-1.4 1.5 0 6.6 0 6.7 2.5 2 c1.4 1.1 2.5 2.4 2.5 2.9 l0 0.9 -2.7 -0.1 -2.8 0 -2.7 -3z"/>
  <path d="M431.8 311 l-2.8 -2.9 0 -6.5 0 -6.5 3 -3.1 2.9 -3 2.6 0 2.5 0 0 0.9 c0 0.4 -1.1 1.7 -2.5 2.7 l-2.5 1.9 0 7 0 7 2.5 1.9 c1.4 1 2.5 2.3 2.5 2.7 l0 0.9 -2.7 0 -2.8 -0.1 -2.7 -2.9z"/>
  <path d="M449 312.7 l0 -1.2 2.5 -1.9 2.5 -1.9 0 -6.4 0 -6.4 -1.4 -1.5 c-0.8 -0.8 -1.9 -1.4 -2.5 -1.4 l-1.1 0 0 -1.5 0 -1.5 2.3 0 2.3 0 3.2 2.9 3.2 3 0 6.4 0 6.4 -3.5 3.1 -3.4 3.2 -2.1 0 -2 0 0 -1.3z"/>
  <path d="M469 312.9 c0 -0.7 1.1 -2.2 2.5 -3.5 l2.5 -2.3 0 -6.6 0 -6.5 -1.1 0 c-1.3 0 -3.9 -2.5 -3.9 -3.8 l0 -1 2.1 -0.5 2 -0.5 0.6 1.4 0.5 1.4 1.4 0 1.4 0 2 2 2 2 0 6.3 0 6.4 -2.3 2.1 c-1.3 1.2 -2.9 2.2 -3.5 2.2 l-1.2 0 0 1 0 1 -2.5 0 -2.5 0 0 -1.1z"/>
  <path d="M490 312.9 c0 -0.7 1.1 -2.2 2.5 -3.5 l2.5 -2.3 0 -6.6 0 -6.5 -1.1 0 c-1.3 0 -3.9 -2.5 -3.9 -3.8 0 -0.6 0.7 -1.2 1.5 -1.6 l1.4 -0.5 1.5 1.4 c0.8 0.8 1.9 1.5 2.4 1.5 0.5 0 1.5 1.2 2.3 2.7 l1.4 2.6 -0.2 5.9 -0.3 5.9 -2.9 3 -2.9 2.9 -2.1 0 -2.1 0 0 -1.1z"/>
  <path d="M147 300.5 l0 -1.6 8.5 0.3 8.5 0.3 0 1 0 1 -8.5 0.3 -8.5 0.3 0 -1.6z"/>
  <path d="M332.4 300.6 l-0.6 -1.6 0.6 -1.5 0.5 -1.5 2.6 0 2.6 0 -0.3 2.8 -0.3 2.7 -2.3 0.3 -2.2 0.3 -0.6 -1.5z"/>
  <path d="M345.7 301.4 c-0.4 -0.4 -0.7 -1.1 -0.7 -1.6 l0 -0.8 9.1 0 9.1 0 -0.4 1.3 -0.5 1.2 -7.9 0.3 -8 0.3 -0.7 -0.7z"/>
  <path d="M166 293.5 c0 -0.8 8.6 -9.5 9.4 -9.5 1.1 0 8.6 7.7 8.6 8.9 l0 1.1 -2.5 0 -2.5 0 0 -1 0 -1 -1.4 0 -1.4 0 -0.4 -1 -0.3 -1.1 -2.2 2.1 -2.2 2 -2.6 0 c-1.4 0 -2.5 -0.2 -2.5 -0.5z"/>
  <path d="M92.3 288.5 c-4 -4 -4 -4.5 -0.8 -4.5 l2.6 0 2.9 3 c1.7 1.7 3 3.5 3 4 l0 1 -2.2 0 -2.3 -0.1 -3.2 -3.4z"/>
  <path d="M107 290.5 l0 -1.5 1 0 1 0 0 -1.5 0 -1.5 3.9 0 3.9 0 0.6 1.3 0.6 1.2 0.6 -1.2 0.6 -1.3 2.3 0 2.4 0 0.6 1 0.6 0.9 -2.1 2.1 -2 2 -3.5 0 -3.5 0 0 -1.7 -0.1 -1.8 -1.3 1.8 -1.3 1.7 -2.2 0 -2.1 0 0 -1.5z"/>
  <path d="M68.7 276.2 l-1.7 -0.3 0 -1 0 -0.9 9 0 9 0 0 1 0 1 -1.2 0.1 c-8 0.3 -13.8 0.3 -15.1 0.1z"/>
  <path d="M150.3 276.3 l-3.3 -0.4 0 -1 0 -0.9 8.5 0 8.5 0 0 0.9 0 0.9 -2.2 0.6 c-2.4 0.6 -6 0.6 -11.5 -0.1z"/>
  <path d="M229.3 276.3 l-3.3 -0.4 0 -1 0 -0.9 9 0 9 0 0 0.9 c0 2 -5.7 2.5 -14.7 1.4z"/>
  <path d="M370.4 275.9 l-0.6 -1.1 1.1 -1.1 1.1 -1.1 0 -3.4 0 -3.3 2.8 0.3 2.7 0.3 0.3 2.8 0.3 2.8 -2.3 2.4 c-2.5 2.7 -4.3 3.1 -5.4 1.4z"/>
  <path d="M429 275.1 c0 -0.5 0.7 -1.1 1.5 -1.5 l1.5 -0.5 0 -3.6 0 -3.5 2.5 0 2.5 0 0 3.6 0 3.5 -1.4 1.5 -1.5 1.4 -2.5 0 -2.6 0 0 -0.9z"/>
  <path d="M53.2 270.7 l-3.2 -3.2 0 -6.2 0 -6.2 3.6 -3.6 3.6 -3.6 2.1 0.3 2.2 0.3 0.3 1.6 0.3 1.7 -3 1.3 -3.1 1.4 0 6.7 0 6.8 1 0 c1.3 0 5 3.7 5 5 l0 1 -2.7 -0.1 -2.8 0 -3.3 -3.2z"/>
  <path d="M490 272.9 c0 -0.7 1.1 -2.2 2.5 -3.5 l2.5 -2.3 0 -6.1 0 -6.1 -2.7 -2.3 -2.6 -2.3 0.7 -1.1 c0.4 -0.7 1.3 -1.2 2.1 -1.2 l1.4 0 3.5 3.4 3.6 3.3 0 6.3 0 6.3 -3.5 3.3 -3.4 3.4 -2.1 0 -2 0 0 -1.1z"/>
  <path d="M87 260.1 l0 -0.9 2.9 -0.7 c3 -0.6 11.7 -0.5 13.9 0.3 0.6 0.2 1.2 0.8 1.2 1.3 l0 0.9 -9 0 -9 0 0 -0.9z"/>
  <path d="M246 260.1 l0 -0.9 6.3 -0.6 6.4 -0.7 2.6 0.6 2.7 0.7 0 0.9 0 0.9 -9 0 -9 0 0 -0.9z"/>
  <path d="M449 255.1 c0 -0.5 0.7 -1.2 1.5 -1.5 l1.6 -0.6 -0.2 -1.2 c-0.1 -0.7 -0.1 -2.3 0 -3.5 l0.1 -2.3 2.5 0 2.5 0 0 3.6 0 3.7 -1.7 1.3 -1.8 1.3 -2.2 0.1 -2.3 0 0 -0.9z"/>
  <path d="M206.5 250.9 l-0.7 -1 1.8 -2 1.7 -1.9 3.9 0 3.8 0 0 1.2 0 1.2 1.2 -1.2 1.2 -1.2 2.3 0 2.3 0 0 1 c0 0.5 -0.8 1.9 -1.7 3 l-1.7 2 -3.3 0 -3.2 0 -0.9 -1.6 -0.9 -1.6 -0.6 1.6 -0.6 1.6 -2 0 -2 0 -0.6 -1.1z"/>
  <path d="M266 250.4 l0 -1.5 1.4 -1.5 1.5 -1.4 3.4 0 3.5 0 0.6 1.3 0.6 1.2 0.6 -1.2 0.6 -1.3 2.9 0 2.9 0 0 1 c0 0.6 -0.9 1.9 -2 3 l-2 2 -3 0 -2.9 0 -1 -1.7 -1 -1.8 -0.6 1.8 -0.7 1.7 -2.4 0 -2.4 0 0 -1.6z"/>
  <path d="M286 250.4 l0 -1.5 1.4 -1.5 1.5 -1.4 3.4 0 3.5 0 0.6 1.3 0.6 1.2 0.6 -1.2 0.6 -1.3 2.9 0 2.9 0 0 1 c0 0.6 -0.9 1.9 -2 3 l-2 2 -3.5 0 -3.5 0 0 -1.7 -0.1 -1.8 -1.3 1.8 -1.3 1.7 -2.2 0 -2.1 0 0 -1.6z"/>
  <path d="M306 250.4 l0 -1.5 1.4 -1.5 1.5 -1.4 3.4 0 3.5 0 0.6 1.3 0.6 1.2 0.6 -1.2 0.6 -1.3 2.3 0 2.4 0 0.6 1 0.7 1.1 -2.4 1.9 -2.3 1.9 -3.2 0.1 -3.3 0 0 -1.5 0 -1.5 -1 0 -1 0 0 1.5 0 1.5 -2.5 0 -2.5 0 0 -1.6z"/>
  <path d="M325.5 250.9 l-0.7 -1.1 2.1 -1.9 2 -1.9 3.5 0 3.4 0 0.6 1.3 0.6 1.2 0.6 -1.2 0.6 -1.3 2.2 0 c1.3 0 2.6 0.3 2.9 0.7 l0.7 0.7 -2.2 2.3 -2.1 2.3 -3.4 0 -3.3 0 0 -1.5 0 -1.5 -1 0 -1 0 0 1.5 0 1.5 -2.4 0 -2.5 0 -0.6 -1.1z"/>
  <path d="M350.8 248.7 c-1.6 -1.7 -2.8 -3.7 -2.8 -4.4 l0 -1.3 1.4 0 c0.8 0 2.1 0.7 3 1.5 0.8 0.8 1.7 1.5 2.1 1.5 0.4 0 1.3 0.6 2.1 1.4 l1.4 1.5 0 1.5 0 1.6 -2.2 -0.1 -2.3 0 -2.7 -3.2z"/>
  <path d="M127 235.1 l0 -1 5.5 -0.6 5.5 -0.7 3.5 0.6 3.6 0.7 -0.6 1 -0.6 0.9 -8.5 0 -8.4 0 0 -0.9z"/>
  <path d="M365 235.1 l0 -0.8 4.1 -0.7 4.1 -0.6 4.9 0.6 4.9 0.7 0 0.8 0 0.9 -9 0 -9 0 0 -0.9z"/>
  <path d="M429 235 c0 -0.6 0.7 -1.3 1.5 -1.6 l1.5 -0.6 0 -3.4 0 -3.4 2.5 0 2.5 0 0 3.6 0 3.5 -1.4 1.5 -1.5 1.4 -2.5 0 -2.6 0 0 -1z"/>
  <path d="M53.2 230.7 l-3.2 -3.2 0 -6.4 0 -6.4 3.6 -3.3 3.5 -3.4 2.5 0 2.4 0 0 1 c0 0.5 -0.8 1.9 -1.7 3 l-1.7 2 -1.3 0 -1.3 0 0 7 0 7 1 0 c1.3 0 5 3.7 5 5 l0 1 -2.7 -0.1 -2.8 0 -3.3 -3.2z"/>
  <path d="M151 232.9 c0 -0.7 1.1 -2.2 2.5 -3.5 l2.5 -2.3 0 -6.1 0 -6.1 -2.5 -2.3 c-1.4 -1.3 -2.5 -2.8 -2.5 -3.5 l0 -1.1 2 0 1.9 0 3.2 3.1 3.2 3.1 0.1 6.8 0.1 6.7 -3.2 3.1 -3.1 3.2 -2.1 0 -2.1 0 0 -1.1z"/>
  <path d="M213.3 230.6 l-3.3 -3.3 0 -6.3 0 -6.3 3.6 -3.3 3.5 -3.4 2 0 1.9 0 0 1.1 c0 0.7 -1.1 2.2 -2.5 3.5 l-2.5 2.3 0 6.1 0 6.1 2.5 2.3 c1.4 1.3 2.5 2.8 2.5 3.5 l0 1.1 -2.2 -0.1 -2.3 0 -3.2 -3.3z"/>
  <path d="M312.8 230.9 l-2.8 -2.8 0 -7.1 0 -7.1 1.4 -1.5 c0.8 -0.8 1.9 -1.4 2.5 -1.4 l1.1 0 0 -1.5 0 -1.5 2.5 0 2.5 0 0 1.4 0 1.5 -2.5 1.9 -2.5 2 0 6.6 0 6.6 1.1 0 c1.4 0 3.8 3 3.9 4.8 l0 1.2 -2.2 -0.1 -2.3 -0.1 -2.7 -2.9z"/>
  <path d="M488 232.5 l0 -1.5 2.5 0 2.5 0 0 -4.9 0 -4.9 1.3 -0.6 1.2 -0.6 -1.2 -0.6 -1.3 -0.6 0 -3.3 0 -3.3 -2.6 -0.6 -2.5 -0.7 0.4 -1.2 0.4 -1.2 2.7 -0.3 2.8 -0.4 1.8 2 1.8 1.9 0.4 2.9 0.3 2.9 2.3 0.3 2.2 0.3 0 1.5 0 1.4 -1.9 0 -1.9 0 -0.6 2.3 c-0.3 1.2 -0.6 3.5 -0.6 5.1 l0 2.9 -1.7 1.3 -1.8 1.3 -3.2 0.1 -3.3 0 0 -1.5z"/>
  <path d="M266 219.5 l0 -1.6 8.7 0.3 8.6 0.3 0.5 1.3 0.4 1.2 -9.1 0 -9.1 0 0 -1.5z"/>
  <path d="M346 219.5 l0 -1.6 8.2 0.3 8.1 0.3 0.5 1.3 0.4 1.2 -8.6 0 -8.6 0 0 -1.5z"/>
  <path d="M91.7 207.9 l-2.7 -3 0.5 -1 c0.4 -0.5 1.3 -0.9 2.2 -0.9 l1.5 0 3.4 3.4 c4.1 4.1 4.2 4.6 0.7 4.5 l-2.8 0 -2.8 -3z"/>
  <path d="M286 209.9 c0 -0.6 0.6 -1.7 1.4 -2.5 l1.5 -1.4 3.4 0 3.5 0 0.6 1.3 0.6 1.2 0.6 -1.2 0.6 -1.3 2.9 0 2.9 0 0 0.8 c0 0.4 -0.9 1.5 -2 2.5 l-2 1.7 -3.4 0 -3.4 0 -0.6 -1.2 -0.6 -1.3 -0.6 1.3 -0.6 1.2 -2.4 0 -2.4 0 0 -1.1z"/>
  <path d="M411.3 209.5 c-0.7 -0.8 -1.3 -1.9 -1.3 -2.5 l0 -1 -1.6 0 -1.6 0 0.4 -1.2 0.5 -1.3 1.8 -0.3 1.8 -0.4 2.2 2.6 c1.2 1.4 2.7 2.6 3.4 2.6 l1.1 0 0 1.5 0 1.5 -2.7 0 -2.8 -0.1 -1.2 -1.4z"/>
  <path d="M171 194.5 l0 -1.5 1 0 1 0 0 -3.5 0 -3.5 3 0 3 0 0 3.3 0 3.3 -2 1.7 -2 1.7 -2 0 -2 0 0 -1.5z"/>
  <path d="M186.7 195.4 l-0.6 -0.7 0.5 -0.8 0.5 -0.9 8.5 0 8.4 0 0 1.5 0 1.5 -8.3 0 -8.4 0 -0.6 -0.6z"/>
  <path d="M290 194.5 l0 -1.5 0.9 0 0.9 0 0.6 -3.5 0.7 -3.5 2.4 0 2.5 0 0 3 0 3 -2 2 -2 2 -2 0 -2 0 0 -1.5z"/>
  <path d="M425 194.5 l0 -1.6 8.7 0.3 8.6 0.3 0.5 1.3 0.4 1.2 -9.1 0 -9.1 0 0 -1.5z"/>
  <path d="M449 194.5 l0 -1.5 0.9 0 1 0 0.3 -3.2 0.3 -3.3 2.8 -0.3 2.7 -0.3 0 3.3 0 3.4 -2 1.7 -2 1.7 -2 0 -2 0 0 -1.5z"/>
  <path d="M74.3 190.5 l-3.3 -3.2 0 -6.3 0 -6.3 3.6 -3.3 3.5 -3.4 2 0 1.9 0 0 1.1 c0 0.7 -1.1 2.2 -2.5 3.5 l-2.5 2.3 0 6.1 0 6.1 2.6 2.4 2.6 2.4 -0.7 1 -0.6 1.1 -1.7 -0.1 -1.7 -0.1 -3.2 -3.3z"/>
  <path d="M469 192.9 c0 -0.7 1.1 -2.2 2.5 -3.5 l2.5 -2.3 0 -6.1 0 -6.1 -2.5 -2.3 c-1.4 -1.3 -2.5 -2.8 -2.5 -3.5 l0 -1.1 2.4 0 2.4 0 0.6 1.5 c0.3 0.8 1 1.5 1.6 1.5 0.5 0 1.9 0.8 3 1.7 l2 1.7 0 6.6 0 6.6 -1.8 1.5 c-1 0.8 -2.6 1.8 -3.5 2.2 l-1.7 0.6 0 1.1 0 1 -2.5 0 -2.5 0 0 -1.1z"/>
  <path d="M214 190.5 l0 -2.5 2.5 0 2.5 0 0 2.5 0 2.5 -2.5 0 -2.5 0 0 -2.5z"/>
  <path d="M234 190.5 l0 -2.5 2.5 0 2.5 0 0 2.5 0 2.5 -2.5 0 -2.5 0 0 -2.5z"/>
  <path d="M273 190.4 l0 -2.5 2.8 0.3 2.7 0.3 0.3 2.3 0.3 2.2 -3 0 -3.1 0 0 -2.6z"/>
  <path d="M330 192.3 c0.1 -1.4 2.7 -4.3 3.9 -4.3 l1.1 0 0 -7.5 0 -7.5 -1.1 0 c-1.4 0 -3.9 -2.5 -3.9 -3.9 l0 -1.1 2.1 0 2.1 0 2.9 2.9 2.9 2.9 0 7.2 0 7.1 -1.4 1.5 c-0.8 0.8 -1.9 1.4 -2.5 1.4 l-1.1 0 0 1 0 1 -2.5 0 -2.5 0 0 -0.7z"/>
  <path d="M147 179.5 l0 -1.5 8.5 0 8.5 0 0 1.5 0 1.5 -8.5 0 -8.5 0 0 -1.5z"/>
  <path d="M345 179.5 l0 -1.5 9 0 9 0 0 1.5 0 1.5 -9 0 -9 0 0 -1.5z"/>
  <path d="M365 179.5 l0 -1.5 9 0 9 0 0 1.5 0 1.5 -9 0 -9 0 0 -1.5z"/>
  <path d="M409 174.5 l0 -1.5 1.5 0 1.5 0 0 -3.5 0 -3.5 2.5 0 2.5 0 0 3 0 3 -1.7 2 -1.7 2 -2.3 0 -2.3 0 0 -1.5z"/>
  <path d="M133.3 169.5 c-0.7 -0.8 -1.3 -1.9 -1.3 -2.5 l0 -1 -1.5 0 -1.5 0 0 -1.5 0 -1.5 2.1 0 2.2 0 2.8 3 c1.6 1.6 2.9 3.4 2.9 4 l0 1 -2.2 0 -2.3 -0.1 -1.2 -1.4z"/>
  <path d="M252 168.5 l-1.3 -2.5 -1.5 0 -1.4 0 0.4 -1.2 0.5 -1.3 2.6 -0.3 2.7 -0.3 0 1.1 c0 1.4 2.5 4 3.9 4 l1.1 0 0 1.5 0 1.5 -2.8 0 -2.9 0 -1.3 -2.5z"/>
  <path d="M91.5 155 l-0.6 -1 1.5 -0.6 1.6 -0.6 0 -3.4 0 -3.4 2.4 0 2.4 0 0.4 3.5 0.4 3.5 -1.3 0 -1.3 0 0 1.5 0 1.5 -2.4 0 -2.5 0 -0.6 -1z"/>
  <path d="M350 154.5 l0 -1.5 0.9 0 1 0 0.3 -3.7 0.3 -3.8 2.5 0 2.5 0 0.3 3.3 0.3 3.2 -1.5 0.6 -1.6 0.6 0 1.4 0 1.4 -2.5 0 -2.5 0 0 -1.5z"/>
  <path d="M445 154.5 l0 -1.5 8.5 0 8.5 0 0 1.5 0 1.5 -8.5 0 -8.5 0 0 -1.5z"/>
  <path d="M171 151.9 c0 -1.4 2.5 -3.9 3.9 -3.9 l1.1 0 0 -7.5 0 -7.5 -1.1 0 c-1.4 0 -3.9 -2.5 -3.9 -3.9 l0 -1.1 2 0 2.1 0 3.4 3.4 3.5 3.3 0 4.7 0 4.8 -1.6 3.4 -1.6 3.4 -1.4 0 -1.4 0 0 1 0 1 -2.5 0 -2.5 0 0 -1.1z"/>
  <path d="M315 152 l0 -1 -1.1 0 c-0.7 0 -1.8 -0.8 -2.5 -1.7 l-1.3 -1.8 -0.1 -6.8 0 -6.9 2.9 -2.9 2.9 -2.9 2.1 0 2.1 0 0 1.1 c0 1.4 -2.5 3.9 -3.9 3.9 l-1.1 0 0 6.9 0 6.8 2.5 1.9 2.5 1.9 0 1.2 0 1.3 -2.5 0 -2.5 0 0 -1z"/>
  <path d="M429 152.5 c0 -0.3 1.1 -1.6 2.5 -2.9 l2.5 -2.3 0 -7.2 0 -7.1 -1.1 0 c-1.4 0 -3.9 -2.5 -3.9 -3.9 l0 -1.1 2.1 0 2.2 0 3.3 3.6 3.4 3.5 0 6.2 0 6.1 -3.2 2.8 -3.3 2.8 -2.2 0 c-1.3 0 -2.3 -0.2 -2.3 -0.5z"/>
  <path d="M206.7 140.4 l-0.6 -0.7 0.5 -0.8 0.5 -0.9 8.5 0 8.4 0 0 1.5 0 1.5 -8.3 0 -8.4 0 -0.6 -0.6z"/>
  <path d="M266 139.5 l0 -1.5 9.1 0 9.1 0 -0.4 1.3 -0.5 1.2 -8.6 0.3 -8.7 0.3 0 -1.6z"/>
  <path d="M365 139.5 l0 -1.5 9 0 9 0 0 1.5 0 1.5 -9 0 -9 0 0 -1.5z"/>
  <path d="M389.7 135.3 c-0.4 -0.3 -0.7 -1 -0.7 -1.5 l0 -0.8 1.5 0 1.5 0 0 -3.5 0 -3.5 2.5 0 2.5 0 0 3 0 3 -1.7 2 -1.7 2 -1.7 0 c-0.8 0 -1.9 -0.3 -2.2 -0.7z"/>
  <path d="M226 130 c0 -0.5 0.8 -1.9 1.7 -3 l1.7 -2 3.3 0 3.2 0 0.7 1.1 0.6 1.1 1.1 -1.1 1.1 -1.1 2.3 0 2.3 0 0 1.6 0 1.7 -1.7 1.3 -1.8 1.3 -3 0.1 -3.1 0 -1.1 -1.1 -1.1 -1.1 -0.6 1.1 -0.7 1.1 -2.5 0 -2.4 0 0 -1z"/>
  <path d="M246 130 c0 -0.5 0.8 -1.9 1.7 -3 l1.7 -2 3.3 0 3.2 0 0.7 1.1 0.6 1.1 1.1 -1.1 c0.6 -0.6 1.9 -1.1 2.8 -1.1 l1.8 0 0.6 1 0.6 0.9 -2.1 2.1 -2 2 -3.5 0 -3.5 0 0 -1.2 0 -1.2 -1.2 1.2 -1.2 1.2 -2.3 0 -2.3 0 0 -1z"/>
  <path d="M127 114.5 l0 -1.5 9.1 0 9.1 0 -0.4 1.3 -0.5 1.2 -8.6 0.3 -8.7 0.3 0 -1.6z"/>
  <path d="M157 112 l0 -1 -1.5 0 -1.5 0 0 -4.9 0 -5 -2.2 -0.3 -2.1 -0.3 -0.4 -1.1 -0.4 -1.2 2.6 -0.6 2.5 -0.6 0 -2.8 0 -2.8 2 -1.7 2 -1.7 3.6 0 3.6 0 -0.4 1.3 -0.5 1.2 -2.1 0.3 -2.2 0.3 0 3.4 0 3.3 -1.2 0.6 -1.3 0.6 1.3 0.6 1.2 0.6 0 4.8 0 4.9 2.2 0.3 2.1 0.3 0.5 1.3 0.4 1.2 -4.1 0 -4.1 0 0 -1z"/>
  <path d="M330 111.9 c0 -0.7 1.1 -2.2 2.5 -3.5 l2.5 -2.3 0 -6.6 0 -6.5 -1.1 0 c-1.3 0 -3.9 -2.5 -3.9 -3.8 0 -0.6 0.7 -1.2 1.5 -1.6 l1.4 -0.5 3.6 3.3 3.5 3.3 0 6.7 0 6.8 -2.9 2.9 -2.9 2.9 -2.1 0 -2.1 0 0 -1.1z"/>
  <path d="M409 111.7 l0 -1.4 2.5 -1.3 2.5 -1.3 0 -7.4 0 -7.3 -1.1 0 c-1.4 0 -3.9 -2.5 -3.9 -3.9 l0 -1.1 2.1 0 2.1 0 2.9 2.9 2.9 2.9 0 6.9 -0.1 6.8 -1.3 1.8 c-0.7 0.9 -1.8 1.7 -2.5 1.7 l-1.1 0 0 1 0 1 -2.5 0 -2.5 0 0 -1.3z"/>
  <path d="M168.8 75.3 l-1.8 -0.4 0 -1 0 -0.9 9 0 9 0 0 0.9 0 0.9 -3.1 0.6 c-3.5 0.7 -10.4 0.6 -13.1 -0.1z"/>
  <path d="M365.5 75.2 c-0.3 -0.3 -0.5 -0.9 -0.5 -1.4 l0 -0.8 9 0 9 0 0 0.9 0 0.9 -2.9 0.7 c-3.2 0.7 -13.8 0.4 -14.6 -0.3z"/>
  <path d="M292.8 70 l-2.8 -2.9 0 -7.1 0 -7.1 1.4 -1.5 c0.8 -0.8 1.9 -1.4 2.5 -1.4 l1.1 0 0 -1.5 0 -1.5 2.5 0 2.5 0 0 1.6 0 1.5 -1.4 1.5 c-0.8 0.8 -1.9 1.4 -2.5 1.4 l-1.1 0 0 7 0 7 1.5 0 1.5 0 0 1.5 0 1.5 1 0 1 0 0 1.5 0 1.5 -2.2 0 -2.3 -0.1 -2.7 -2.9z"/>
  <path d="M392 70.5 l0 -2.5 2.5 0 2.5 0 0 2.5 0 2.5 -2.5 0 -2.5 0 0 -2.5z"/>
  <path d="M187 58.5 l0 -1.6 8.7 0.3 8.6 0.3 0.5 1.3 0.4 1.2 -9.1 0 -9.1 0 0 -1.5z"/>
  <path d="M207 58.5 l0 -1.5 8.5 0 8.5 0 0 1.5 0 1.5 -8.5 0 -8.5 0 0 -1.5z"/>
  <path d="M226.2 58.8 l0.5 -1.3 8.6 -0.3 8.7 -0.3 0 1.6 0 1.5 -9.1 0 -9.1 0 0.4 -1.2z"/>
  <path d="M345 59.1 c0 -1.4 2.8 -2.1 9 -2.1 6.2 0 9 0.7 9 2.1 l0 0.9 -9 0 -9 0 0 -0.9z"/>
  <path d="M313 49.3 l-1.1 -1.8 -0.5 1.3 -0.6 1.2 -2.9 0 -2.9 0 0 -0.8 c0 -0.4 0.9 -1.5 2 -2.5 l2 -1.7 2.8 0 2.8 0 1.3 1.3 1.4 1.2 0.4 -1.2 0.5 -1.3 2.4 0 2.4 0 0 1.1 c0 0.6 -0.6 1.7 -1.4 2.4 l-1.4 1.4 -3 0.6 -3.1 0.5 -1.1 -1.7z"/>
  <path d="M325.4 49.6 l-0.6 -1.5 1.5 -1.6 1.6 -1.5 3.3 0 3.4 0 1.1 1.1 1.1 1.1 0.6 -1.1 0.7 -1.1 2.5 0 2.4 0 0 1.1 c0 0.6 -1 1.9 -2.2 3 l-2.3 1.8 -2.2 0.1 -2.2 0 -1.4 -1.5 -1.5 -1.5 -0.4 0.9 c-0.2 0.4 -1.3 1.2 -2.6 1.5 l-2.2 0.7 -0.6 -1.5z"/>
  <path d="M246 48.9 c0 -0.6 0.6 -1.7 1.4 -2.5 l1.5 -1.4 3.3 0 3.4 0 1.2 1.2 1.2 1.2 0 -1.2 0 -1.2 3 0 3 0 0 1.1 c0 0.7 -0.8 1.8 -1.7 2.5 l-1.8 1.3 -3.7 0.1 -3.8 0 0 -1.2 0 -1.2 -1.2 1.2 -1.2 1.2 -2.3 0 -2.3 0 0 -1.1z"/>
  <path d="M266 48.9 c0 -0.6 0.6 -1.7 1.4 -2.5 l1.5 -1.4 3.4 0 3.5 0 0.6 1.3 0.6 1.2 0.6 -1.2 0.6 -1.3 2.9 0 2.9 0 0 0.8 c0 0.4 -0.9 1.5 -2 2.5 l-2 1.7 -3.4 0 -3.4 0 -0.6 -1.2 -0.6 -1.3 -0.6 1.3 -0.6 1.2 -2.4 0 -2.4 0 0 -1.1z"/>
 </g>
</svg>