<?xml version="1.0" encoding="utf-8"?>
<!DOCTYPE svg PUBLIC "-//W3C//DTD SVG 1.1//EN" "http://www.w3.org/Graphics/SVG/1.1/DTD/svg11.dtd">
<svg version="1.1" xmlns="http://www.w3.org/2000/svg" width="750px" height="913px" viewBox="0 0 750 913" preserveAspectRatio="xMidYMid meet">
 <g fill="#00001b">
  <path d="M337.6 878.8 c-0.3 -2.9 -0.6 -7.4 -0.6 -10 l0 -4.8 5.5 0 5.5 0 0 6.3 c0 3.4 -0.3 7.9 -0.6 10 -0.6 3.6 -0.8 3.7 -4.9 3.7 l-4.2 0 -0.7 -5.2z"/>
  <path d="M382.6 878.8 c-0.3 -2.9 -0.6 -7.4 -0.6 -10 l0 -4.8 5.5 0 5.5 0 0 6.3 c0 3.4 -0.3 7.9 -0.6 10 -0.6 3.6 -0.8 3.7 -4.9 3.7 l-4.2 0 -0.7 -5.2z"/>
  <path d="M292.3 824.5 c-2.9 -2.1 -3.8 -6.6 -1.9 -10.3 2.5 -4.9 7.8 -5.7 12.2 -1.9 7.5 6.5 -2.2 17.9 -10.3 12.2z"/>
  <path d="M427.3 824.5 c-2.9 -2.1 -3.8 -6.6 -1.9 -10.3 2.5 -4.9 7.8 -5.7 12.2 -1.9 7.5 6.5 -2.2 17.9 -10.3 12.2z"/>
  <path d="M247.6 782.8 c-0.3 -2.9 -0.6 -7.4 -0.6 -10 l0 -4.8 5.5 0 5.5 0 0 6.3 c0 3.4 -0.3 7.9 -0.6 10 -0.6 3.6 -0.8 3.7 -4.9 3.7 l-4.2 0 -0.7 -5.2z"/>
  <path d="M472.6 782.8 c-0.3 -2.9 -0.6 -7.4 -0.6 -10 l0 -4.8 5.5 0 5.5 0 0 6.3 c0 3.4 -0.3 7.9 -0.6 10 -0.6 3.6 -0.8 3.7 -4.9 3.7 l-4.2 0 -0.7 -5.2z"/>
  <path d="M203.6 705.8 c-7.5 -17.8 -13.6 -32.6 -13.6 -33 0 -0.5 2.2 -0.8 4.8 -0.8 l4.9 0 13.6 32.3 c7.6 17.8 13.7 32.6 13.7 33 0 0.4 -2.2 0.7 -4.9 0.7 l-4.8 0 -13.7 -32.2z"/>
  <path d="M503 737.4 c0 -0.4 6.2 -15.2 13.7 -33 l13.7 -32.4 5.2 0 5.2 0 -5.2 12.3 c-2.9 6.7 -9.2 21.5 -14 33 l-8.8 20.7 -4.9 0 c-2.7 0 -4.9 -0.3 -4.9 -0.6z"/>
  <path d="M158.6 609.8 c-7.5 -17.8 -13.6 -32.6 -13.6 -33 0 -0.5 2.2 -0.8 4.8 -0.8 l4.9 0 13.6 32.3 c7.6 17.8 13.7 32.6 13.7 33 0 0.4 -2.2 0.7 -4.9 0.7 l-4.8 0 -13.7 -32.2z"/>
  <path d="M548 641.4 c0 -0.4 6.2 -15.2 13.7 -33 l13.7 -32.4 5.2 0 5.2 0 -5.2 12.3 c-2.9 6.7 -9.2 21.5 -14 33 l-8.8 20.7 -4.9 0 c-2.7 0 -4.9 -0.3 -4.9 -0.6z"/>
  <path d="M113.6 513.8 c-7.5 -17.8 -13.6 -32.6 -13.6 -33 0 -0.5 2.2 -0.8 4.8 -0.8 l4.9 0 13.6 32.3 c7.6 17.8 13.7 32.6 13.7 33 0 0.4 -2.2 0.7 -4.9 0.7 l-4.8 0 -13.7 -32.2z"/>
  <path d="M593 545.4 c0 -0.4 6.2 -15.2 13.7 -33 l13.7 -32.4 5.2 0 5.2 0 -5.2 12.3 c-2.9 6.7 -9.2 21.5 -14 33 l-8.8 20.7 -4.9 0 c-2.7 0 -4.9 -0.3 -4.9 -0.6z"/>
  <path d="M68 416 l0 -41 4.5 0 4.5 0 0 41 0 41 -4.5 0 -4.5 0 0 -41z"/>
  <path d="M653 416 l0 -41 4.5 0 4.5 0 0 41 0 41 -4.5 0 -4.5 0 0 -41z"/>
  <path d="M68 320 l0 -41 4.5 0 4.5 0 0 41 0 41 -4.5 0 -4.5 0 0 -41z"/>
  <path d="M653 320 l0 -41 4.5 0 4.5 0 0 41 0 41 -4.5 0 -4.5 0 0 -41z"/>
  <path d="M68 224 l0 -41 4.5 0 4.5 0 0 41 0 41 -4.5 0 -4.5 0 0 -41z"/>
  <path d="M653 224 l0 -41 4.5 0 4.5 0 0 41 0 41 -4.5 0 -4.5 0 0 -41z"/>
  <path d="M68 128 l0 -41 4.5 0 4.5 0 0 41 0 41 -4.5 0 -4.5 0 0 -41z"/>
  <path d="M230 165 l0 -4 45 0 45 0 0 4 0 4 -45 0 -45 0 0 -4z"/>
  <path d="M410 165 l0 -4 45 0 45 0 0 4 0 4 -45 0 -45 0 0 -4z"/>
  <path d="M653 128 l0 -41 4.5 0 4.5 0 0 41 0 41 -4.5 0 -4.5 0 0 -41z"/>
  <path d="M323 161.4 c0 -0.4 6.2 -15.2 13.7 -33 l13.7 -32.4 5.2 0 5.2 0 -5.2 12.3 c-2.9 6.7 -9.2 21.5 -14 33 l-8.8 20.7 -4.9 0 c-2.7 0 -4.9 -0.3 -4.9 -0.6z"/>
  <path d="M383.6 129.8 c-7.5 -17.8 -13.6 -32.6 -13.6 -33 0 -0.5 2.2 -0.8 4.8 -0.8 l4.9 0 13.6 32.3 c7.6 17.8 13.7 32.6 13.7 33 0 0.4 -2.2 0.7 -4.9 0.7 l-4.8 0 -13.7 -32.2z"/>
  <path d="M202.3 152.5 c-2.9 -2.1 -3.8 -6.6 -1.9 -10.3 2.5 -4.9 7.8 -5.7 12.2 -1.9 7.5 6.5 -2.2 17.9 -10.3 12.2z"/>
  <path d="M517.3 152.5 c-2.9 -2.1 -3.8 -6.6 -1.9 -10.3 2.5 -4.9 7.8 -5.7 12.2 -1.9 7.5 6.5 -2.2 17.9 -10.3 12.2z"/>
  <path d="M150 131.5 l0 -4.5 12.5 0 12.5 0 0 4.5 0 4.5 -12.5 0 -12.5 0 0 -4.5z"/>
  <path d="M555 131.5 l0 -4.5 12.5 0 12.5 0 0 4.5 0 4.5 -12.5 0 -12.5 0 0 -4.5z"/>
  <path d="M105.2 102.2 l-6.3 -4.7 6.8 -0.3 6.7 -0.3 5 5.1 5.1 5 -5.5 -0.1 c-4.9 -0.1 -6.2 -0.6 -11.8 -4.7z"/>
  <path d="M612.6 102 l5 -5.1 6.8 0.3 6.9 0.3 -6.9 4.8 c-6 4.1 -7.6 4.7 -11.9 4.7 l-5 0 5.1 -5z"/>
 </g>
</svg>