<?xml version="1.0" encoding="utf-8"?>
<!DOCTYPE svg PUBLIC "-//W3C//DTD SVG 1.1//EN" "http://www.w3.org/Graphics/SVG/1.1/DTD/svg11.dtd">
<svg version="1.1" xmlns="http://www.w3.org/2000/svg" width="750px" height="913px" viewBox="0 0 750 913" preserveAspectRatio="xMidYMid meet">
 <g fill="#ffffff">
  <path d="M337.6 882.4 c-0.3 -0.9 -0.6 -5.4 -0.6 -10 l0 -8.4 5.5 0 5.5 0 0 8.4 c0 11.1 -0.2 11.6 -5.5 11.6 -3 0 -4.5 -0.5 -4.9 -1.6z"/>
  <path d="M382.6 882.4 c-0.3 -0.9 -0.6 -5.4 -0.6 -10 l0 -8.4 5.5 0 5.5 0 0 8.4 c0 11.1 -0.2 11.6 -5.5 11.6 -3 0 -4.5 -0.5 -4.9 -1.6z"/>
  <path d="M295.5 826.2 c-6.2 -1.3 -8.5 -8.8 -4.2 -13.8 3.3 -3.8 8.2 -3.6 12 0.6 3.1 3.5 3.3 4.9 1.2 8.9 -1.5 3 -5.7 5 -9 4.3z"/>
  <path d="M430.5 826.2 c-6.2 -1.3 -8.5 -8.8 -4.2 -13.8 3.3 -3.8 8.2 -3.6 12 0.6 3.1 3.5 3.3 4.9 1.2 8.9 -1.5 3 -5.7 5 -9 4.3z"/>
  <path d="M247.6 786.4 c-0.3 -0.9 -0.6 -5.4 -0.6 -10 l0 -8.4 5.5 0 5.5 0 0 8.4 c0 11.1 -0.2 11.6 -5.5 11.6 -3 0 -4.5 -0.5 -4.9 -1.6z"/>
  <path d="M472.6 786.4 c-0.3 -0.9 -0.6 -5.4 -0.6 -10 l0 -8.4 5.5 0 5.5 0 0 8.4 c0 11.1 -0.2 11.6 -5.5 11.6 -3 0 -4.5 -0.5 -4.9 -1.6z"/>
  <path d="M216.1 736.3 c-0.5 -1 -5.9 -13.7 -12 -28.3 -6.1 -14.6 -11.8 -28 -12.6 -29.8 -2.6 -5.7 -2.2 -6.3 3.7 -6 l5.2 0.3 13.3 31.5 c7.3 17.3 13.3 32.1 13.3 32.8 0 2 -9.7 1.6 -10.9 -0.5z"/>
  <path d="M503 736.8 c0 -0.7 6 -15.5 13.3 -32.8 l13.3 -31.5 5.8 -0.3 c5.3 -0.3 5.8 -0.1 5.2 1.5 -0.4 1 -6.6 15.9 -13.9 33 l-13.2 31.3 -5.2 0 c-3.6 0 -5.3 -0.4 -5.3 -1.2z"/>
  <path d="M171.1 640.3 c-0.5 -1 -5.9 -13.7 -12 -28.3 -6.1 -14.6 -11.8 -28 -12.6 -29.8 -2.6 -5.7 -2.2 -6.3 3.7 -6 l5.2 0.3 13.3 31.5 c7.3 17.3 13.3 32.1 13.3 32.8 0 2 -9.7 1.6 -10.9 -0.5z"/>
  <path d="M548 640.8 c0 -0.7 6 -15.5 13.3 -32.8 l13.3 -31.5 5.8 -0.3 c5.3 -0.3 5.8 -0.1 5.2 1.5 -0.4 1 -6.6 15.9 -13.9 33 l-13.2 31.3 -5.2 0 c-3.6 0 -5.3 -0.4 -5.3 -1.2z"/>
  <path d="M126.1 544.3 c-0.5 -1 -5.9 -13.7 -12 -28.3 -6.1 -14.6 -11.8 -28 -12.6 -29.8 -2.6 -5.7 -2.2 -6.3 3.7 -6 l5.2 0.3 13.3 31.5 c7.3 17.3 13.3 32.1 13.3 32.8 0 2 -9.7 1.6 -10.9 -0.5z"/>
  <path d="M593 544.8 c0 -0.7 6 -15.5 13.3 -32.8 l13.3 -31.5 5.8 -0.3 c5.3 -0.3 5.8 -0.1 5.2 1.5 -0.4 1 -6.6 15.9 -13.9 33 l-13.2 31.3 -5.2 0 c-3.6 0 -5.3 -0.4 -5.3 -1.2z"/>
  <path d="M68 416 l0 -41 4.5 0 4.5 0 0 41 0 41 -4.5 0 -4.5 0 0 -41z"/>
  <path d="M653 416 l0 -41 4.5 0 4.5 0 0 41 0 41 -4.5 0 -4.5 0 0 -41z"/>
  <path d="M68 320 l0 -41 4.5 0 4.5 0 0 41 0 41 -4.5 0 -4.5 0 0 -41z"/>
  <path d="M653 320 l0 -41 4.5 0 4.5 0 0 41 0 41 -4.5 0 -4.5 0 0 -41z"/>
  <path d="M68 224 l0 -41 4.5 0 4.5 0 0 41 0 41 -4.5 0 -4.5 0 0 -41z"/>
  <path d="M653 224 l0 -41 4.5 0 4.5 0 0 41 0 41 -4.5 0 -4.5 0 0 -41z"/>
  <path d="M68 128 l0 -41 4.5 0 4.5 0 0 41 0 41 -4.5 0 -4.5 0 0 -41z"/>
  <path d="M230 165 l0 -4 45 0 45 0 0 4 0 4 -45 0 -45 0 0 -4z"/>
  <path d="M410 165 l0 -4 45 0 45 0 0 4 0 4 -45 0 -45 0 0 -4z"/>
  <path d="M653 128 l0 -41 4.5 0 4.5 0 0 41 0 41 -4.5 0 -4.5 0 0 -41z"/>
  <path d="M323 160.8 c0 -0.7 6 -15.5 13.3 -32.8 l13.3 -31.5 5.8 -0.3 c5.3 -0.3 5.8 -0.1 5.2 1.5 -0.4 1 -6.6 15.9 -13.9 33 l-13.2 31.3 -5.2 0 c-3.6 0 -5.3 -0.4 -5.3 -1.2z"/>
  <path d="M396.1 160.3 c-0.5 -1 -5.9 -13.7 -12 -28.3 -6.1 -14.6 -11.8 -28 -12.6 -29.8 -2.6 -5.7 -2.2 -6.3 3.7 -6 l5.2 0.3 13.3 31.5 c7.3 17.3 13.3 32.1 13.3 32.8 0 2 -9.7 1.6 -10.9 -0.5z"/>
  <path d="M205.5 154.2 c-6.2 -1.3 -8.5 -8.8 -4.2 -13.8 3.3 -3.8 8.2 -3.6 12 0.6 3.1 3.5 3.3 4.9 1.2 8.9 -1.5 3 -5.7 5 -9 4.3z"/>
  <path d="M520.5 154.2 c-6.2 -1.3 -8.5 -8.8 -4.2 -13.8 3.3 -3.8 8.2 -3.6 12 0.6 3.1 3.5 3.3 4.9 1.2 8.9 -1.5 3 -5.7 5 -9 4.3z"/>
  <path d="M150 131.5 l0 -4.5 12.5 0 12.5 0 0 4.5 0 4.5 -12.5 0 -12.5 0 0 -4.5z"/>
  <path d="M555 131.5 l0 -4.5 12.5 0 12.5 0 0 4.5 0 4.5 -12.5 0 -12.5 0 0 -4.5z"/>
  <path d="M105.2 102.8 c-3.4 -2.4 -6.2 -4.6 -6.2 -5 0 -0.3 3 -0.8 6.8 -1 l6.7 -0.3 5.5 5.2 5.5 5.3 -6 0 c-5.5 0 -6.7 -0.4 -12.3 -4.2z"/>
  <path d="M611.7 101.8 l5.1 -5.1 7.4 0.2 c4 0.1 7.4 0.4 7.6 0.6 0.2 0.2 -2.7 2.4 -6.5 4.9 -6.2 4.2 -7.3 4.6 -12.8 4.6 l-6 0 5.2 -5.2z"/>
 </g>
</svg>