<?xml version="1.0" encoding="utf-8"?>
<!DOCTYPE svg PUBLIC "-//W3C//DTD SVG 1.1//EN" "http://www.w3.org/Graphics/SVG/1.1/DTD/svg11.dtd">
<svg version="1.1" xmlns="http://www.w3.org/2000/svg" width="630px" height="891px" viewBox="0 0 630 891" preserveAspectRatio="xMidYMid meet">
 <g fill="#000000">
  <path d="M276.2 826.7 l-5.2 -4.2 4.2 -0.3 c3.8 -0.3 4.5 0.1 8.7 4.2 l4.6 4.6 -3.5 -0.1 c-2.5 0 -5 -1.2 -8.8 -4.2z"/>
  <path d="M317.2 826.7 l-5.2 -4.2 4.2 -0.3 c3.8 -0.3 4.5 0.1 8.7 4.2 l4.6 4.6 -3.5 -0.1 c-2.5 0 -5 -1.2 -8.8 -4.2z"/>
  <path d="M282 763.5 l0 -37.5 2.5 0 2.5 0 0 37.5 0 37.5 -2.5 0 -2.5 0 0 -37.5z"/>
  <path d="M323 763.5 l0 -37.5 2.5 0 2.5 0 0 37.5 0 37.5 -2.5 0 -2.5 0 0 -37.5z"/>
  <path d="M239 785 c-1.1 -1.1 -2 -2.9 -2 -4 0 -2.7 3.5 -6 6.3 -6 5 0 7.6 7 3.9 10.3 -2.5 2.3 -5.8 2.1 -8.2 -0.3z"/>
  <path d="M362 785 c-1.1 -1.1 -2 -2.9 -2 -4 0 -2.7 3.5 -6 6.3 -6 5 0 7.6 7 3.9 10.3 -2.5 2.3 -5.8 2.1 -8.2 -0.3z"/>
  <path d="M198.8 742.5 l-0.3 -8.5 4.4 0 c4 0 4.3 0.2 3.7 2.3 -0.3 1.2 -0.6 5 -0.6 8.5 l0 6.2 -3.4 0 -3.5 0 -0.3 -8.5z"/>
  <path d="M403.8 742.5 l-0.3 -8.5 4.4 0 c4 0 4.3 0.2 3.7 2.3 -0.3 1.2 -0.6 5 -0.6 8.5 l0 6.2 -3.4 0 -3.5 0 -0.3 -8.5z"/>
  <path d="M282 675.5 l0 -37.5 2.5 0 2.5 0 0 37.5 0 37.5 -2.5 0 -2.5 0 0 -37.5z"/>
  <path d="M323 675.5 l0 -37.5 2.5 0 2.5 0 0 37.5 0 37.5 -2.5 0 -2.5 0 0 -37.5z"/>
  <path d="M171.3 704.3 c-0.4 -1 -6 -14.4 -12.4 -29.8 -11.7 -27.9 -11.7 -28 -9.2 -28.3 1.4 -0.2 2.7 -0.1 3 0.2 0.4 0.4 21.6 50.3 24.4 57.4 0.8 2 0.6 2.2 -2.2 2.2 -1.9 0 -3.2 -0.6 -3.6 -1.7z"/>
  <path d="M433 705.3 c0 -0.4 5.5 -14 12.2 -30 11.9 -28.5 12.3 -29.3 15 -29.3 1.5 0 2.8 0.3 2.7 0.8 0 0.4 -5.5 13.8 -12.2 29.7 -11.5 27.3 -12.4 29 -15 29.3 -1.5 0.2 -2.7 0 -2.7 -0.5z"/>
  <path d="M282 587.5 l0 -37.5 2.5 0 2.5 0 0 37.5 0 37.5 -2.5 0 -2.5 0 0 -37.5z"/>
  <path d="M323 587.5 l0 -37.5 2.5 0 2.5 0 0 37.5 0 37.5 -2.5 0 -2.5 0 0 -37.5z"/>
  <path d="M130.3 616.3 c-0.4 -1 -6 -14.4 -12.4 -29.8 -11.7 -27.9 -11.7 -28 -9.2 -28.3 1.4 -0.2 2.7 -0.1 3 0.2 0.4 0.4 21.6 50.3 24.4 57.4 0.8 2 0.6 2.2 -2.2 2.2 -1.9 0 -3.2 -0.6 -3.6 -1.7z"/>
  <path d="M474 617.3 c0 -0.4 5.5 -14 12.2 -30 11.9 -28.5 12.3 -29.3 15 -29.3 1.5 0 2.8 0.3 2.7 0.8 0 0.4 -5.5 13.8 -12.2 29.7 -11.5 27.3 -12.4 29 -15 29.3 -1.5 0.2 -2.7 0 -2.7 -0.5z"/>
  <path d="M89.3 528.3 c-0.4 -1 -6 -14.4 -12.4 -29.8 -11.7 -27.9 -11.7 -28 -9.2 -28.3 1.4 -0.2 2.7 -0.1 3 0.2 0.4 0.4 21.6 50.3 24.4 57.4 0.8 2 0.6 2.2 -2.2 2.2 -1.9 0 -3.2 -0.6 -3.6 -1.7z"/>
  <path d="M294.3 528.3 c-0.4 -1 -6 -14.4 -12.4 -29.8 -11.7 -27.9 -11.7 -28 -9.2 -28.3 1.4 -0.2 2.7 -0.1 3 0.2 0.4 0.4 21.6 50.3 24.4 57.4 0.8 2 0.6 2.2 -2.2 2.2 -1.9 0 -3.2 -0.6 -3.6 -1.7z"/>
  <path d="M310 529.3 c0 -0.4 5.5 -14 12.2 -30 11.9 -28.5 12.3 -29.3 15 -29.3 1.5 0 2.8 0.3 2.7 0.8 0 0.4 -5.5 13.8 -12.2 29.7 -11.5 27.3 -12.4 29 -15 29.3 -1.5 0.2 -2.7 0 -2.7 -0.5z"/>
  <path d="M515 529.3 c0 -0.4 5.5 -14 12.2 -30 11.9 -28.5 12.3 -29.3 15 -29.3 1.5 0 2.8 0.3 2.7 0.8 0 0.4 -5.5 13.8 -12.2 29.7 -11.5 27.3 -12.4 29 -15 29.3 -1.5 0.2 -2.7 0 -2.7 -0.5z"/>
  <path d="M235.3 521.1 c-11 -5.1 -11.9 -26.6 -1.4 -34.1 7.8 -5.5 20.1 -2.8 24.2 5.2 2.9 5.6 3.1 15.6 0.4 21.1 -4 8.4 -14.4 11.9 -23.2 7.8z m13.9 -5.1 c3.8 -2.9 5.1 -7.1 4.6 -14.6 -0.4 -6 -0.7 -7 -3.6 -9.5 -5.4 -4.8 -12.3 -3.5 -15.7 3.1 -0.8 1.6 -1.5 5.4 -1.5 8.5 0 9 4 14.5 10.6 14.5 1.7 0 4.3 -0.9 5.6 -2z"/>
  <path d="M358.3 521.1 c-11 -5.1 -11.9 -26.6 -1.4 -34.1 7.8 -5.5 20.1 -2.8 24.2 5.2 2.9 5.6 3.1 15.6 0.4 21.1 -4 8.4 -14.4 11.9 -23.2 7.8z m13.9 -5.1 c3.8 -2.9 5.1 -7.1 4.6 -14.6 -0.4 -6 -0.7 -7 -3.6 -9.5 -5.4 -4.8 -12.3 -3.5 -15.7 3.1 -0.8 1.6 -1.5 5.4 -1.5 8.5 0 9 4 14.5 10.6 14.5 1.7 0 4.3 -0.9 5.6 -2z"/>
  <path d="M204.6 444.4 c-5.7 -7 -8.1 -11.5 -10.1 -19.1 -3.7 -14.2 -0.3 -27.7 10.2 -40.6 4.6 -5.7 4.7 -5.7 6.6 -3.8 2 1.9 1.9 2 -1.5 6.3 -13.6 16.7 -13.7 36.8 -0.4 54.2 3.8 4.8 3.8 4.9 1.8 6.8 -1.9 2 -2 1.9 -6.6 -3.8z"/>
  <path d="M245.6 444.4 c-5.7 -7 -8.1 -11.5 -10.1 -19.1 -3.7 -14.2 -0.3 -27.7 10.2 -40.6 4.6 -5.7 4.7 -5.7 6.6 -3.8 2 1.9 1.9 2 -1.5 6.3 -13.6 16.7 -13.7 36.8 -0.4 54.2 3.8 4.8 3.8 4.9 1.8 6.8 -1.9 2 -2 1.9 -6.6 -3.8z"/>
  <path d="M77 411.5 l0 -37.5 2.5 0 2.5 0 0 37.5 0 37.5 -2.5 0 -2.5 0 0 -37.5z"/>
  <path d="M100 446.5 l0 -2.5 41 0 41 0 0 2.5 0 2.5 -41 0 -41 0 0 -2.5z"/>
  <path d="M357 447.5 c-1 -1.2 -0.5 -2.2 2.3 -5.7 13.5 -16.6 13.6 -36.9 0.3 -54.2 -3.8 -4.8 -3.8 -4.9 -1.8 -6.8 1.9 -1.9 1.9 -1.9 6.2 3.4 6 7.6 8.7 12.5 10.4 19.3 3.8 14.3 0.6 27.4 -9.9 40.5 -4.2 5.3 -5.5 5.9 -7.5 3.5z"/>
  <path d="M398 447.5 c-1 -1.2 -0.5 -2.2 2.3 -5.7 13.5 -16.6 13.6 -36.9 0.3 -54.2 -3.8 -4.8 -3.8 -4.9 -1.8 -6.8 1.9 -1.9 1.9 -1.9 6.2 3.4 6 7.6 8.7 12.5 10.4 19.3 3.8 14.3 0.6 27.4 -9.9 40.5 -4.2 5.3 -5.5 5.9 -7.5 3.5z"/>
  <path d="M428 446.5 l0 -2.5 41 0 41 0 0 2.5 0 2.5 -41 0 -41 0 0 -2.5z"/>
  <path d="M528 411.5 l0 -37.5 2.5 0 2.5 0 0 37.5 0 37.5 -2.5 0 -2.5 0 0 -37.5z"/>
  <path d="M281.5 424.9 c-6.6 -5.5 -11.9 -10.2 -11.8 -10.5 0.1 -0.4 5.4 -5 12 -10.4 11 -9.2 11.9 -9.8 13.5 -8.3 1 0.9 1.8 1.9 1.8 2.3 0 0.3 -4 3.9 -9 7.9 -4.9 4 -9.2 7.6 -9.5 8.1 -0.3 0.4 3.4 4.1 8.3 8.1 4.8 4 9.1 7.6 9.7 8.1 0.6 0.5 0.2 1.6 -1 2.8 -2 1.9 -2.1 1.8 -14 -8.1z"/>
  <path d="M314.5 433 c-1 -1.1 -1.6 -2.1 -1.4 -2.3 2.2 -1.7 18.9 -15.9 18.9 -16.2 0 -0.1 -3.9 -3.6 -8.7 -7.6 -4.9 -4 -9.2 -7.6 -9.8 -8.1 -0.6 -0.5 -0.2 -1.6 1.1 -2.8 1.9 -2 2 -2 13.7 7.9 6.5 5.5 11.8 10.3 11.6 10.8 -0.1 0.6 -14.8 13.4 -22 19 -1.3 1.1 -1.9 0.9 -3.4 -0.7z"/>
  <path d="M286.6 356.4 c-5.7 -7 -8.1 -11.5 -10.1 -19.1 -3.7 -14.2 -0.3 -27.7 10.2 -40.6 4.6 -5.7 4.7 -5.7 6.6 -3.8 2 1.9 1.9 2 -1.5 6.3 -13.6 16.7 -13.7 36.8 -0.4 54.2 3.8 4.8 3.8 4.9 1.8 6.8 -1.9 2 -2 1.9 -6.6 -3.8z"/>
  <path d="M77 323.5 l0 -37.5 2.5 0 2.5 0 0 37.5 0 37.5 -2.5 0 -2.5 0 0 -37.5z"/>
  <path d="M100 358.5 l0 -2.5 61.5 0 61.5 0 0 2.5 0 2.5 -61.5 0 -61.5 0 0 -2.5z"/>
  <path d="M316 359.5 c-1 -1.2 -0.5 -2.2 2.3 -5.7 13.5 -16.6 13.6 -36.9 0.3 -54.2 -3.8 -4.8 -3.8 -4.9 -1.8 -6.8 1.9 -1.9 1.9 -1.9 6.2 3.4 6 7.6 8.7 12.5 10.4 19.3 3.8 14.3 0.6 27.4 -9.9 40.5 -4.2 5.3 -5.5 5.9 -7.5 3.5z"/>
  <path d="M387 358.5 l0 -2.5 61.5 0 61.5 0 0 2.5 0 2.5 -61.5 0 -61.5 0 0 -2.5z"/>
  <path d="M528 323.5 l0 -37.5 2.5 0 2.5 0 0 37.5 0 37.5 -2.5 0 -2.5 0 0 -37.5z"/>
  <path d="M235.3 345.1 c-11 -5.1 -11.9 -26.6 -1.4 -34.1 7.8 -5.5 20.1 -2.8 24.2 5.2 2.9 5.6 3.1 15.6 0.4 21.1 -4 8.4 -14.4 11.9 -23.2 7.8z m13.9 -5.1 c3.8 -2.9 5.1 -7.1 4.6 -14.6 -0.4 -6 -0.7 -7 -3.6 -9.5 -5.4 -4.8 -12.3 -3.5 -15.7 3.1 -0.8 1.6 -1.5 5.4 -1.5 8.5 0 9 4 14.5 10.6 14.5 1.7 0 4.3 -0.9 5.6 -2z"/>
  <path d="M358.3 345.1 c-11 -5.1 -11.9 -26.6 -1.4 -34.1 7.8 -5.5 20.1 -2.8 24.2 5.2 2.9 5.6 3.1 15.6 0.4 21.1 -4 8.4 -14.4 11.9 -23.2 7.8z m13.9 -5.1 c3.8 -2.9 5.1 -7.1 4.6 -14.6 -0.4 -6 -0.7 -7 -3.6 -9.5 -5.4 -4.8 -12.3 -3.5 -15.7 3.1 -0.8 1.6 -1.5 5.4 -1.5 8.5 0 9 4 14.5 10.6 14.5 1.7 0 4.3 -0.9 5.6 -2z"/>
  <path d="M77 235.5 l0 -37.5 2.5 0 2.5 0 0 37.5 0 37.5 -2.5 0 -2.5 0 0 -37.5z"/>
  <path d="M282 235.5 l0 -37.5 2.5 0 2.5 0 0 37.5 0 37.5 -2.5 0 -2.5 0 0 -37.5z"/>
  <path d="M323 235.5 l0 -37.5 2.5 0 2.5 0 0 37.5 0 37.5 -2.5 0 -2.5 0 0 -37.5z"/>
  <path d="M528 235.5 l0 -37.5 2.5 0 2.5 0 0 37.5 0 37.5 -2.5 0 -2.5 0 0 -37.5z"/>
  <path d="M77 147.5 l0 -37.5 2.5 0 2.5 0 0 37.5 0 37.5 -2.5 0 -2.5 0 0 -37.5z"/>
  <path d="M223 182.5 l0 -2.5 20.5 0 20.5 0 0 2.5 0 2.5 -20.5 0 -20.5 0 0 -2.5z"/>
  <path d="M346 182.5 l0 -2.5 20.5 0 20.5 0 0 2.5 0 2.5 -20.5 0 -20.5 0 0 -2.5z"/>
  <path d="M528 147.5 l0 -37.5 2.5 0 2.5 0 0 37.5 0 37.5 -2.5 0 -2.5 0 0 -37.5z"/>
  <path d="M269 177.3 c0 -0.4 5.5 -14 12.2 -30 11.9 -28.5 12.3 -29.3 15 -29.3 1.5 0 2.8 0.3 2.7 0.8 0 0.4 -5.5 13.8 -12.2 29.7 -11.5 27.3 -12.4 29 -15 29.3 -1.5 0.2 -2.7 0 -2.7 -0.5z"/>
  <path d="M335.3 176.3 c-0.4 -1 -6 -14.4 -12.4 -29.8 -11.7 -27.9 -11.7 -28 -9.2 -28.3 1.4 -0.2 2.7 -0.1 3 0.2 0.4 0.4 21.6 50.3 24.4 57.4 0.8 2 0.6 2.2 -2.2 2.2 -1.9 0 -3.2 -0.6 -3.6 -1.7z"/>
  <path d="M198 169 c-1.1 -1.1 -2 -2.9 -2 -4 0 -2.7 3.5 -6 6.3 -6 5 0 7.6 7 3.9 10.3 -2.5 2.3 -5.8 2.1 -8.2 -0.3z"/>
  <path d="M403 169 c-1.1 -1.1 -2 -2.9 -2 -4 0 -2.7 3.5 -6 6.3 -6 5 0 7.6 7 3.9 10.3 -2.5 2.3 -5.8 2.1 -8.2 -0.3z"/>
  <path d="M151 150 l0 -3 11 0 11 0 0 3 0 3 -11 0 -11 0 0 -3z"/>
  <path d="M438 150 l0 -3 11 0 11 0 0 3 0 3 -11 0 -11 0 0 -3z"/>
  <path d="M112.2 122.7 l-5.2 -4.2 4.2 -0.3 c3.8 -0.3 4.5 0.1 8.7 4.2 l4.6 4.6 -3.5 -0.1 c-2.5 0 -5 -1.2 -8.8 -4.2z"/>
  <path d="M481.2 122.7 l-5.2 -4.2 4.2 -0.3 c3.8 -0.3 4.5 0.1 8.7 4.2 l4.6 4.6 -3.5 -0.1 c-2.5 0 -5 -1.2 -8.8 -4.2z"/>
 </g>
</svg>