<?xml version="1.0" encoding="utf-8"?>
<!DOCTYPE svg PUBLIC "-//W3C//DTD SVG 1.1//EN" "http://www.w3.org/Graphics/SVG/1.1/DTD/svg11.dtd">
<svg version="1.1" xmlns="http://www.w3.org/2000/svg" width="911px" height="658px" viewBox="0 0 911 658" preserveAspectRatio="xMidYMid meet">
 <g fill="#000000">
  <path d="M358.6 573.5 c-0.9 -0.9 -1.6 -2 -1.6 -2.5 0 -1.5 3.2 -4.1 4.8 -3.8 2.4 0.5 3.9 3.5 2.6 5.6 -1.5 2.3 -3.8 2.6 -5.8 0.7z"/>
  <path d="M603 555.9 l0 -4.1 -3.4 2 c-2.8 1.7 -3.5 1.8 -4 0.6 -0.4 -0.9 0.7 -1.9 3.2 -3 l3.7 -1.6 -3.9 -2 c-2.7 -1.4 -3.5 -2.3 -2.8 -3 0.8 -0.8 1.8 -0.6 3.6 0.6 3.5 2.2 3.6 2.1 3.6 -2.4 0 -2.9 0.4 -4 1.5 -4 1.1 0 1.5 1.1 1.5 4 0 2.2 0.3 4 0.6 4 0.3 0 1.9 -0.9 3.4 -2 2.4 -1.7 2.9 -1.8 3.4 -0.5 0.3 1 -0.7 2.1 -3.2 3.4 l-3.7 1.9 3.8 1.5 c2.5 1.1 3.5 2.1 3.1 3.1 -0.5 1.2 -1.1 1.1 -4 -0.6 l-3.4 -2 0 4.1 c0 3 -0.4 4.1 -1.5 4.1 -1.1 0 -1.5 -1.1 -1.5 -4.1z"/>
  <path d="M494.7 549.3 c-0.4 -0.3 -0.7 -2.8 -0.7 -5.5 0 -4.5 0.2 -4.8 2.5 -4.8 2.4 0 2.5 0.3 2.5 5.5 0 4.7 -0.3 5.5 -1.8 5.5 -1 0 -2.2 -0.3 -2.5 -0.7z"/>
  <path d="M142.6 514.5 c-0.9 -0.9 -1.6 -2 -1.6 -2.5 0 -1.5 3.2 -4.1 4.8 -3.8 2.4 0.5 3.9 3.5 2.6 5.6 -1.5 2.3 -3.8 2.6 -5.8 0.7z"/>
  <path d="M279 496.9 l0 -4.1 -3.4 2 c-2.8 1.7 -3.5 1.8 -4 0.6 -0.4 -0.9 0.7 -1.9 3.2 -3 l3.7 -1.6 -3.9 -2 c-2.7 -1.4 -3.5 -2.3 -2.8 -3 0.8 -0.8 1.8 -0.6 3.6 0.6 3.5 2.2 3.6 2.1 3.6 -2.4 0 -2.9 0.4 -4 1.5 -4 1.1 0 1.5 1.1 1.5 4 0 2.2 0.3 4 0.6 4 0.3 0 1.9 -0.9 3.4 -2 2.4 -1.7 2.9 -1.8 3.4 -0.5 0.3 1 -0.7 2.1 -3.2 3.4 l-3.7 1.9 3.8 1.5 c2.5 1.1 3.5 2.1 3.1 3.1 -0.5 1.2 -1.1 1.1 -4 -0.6 l-3.4 -2 0 4.1 c0 3 -0.4 4.1 -1.5 4.1 -1.1 0 -1.5 -1.1 -1.5 -4.1z"/>
  <path d="M412.6 455.5 c-0.9 -0.9 -1.6 -2 -1.6 -2.5 0 -1.5 3.2 -4.1 4.8 -3.8 2.4 0.5 3.9 3.5 2.6 5.6 -1.5 2.3 -3.8 2.6 -5.8 0.7z"/>
  <path d="M439.6 455.5 c-0.9 -0.9 -1.6 -2 -1.6 -2.5 0 -1.5 3.2 -4.1 4.8 -3.8 2.4 0.5 3.9 3.5 2.6 5.6 -1.5 2.3 -3.8 2.6 -5.8 0.7z"/>
  <path d="M466.6 455.5 c-0.9 -0.9 -1.6 -2 -1.6 -2.5 0 -1.5 3.2 -4.1 4.8 -3.8 2.4 0.5 3.9 3.5 2.6 5.6 -1.5 2.3 -3.8 2.6 -5.8 0.7z"/>
  <path d="M711 450 l0 -5 -5 0 c-4.3 0 -5 -0.3 -5 -2 0 -1.7 0.7 -2 5 -2 l5 0 0 -5 c0 -4.3 0.3 -5 2 -5 1.7 0 2 0.7 2 5 l0 5 4.5 0 c3.8 0 4.5 0.3 4.5 2 0 1.7 -0.7 2 -4.5 2 l-4.5 0 0 5 c0 4.3 -0.3 5 -2 5 -1.7 0 -2 -0.7 -2 -5z"/>
  <path d="M382 443 c0 -1.8 0.7 -2 7 -2 6.3 0 7 0.2 7 2 0 1.8 -0.7 2 -7 2 -6.3 0 -7 -0.2 -7 -2z"/>
  <path d="M490 443 c0 -1.8 0.7 -2 7 -2 6.3 0 7 0.2 7 2 0 1.8 -0.7 2 -7 2 -6.3 0 -7 -0.2 -7 -2z"/>
  <path d="M521.7 431.3 c-0.4 -0.3 -0.7 -2.8 -0.7 -5.5 0 -4.5 0.2 -4.8 2.5 -4.8 2.4 0 2.5 0.3 2.5 5.5 0 4.7 -0.3 5.5 -1.8 5.5 -1 0 -2.2 -0.3 -2.5 -0.7z"/>
  <path d="M602.7 431.3 c-0.4 -0.3 -0.7 -2.8 -0.7 -5.5 0 -4.5 0.2 -4.8 2.5 -4.8 2.4 0 2.5 0.3 2.5 5.5 0 4.7 -0.3 5.5 -1.8 5.5 -1 0 -2.2 -0.3 -2.5 -0.7z"/>
  <path d="M356 424 l-3.4 -3 3 0 c2.8 0 4.9 1.5 6.8 4.8 1.4 2.3 -2.9 1.2 -6.4 -1.8z"/>
  <path d="M402 405 c0 -2 0.7 -2 27 -2 26.3 0 27 0 27 2 0 2 -0.7 2 -27 2 -26.3 0 -27 0 -27 -2z"/>
  <path d="M314.2 400.3 c-0.6 -1 -3.7 -8.3 -7 -16.3 -3.3 -8 -6.8 -16.2 -7.7 -18.3 -1.6 -3.8 -1.5 -3.8 0.5 -3.5 1.7 0.2 3.6 3.9 10.1 19.2 4.3 10.4 7.9 19.3 7.9 19.8 0 1.5 -2.9 0.8 -3.8 -0.9z"/>
  <path d="M568.8 397.7 c10.4 -26.1 14.8 -35.7 16.5 -35.7 0.9 0 1.7 0.3 1.7 0.6 0 0.4 -3.7 9.4 -8.1 20 -6.4 15.3 -8.5 19.4 -10 19.4 -1.8 0 -1.8 -0.2 -0.1 -4.3z"/>
  <path d="M332 396.5 c-2.6 -3.1 1.3 -8.2 4.4 -5.6 1.9 1.6 2.1 4.2 0.4 5.9 -1.6 1.6 -3.3 1.5 -4.8 -0.3z"/>
  <path d="M385.6 396.5 c-0.9 -0.9 -1.6 -2 -1.6 -2.5 0 -1.5 3.2 -4.1 4.8 -3.8 2.4 0.5 3.9 3.5 2.6 5.6 -1.5 2.3 -3.8 2.6 -5.8 0.7z"/>
  <path d="M466.6 396.5 c-0.9 -0.9 -1.6 -2 -1.6 -2.5 0 -1.5 3.2 -4.1 4.8 -3.8 2.4 0.5 3.9 3.5 2.6 5.6 -1.5 2.3 -3.8 2.6 -5.8 0.7z"/>
  <path d="M548 396.5 c-2.6 -3.1 1.3 -8.2 4.4 -5.6 1.9 1.6 2.1 4.2 0.4 5.9 -1.6 1.6 -3.3 1.5 -4.8 -0.3z"/>
  <path d="M171 391 l0 -5 -5 0 c-4.3 0 -5 -0.3 -5 -2 0 -1.7 0.7 -2 5 -2 l5 0 0 -5 c0 -4.3 0.3 -5 2 -5 1.7 0 2 0.7 2 5 l0 5 4.5 0 c3.8 0 4.5 0.3 4.5 2 0 1.7 -0.7 2 -4.5 2 l-4.5 0 0 5 c0 4.3 -0.3 5 -2 5 -1.7 0 -2 -0.7 -2 -5z"/>
  <path d="M332 377.5 c-2.6 -3.1 1.3 -8.2 4.4 -5.6 1.9 1.6 2.1 4.2 0.4 5.9 -1.6 1.6 -3.3 1.5 -4.8 -0.3z"/>
  <path d="M548 377.5 c-2.6 -3.1 1.3 -8.2 4.4 -5.6 1.9 1.6 2.1 4.2 0.4 5.9 -1.6 1.6 -3.3 1.5 -4.8 -0.3z"/>
  <path d="M359.7 372.3 c-0.4 -0.3 -0.7 -2.8 -0.7 -5.5 0 -4.5 0.2 -4.8 2.5 -4.8 2.4 0 2.5 0.3 2.5 5.5 0 4.7 -0.3 5.5 -1.8 5.5 -1 0 -2.2 -0.3 -2.5 -0.7z"/>
  <path d="M494.7 372.3 c-0.4 -0.3 -0.7 -2.8 -0.7 -5.5 0 -4.5 0.2 -4.8 2.5 -4.8 2.4 0 2.5 0.3 2.5 5.5 0 4.7 -0.3 5.5 -1.8 5.5 -1 0 -2.2 -0.3 -2.5 -0.7z"/>
  <path d="M791.7 372.3 c-0.4 -0.3 -0.7 -2.8 -0.7 -5.5 0 -4.5 0.2 -4.8 2.5 -4.8 2.4 0 2.5 0.3 2.5 5.5 0 4.7 -0.3 5.5 -1.8 5.5 -1 0 -2.2 -0.3 -2.5 -0.7z"/>
  <path d="M84.9 347.5 c-10.2 -5.5 -8.1 -35.9 3 -43.2 4.7 -3.1 8.6 -3 12.1 0.5 6.7 6.7 6.1 29.5 -0.8 31.7 -2.3 0.7 -5.2 -0.3 -5.2 -1.8 0 -0.5 -0.8 -0.3 -1.8 0.6 -1 1 -2.6 1.7 -3.5 1.7 -5.5 0 -4.6 -17.8 1.1 -20.9 1.1 -0.6 3.4 -0.9 5.2 -0.8 l3.2 0.2 -0.7 6 c-1.1 9.5 -1.1 10.8 0.2 11.2 2 0.7 3.3 -4.2 3.3 -12.3 0 -9.2 -1.8 -14.1 -5.6 -15 -4 -1 -7.4 1.3 -10.3 7 -2 3.9 -2.6 6.7 -2.9 14.1 -0.7 15.6 2.3 20.4 11.9 19.1 3.9 -0.5 5 -0.4 4.7 0.6 -0.9 2.7 -9.8 3.5 -13.9 1.3z"/>
  <path d="M279 323 c0 -21.6 0.2 -25 1.5 -25 1.3 0 1.5 3.4 1.5 25 0 21.6 -0.2 25 -1.5 25 -1.3 0 -1.5 -3.4 -1.5 -25z"/>
  <path d="M429 346 c0 -1.9 0.7 -2 13.5 -2 12.8 0 13.5 0.1 13.5 2 0 1.9 -0.7 2 -13.5 2 -12.8 0 -13.5 -0.1 -13.5 -2z"/>
  <path d="M603 323 c0 -21.6 0.2 -25 1.5 -25 1.3 0 1.5 3.4 1.5 25 0 21.6 -0.2 25 -1.5 25 -1.3 0 -1.5 -3.4 -1.5 -25z"/>
  <path d="M305 337.5 c-2.6 -3.1 1.3 -8.2 4.4 -5.6 1.9 1.6 2.1 4.2 0.4 5.9 -1.6 1.6 -3.3 1.5 -4.8 -0.3z"/>
  <path d="M332 337.5 c-2.6 -3.1 1.3 -8.2 4.4 -5.6 1.9 1.6 2.1 4.2 0.4 5.9 -1.6 1.6 -3.3 1.5 -4.8 -0.3z"/>
  <path d="M412.6 337.5 c-0.9 -0.9 -1.6 -2 -1.6 -2.5 0 -1.5 3.2 -4.1 4.8 -3.8 2.4 0.5 3.9 3.5 2.6 5.6 -1.5 2.3 -3.8 2.6 -5.8 0.7z"/>
  <path d="M521 337.5 c-2.6 -3.1 1.3 -8.2 4.4 -5.6 1.9 1.6 2.1 4.2 0.4 5.9 -1.6 1.6 -3.3 1.5 -4.8 -0.3z"/>
  <path d="M575 337.5 c-2.6 -3.1 1.3 -8.2 4.4 -5.6 1.9 1.6 2.1 4.2 0.4 5.9 -1.6 1.6 -3.3 1.5 -4.8 -0.3z"/>
  <path d="M655.6 337.5 c-0.9 -0.9 -1.6 -2 -1.6 -2.5 0 -1.5 3.2 -4.1 4.8 -3.8 2.4 0.5 3.9 3.5 2.6 5.6 -1.5 2.3 -3.8 2.6 -5.8 0.7z"/>
  <path d="M305 318.5 c-2.6 -3.1 1.3 -8.2 4.4 -5.6 1.9 1.6 2.1 4.2 0.4 5.9 -1.6 1.6 -3.3 1.5 -4.8 -0.3z"/>
  <path d="M332 318.5 c-2.6 -3.1 1.3 -8.2 4.4 -5.6 1.9 1.6 2.1 4.2 0.4 5.9 -1.6 1.6 -3.3 1.5 -4.8 -0.3z"/>
  <path d="M521 318.5 c-2.6 -3.1 1.3 -8.2 4.4 -5.6 1.9 1.6 2.1 4.2 0.4 5.9 -1.6 1.6 -3.3 1.5 -4.8 -0.3z"/>
  <path d="M575 318.5 c-2.6 -3.1 1.3 -8.2 4.4 -5.6 1.9 1.6 2.1 4.2 0.4 5.9 -1.6 1.6 -3.3 1.5 -4.8 -0.3z"/>
  <path d="M386.7 313.3 c-0.4 -0.3 -0.7 -2.8 -0.7 -5.5 0 -4.5 0.2 -4.8 2.5 -4.8 2.4 0 2.5 0.3 2.5 5.5 0 4.7 -0.3 5.5 -1.8 5.5 -1 0 -2.2 -0.3 -2.5 -0.7z"/>
  <path d="M467.7 313.3 c-0.4 -0.3 -0.7 -2.8 -0.7 -5.5 0 -4.5 0.2 -4.8 2.5 -4.8 2.4 0 2.5 0.3 2.5 5.5 0 4.7 -0.3 5.5 -1.8 5.5 -1 0 -2.2 -0.3 -2.5 -0.7z"/>
  <path d="M279 264 c0 -21.6 0.2 -25 1.5 -25 1.3 0 1.5 3.4 1.5 25 0 21.6 -0.2 25 -1.5 25 -1.3 0 -1.5 -3.4 -1.5 -25z"/>
  <path d="M429 287 c0 -1.9 0.7 -2 13.5 -2 12.8 0 13.5 0.1 13.5 2 0 1.9 -0.7 2 -13.5 2 -12.8 0 -13.5 -0.1 -13.5 -2z"/>
  <path d="M603 264 c0 -21.6 0.2 -25 1.5 -25 1.3 0 1.5 3.4 1.5 25 0 21.6 -0.2 25 -1.5 25 -1.3 0 -1.5 -3.4 -1.5 -25z"/>
  <path d="M223.6 278.5 c-0.9 -0.9 -1.6 -2 -1.6 -2.5 0 -1.5 3.2 -4.1 4.8 -3.8 2.4 0.5 3.9 3.5 2.6 5.6 -1.5 2.3 -3.8 2.6 -5.8 0.7z"/>
  <path d="M305 278.5 c-2.6 -3.1 1.3 -8.2 4.4 -5.6 1.9 1.6 2.1 4.2 0.4 5.9 -1.6 1.6 -3.3 1.5 -4.8 -0.3z"/>
  <path d="M332 278.5 c-2.6 -3.1 1.3 -8.2 4.4 -5.6 1.9 1.6 2.1 4.2 0.4 5.9 -1.6 1.6 -3.3 1.5 -4.8 -0.3z"/>
  <path d="M385.6 278.5 c-0.9 -0.9 -1.6 -2 -1.6 -2.5 0 -1.5 3.2 -4.1 4.8 -3.8 2.4 0.5 3.9 3.5 2.6 5.6 -1.5 2.3 -3.8 2.6 -5.8 0.7z"/>
  <path d="M520.6 278.5 c-0.9 -0.9 -1.6 -2 -1.6 -2.5 0 -1.5 3.2 -4.1 4.8 -3.8 2.4 0.5 3.9 3.5 2.6 5.6 -1.5 2.3 -3.8 2.6 -5.8 0.7z"/>
  <path d="M575 278.5 c-2.6 -3.1 1.3 -8.2 4.4 -5.6 1.9 1.6 2.1 4.2 0.4 5.9 -1.6 1.6 -3.3 1.5 -4.8 -0.3z"/>
  <path d="M711 260.9 l0 -4.1 -3.4 2 c-2.8 1.7 -3.5 1.8 -4 0.6 -0.4 -0.9 0.7 -1.9 3.2 -3 l3.7 -1.6 -3.9 -2 c-2.7 -1.4 -3.5 -2.3 -2.8 -3 0.8 -0.8 1.8 -0.6 3.6 0.6 3.5 2.2 3.6 2.1 3.6 -2.4 0 -2.9 0.4 -4 1.5 -4 1.1 0 1.5 1.1 1.5 4 0 2.2 0.3 4 0.6 4 0.3 0 1.9 -0.9 3.4 -2 2.4 -1.7 2.9 -1.8 3.4 -0.5 0.3 1 -0.7 2.1 -3.2 3.4 l-3.7 1.9 3.8 1.5 c2.5 1.1 3.5 2.1 3.1 3.1 -0.5 1.2 -1.1 1.1 -4 -0.6 l-3.4 -2 0 4.1 c0 3 -0.4 4.1 -1.5 4.1 -1.1 0 -1.5 -1.1 -1.5 -4.1z"/>
  <path d="M305 259.5 c-2.6 -3.1 1.3 -8.2 4.4 -5.6 1.9 1.6 2.1 4.2 0.4 5.9 -1.6 1.6 -3.3 1.5 -4.8 -0.3z"/>
  <path d="M332 259.5 c-2.6 -3.1 1.3 -8.2 4.4 -5.6 1.9 1.6 2.1 4.2 0.4 5.9 -1.6 1.6 -3.3 1.5 -4.8 -0.3z"/>
  <path d="M575 259.5 c-2.6 -3.1 1.3 -8.2 4.4 -5.6 1.9 1.6 2.1 4.2 0.4 5.9 -1.6 1.6 -3.3 1.5 -4.8 -0.3z"/>
  <path d="M413.7 254.3 c-0.4 -0.3 -0.7 -2.8 -0.7 -5.5 0 -4.5 0.2 -4.8 2.5 -4.8 2.4 0 2.5 0.3 2.5 5.5 0 4.7 -0.3 5.5 -1.8 5.5 -1 0 -2.2 -0.3 -2.5 -0.7z"/>
  <path d="M491 247 l-3.4 -3 3 0 c2.8 0 4.9 1.5 6.8 4.8 1.4 2.3 -2.9 1.2 -6.4 -1.8z"/>
  <path d="M429 228 c0 -2 0.7 -2 27 -2 26.3 0 27 0 27 2 0 2 -0.7 2 -27 2 -26.3 0 -27 0 -27 -2z"/>
  <path d="M298.8 220.7 c10.4 -26.1 14.8 -35.7 16.5 -35.7 0.9 0 1.7 0.3 1.7 0.6 0 0.4 -3.7 9.4 -8.1 20 -6.4 15.3 -8.5 19.4 -10 19.4 -1.8 0 -1.8 -0.2 -0.1 -4.3z"/>
  <path d="M584.2 223.3 c-0.6 -1 -3.7 -8.3 -7 -16.3 -3.3 -8 -6.8 -16.2 -7.7 -18.3 -1.6 -3.8 -1.5 -3.8 0.5 -3.5 1.7 0.2 3.6 3.9 10.1 19.2 4.3 10.4 7.9 19.3 7.9 19.8 0 1.5 -2.9 0.8 -3.8 -0.9z"/>
  <path d="M332 219.5 c-2.6 -3.1 1.3 -8.2 4.4 -5.6 1.9 1.6 2.1 4.2 0.4 5.9 -1.6 1.6 -3.3 1.5 -4.8 -0.3z"/>
  <path d="M358.6 219.5 c-0.9 -0.9 -1.6 -2 -1.6 -2.5 0 -1.5 3.2 -4.1 4.8 -3.8 2.4 0.5 3.9 3.5 2.6 5.6 -1.5 2.3 -3.8 2.6 -5.8 0.7z"/>
  <path d="M547.6 219.5 c-0.9 -0.9 -1.6 -2 -1.6 -2.5 0 -1.5 3.2 -4.1 4.8 -3.8 2.4 0.5 3.9 3.5 2.6 5.6 -1.5 2.3 -3.8 2.6 -5.8 0.7z"/>
  <path d="M117 201.9 l0 -4.1 -3.4 2 c-2.8 1.7 -3.5 1.8 -4 0.6 -0.4 -0.9 0.7 -1.9 3.2 -3 l3.7 -1.6 -3.9 -2 c-2.7 -1.4 -3.5 -2.3 -2.8 -3 0.8 -0.8 1.8 -0.6 3.6 0.6 3.5 2.2 3.6 2.1 3.6 -2.4 0 -2.9 0.4 -4 1.5 -4 1.1 0 1.5 1.1 1.5 4 0 2.2 0.3 4 0.6 4 0.3 0 1.9 -0.9 3.4 -2 2.4 -1.7 2.9 -1.8 3.4 -0.5 0.3 1 -0.7 2.1 -3.2 3.4 l-3.7 1.9 3.8 1.5 c2.5 1.1 3.5 2.1 3.1 3.1 -0.5 1.2 -1.1 1.1 -4 -0.6 l-3.4 -2 0 4.1 c0 3 -0.4 4.1 -1.5 4.1 -1.1 0 -1.5 -1.1 -1.5 -4.1z"/>
  <path d="M332 200.5 c-2.6 -3.1 1.3 -8.2 4.4 -5.6 1.9 1.6 2.1 4.2 0.4 5.9 -1.6 1.6 -3.3 1.5 -4.8 -0.3z"/>
  <path d="M386.7 195.3 c-0.4 -0.3 -0.7 -2.8 -0.7 -5.5 0 -4.5 0.2 -4.8 2.5 -4.8 2.4 0 2.5 0.3 2.5 5.5 0 4.7 -0.3 5.5 -1.8 5.5 -1 0 -2.2 -0.3 -2.5 -0.7z"/>
  <path d="M521.7 195.3 c-0.4 -0.3 -0.7 -2.8 -0.7 -5.5 0 -4.5 0.2 -4.8 2.5 -4.8 2.4 0 2.5 0.3 2.5 5.5 0 4.7 -0.3 5.5 -1.8 5.5 -1 0 -2.2 -0.3 -2.5 -0.7z"/>
  <path d="M791.7 195.3 c-0.4 -0.3 -0.7 -2.8 -0.7 -5.5 0 -4.5 0.2 -4.8 2.5 -4.8 2.4 0 2.5 0.3 2.5 5.5 0 4.7 -0.3 5.5 -1.8 5.5 -1 0 -2.2 -0.3 -2.5 -0.7z"/>
  <path d="M410 188 l-3.4 -3 3 0 c2.8 0 4.9 1.5 6.8 4.8 1.4 2.3 -2.9 1.2 -6.4 -1.8z"/>
  <path d="M491 188 l-3.4 -3 3 0 c2.8 0 4.9 1.5 6.8 4.8 1.4 2.3 -2.9 1.2 -6.4 -1.8z"/>
  <path d="M429 169 c0 -2 0.7 -2 27 -2 26.3 0 27 0 27 2 0 2 -0.7 2 -27 2 -26.3 0 -27 0 -27 -2z"/>
  <path d="M331.6 160.5 c-0.9 -0.9 -1.6 -2 -1.6 -2.5 0 -1.5 3.2 -4.1 4.8 -3.8 2.4 0.5 3.9 3.5 2.6 5.6 -1.5 2.3 -3.8 2.6 -5.8 0.7z"/>
  <path d="M547.6 160.5 c-0.9 -0.9 -1.6 -2 -1.6 -2.5 0 -1.5 3.2 -4.1 4.8 -3.8 2.4 0.5 3.9 3.5 2.6 5.6 -1.5 2.3 -3.8 2.6 -5.8 0.7z"/>
  <path d="M657 155 l0 -5 -5 0 c-4.3 0 -5 -0.3 -5 -2 0 -1.7 0.7 -2 5 -2 l5 0 0 -5 c0 -4.3 0.3 -5 2 -5 1.7 0 2 0.7 2 5 l0 5 4.5 0 c3.8 0 4.5 0.3 4.5 2 0 1.7 -0.7 2 -4.5 2 l-4.5 0 0 5 c0 4.3 -0.3 5 -2 5 -1.7 0 -2 -0.7 -2 -5z"/>
  <path d="M355 148 c0 -1.8 0.7 -2 7 -2 6.3 0 7 0.2 7 2 0 1.8 -0.7 2 -7 2 -6.3 0 -7 -0.2 -7 -2z"/>
  <path d="M517 148 c0 -1.8 0.7 -2 7 -2 6.3 0 7 0.2 7 2 0 1.8 -0.7 2 -7 2 -6.3 0 -7 -0.2 -7 -2z"/>
  <path d="M382 135.3 c0 -1 -0.3 -3.5 -0.6 -5.5 -0.6 -3.6 -0.5 -3.8 2 -3.8 2.5 0 2.6 0.2 2.6 5.5 0 4.8 -0.2 5.5 -2 5.5 -1.2 0 -2 -0.7 -2 -1.7z"/>
  <path d="M391 131.5 c0 -5.3 0.1 -5.5 2.6 -5.5 2.5 0 2.6 0.2 2 3.8 -0.3 2 -0.6 4.5 -0.6 5.5 0 1 -0.8 1.7 -2 1.7 -1.8 0 -2 -0.7 -2 -5.5z"/>
  <path d="M490 135.3 c0 -1 -0.3 -3.5 -0.6 -5.5 -0.6 -3.6 -0.5 -3.8 2 -3.8 2.5 0 2.6 0.2 2.6 5.5 0 4.8 -0.2 5.5 -2 5.5 -1.2 0 -2 -0.7 -2 -1.7z"/>
  <path d="M499 131.5 c0 -5.3 0.1 -5.5 2.6 -5.5 2.5 0 2.6 0.2 2 3.8 -0.3 2 -0.6 4.5 -0.6 5.5 0 1 -0.8 1.7 -2 1.7 -1.8 0 -2 -0.7 -2 -5.5z"/>
  <path d="M597.9 111.5 c-10.2 -5.5 -8.1 -35.9 3 -43.2 4.7 -3.1 8.6 -3 12.1 0.5 6.7 6.7 6.1 29.5 -0.8 31.7 -2.3 0.7 -5.2 -0.3 -5.2 -1.8 0 -0.5 -0.8 -0.3 -1.8 0.6 -1 1 -2.6 1.7 -3.5 1.7 -5.5 0 -4.6 -17.8 1.1 -20.9 1.1 -0.6 3.4 -0.9 5.2 -0.8 l3.2 0.2 -0.7 6 c-1.1 9.5 -1.1 10.8 0.2 11.2 2 0.7 3.3 -4.2 3.3 -12.3 0 -9.2 -1.8 -14.1 -5.6 -15 -4 -1 -7.4 1.3 -10.3 7 -2 3.9 -2.6 6.7 -2.9 14.1 -0.7 15.6 2.3 20.4 11.9 19.1 3.9 -0.5 5 -0.4 4.7 0.6 -0.9 2.7 -9.8 3.5 -13.9 1.3z"/>
  <path d="M402 110 c0 -2 0.7 -2 40.5 -2 39.8 0 40.5 0 40.5 2 0 2 -0.7 2 -40.5 2 -39.8 0 -40.5 0 -40.5 -2z"/>
  <path d="M736.6 101.5 c-0.9 -0.9 -1.6 -2 -1.6 -2.5 0 -1.5 3.2 -4.1 4.8 -3.8 2.4 0.5 3.9 3.5 2.6 5.6 -1.5 2.3 -3.8 2.6 -5.8 0.7z"/>
  <path d="M306 96 l0 -5 -5 0 c-4.3 0 -5 -0.3 -5 -2 0 -1.7 0.7 -2 5 -2 l5 0 0 -5 c0 -4.3 0.3 -5 2 -5 1.7 0 2 0.7 2 5 l0 5 4.5 0 c3.8 0 4.5 0.3 4.5 2 0 1.7 -0.7 2 -4.5 2 l-4.5 0 0 5 c0 4.3 -0.3 5 -2 5 -1.7 0 -2 -0.7 -2 -5z"/>
  <path d="M224.7 77.3 c-0.4 -0.3 -0.7 -2.8 -0.7 -5.5 0 -4.5 0.2 -4.8 2.5 -4.8 2.4 0 2.5 0.3 2.5 5.5 0 4.7 -0.3 5.5 -1.8 5.5 -1 0 -2.2 -0.3 -2.5 -0.7z"/>
  <path d="M547.6 42.5 c-0.9 -0.9 -1.6 -2 -1.6 -2.5 0 -1.5 3.2 -4.1 4.8 -3.8 2.4 0.5 3.9 3.5 2.6 5.6 -1.5 2.3 -3.8 2.6 -5.8 0.7z"/>
  <path d="M414 24.9 l0 -4.1 -3.4 2 c-2.8 1.7 -3.5 1.8 -4 0.6 -0.4 -0.9 0.7 -1.9 3.2 -3 l3.7 -1.6 -3.9 -2 c-2.7 -1.4 -3.5 -2.3 -2.8 -3 0.8 -0.8 1.8 -0.6 3.6 0.6 3.5 2.2 3.6 2.1 3.6 -2.4 0 -2.9 0.4 -4 1.5 -4 1.1 0 1.5 1.1 1.5 4 0 2.2 0.3 4 0.6 4 0.3 0 1.9 -0.9 3.4 -2 2.4 -1.7 2.9 -1.8 3.4 -0.5 0.3 1 -0.7 2.1 -3.2 3.4 l-3.7 1.9 3.8 1.5 c2.5 1.1 3.5 2.1 3.1 3.1 -0.5 1.2 -1.1 1.1 -4 -0.6 l-3.4 -2 0 4.1 c0 3 -0.4 4.1 -1.5 4.1 -1.1 0 -1.5 -1.1 -1.5 -4.1z"/>
 </g>
 <g fill="#ffffff">
  <path d="M89 328.6 c0 -5.7 1.5 -9.6 3.6 -9.6 1.4 0 1.6 0.8 1 5.2 -1.2 9.1 -4.6 12.3 -4.6 4.4z"/>
  <path d="M602 92.6 c0 -5.7 1.5 -9.6 3.6 -9.6 1.4 0 1.6 0.8 1 5.2 -1.2 9.1 -4.6 12.3 -4.6 4.4z"/>
 </g>
</svg>