<?xml version="1.0" encoding="utf-8"?>
<!DOCTYPE svg PUBLIC "-//W3C//DTD SVG 1.1//EN" "http://www.w3.org/Graphics/SVG/1.1/DTD/svg11.dtd">
<svg version="1.1" xmlns="http://www.w3.org/2000/svg" width="1754px" height="555px" viewBox="0 0 1754 555" preserveAspectRatio="xMidYMid meet">
 <g fill="#000000">
  <path d="M575 467 l0 -2 10.5 0 10.5 0 0 2 0 2 -10.5 0 -10.5 0 0 -2z"/>
  <path d="M564.2 464.5 l-3.1 -3.4 -1 -3.8 c-1.4 -4.9 -1.4 -7.7 0 -12.4 l1.2 -3.8 2.9 -3.5 2.9 -3.6 1.5 0 1.4 0 0 1.1 c0 0.6 -1.1 2.5 -2.4 4.2 l-2.4 3.2 -1.1 4 -1 4 0.8 3.5 c0.9 4 2.7 7.7 4.8 10.2 l1.5 1.7 -0.7 1 c-1 1.8 -2.1 1.3 -5.3 -2.4z"/>
  <path d="M606.2 464.5 l-3.1 -3.4 -1 -3.8 c-1.4 -4.9 -1.4 -7.7 0 -12.4 l1.2 -3.8 2.9 -3.5 2.9 -3.6 1.5 0 1.4 0 0 1.1 c0 0.6 -1.1 2.5 -2.4 4.2 l-2.4 3.2 -1.1 4 -1 4 0.8 3.5 c0.9 4 2.7 7.7 4.8 10.2 l1.5 1.7 -0.7 1 c-1 1.8 -2.1 1.3 -5.3 -2.4z"/>
  <path d="M627.2 464.5 l-3.1 -3.4 -1 -3.8 c-1.4 -4.9 -1.4 -7.7 0 -12.4 l1.2 -3.8 2.9 -3.5 2.9 -3.6 1.5 0 1.4 0 0 1.1 c0 0.6 -1.1 2.5 -2.4 4.2 l-2.4 3.2 -1.1 4 -1 4 0.8 3.5 c0.9 4 2.7 7.7 4.8 10.2 l1.5 1.7 -0.7 1 c-1 1.8 -2.1 1.3 -5.3 -2.4z"/>
  <path d="M580.5 422 l-0.6 -1 2.5 -3.1 2.5 -3 1.2 -4.1 1.1 -4.1 -1.2 -4.6 -1.2 -4.6 -2.4 -3.3 -2.5 -3.2 0.6 -1 c0.3 -0.6 1.2 -1 1.9 -1 l1.3 0 2.6 3.8 c4.8 6.9 5.7 12 3.6 19.5 l-1 3.8 -3.1 3.4 c-3.2 3.7 -4.3 4.2 -5.3 2.5z"/>
  <path d="M622.5 422 l-0.6 -1 2.5 -3.1 2.5 -3 1.2 -4.1 1.1 -4.1 -1.2 -4.6 -1.2 -4.6 -2.4 -3.3 -2.5 -3.2 0.6 -1 c0.3 -0.6 1.2 -1 1.9 -1 l1.3 0 2.6 3.8 c4.8 6.9 5.7 12 3.6 19.5 l-1 3.8 -3.1 3.4 c-3.2 3.7 -4.3 4.2 -5.3 2.5z"/>
  <path d="M643.5 422 l-0.6 -1 2.5 -3.1 2.5 -3 1.2 -4.1 1.1 -4.1 -1.2 -4.6 -1.2 -4.6 -2.4 -3.3 -2.5 -3.2 0.6 -1 c0.3 -0.6 1.2 -1 1.9 -1 l1.3 0 2.6 3.8 c4.8 6.9 5.7 12 3.6 19.5 l-1 3.8 -3.1 3.4 c-3.2 3.7 -4.3 4.2 -5.3 2.5z"/>
  <path d="M627.2 374.5 l-3.1 -3.4 -1 -3.8 c-1.4 -4.9 -1.4 -7.7 0 -12.4 l1.2 -3.8 2.9 -3.5 2.9 -3.6 1.5 0 1.4 0 0 1.1 c0 0.6 -1.1 2.5 -2.4 4.2 l-2.4 3.2 -1.1 4 -1 4 0.8 3.5 c0.9 4 2.7 7.7 4.8 10.2 l1.5 1.7 -0.7 1 c-1 1.8 -2.1 1.3 -5.3 -2.4z"/>
  <path d="M562.8 359.5 l-6.6 -15.5 2.2 0 2.2 0 6.2 14.8 c3.4 8.1 6.2 15.1 6.2 15.5 l0 0.7 -1.8 0 -1.9 0 -6.5 -15.5z"/>
  <path d="M604.8 359.5 l-6.6 -15.5 2.2 0 2.2 0 6.2 14.8 c3.4 8.1 6.2 15.1 6.2 15.5 l0 0.7 -1.8 0 -1.9 0 -6.5 -15.5z"/>
  <path d="M79 369.6 l-1.2 -1.6 0.6 -1.5 c0.3 -0.9 1.3 -1.8 2.2 -2.2 l1.6 -0.6 1.6 1.7 1.7 1.6 -1.1 1.8 c-0.6 0.9 -1.8 1.8 -2.6 2 l-1.5 0.3 -1.3 -1.5z"/>
  <path d="M100 369.6 l-1.2 -1.6 0.6 -1.5 c0.3 -0.9 1.3 -1.8 2.2 -2.2 l1.6 -0.6 1.6 1.7 1.7 1.6 -1.1 1.8 c-0.6 0.9 -1.8 1.8 -2.6 2 l-1.5 0.3 -1.3 -1.5z"/>
  <path d="M79 357.6 l-1.2 -1.6 0.6 -1.5 c0.3 -0.9 1.3 -1.8 2.2 -2.2 l1.6 -0.6 1.6 1.7 1.7 1.6 -1.1 1.8 c-0.6 0.9 -1.8 1.8 -2.6 2 l-1.5 0.3 -1.3 -1.5z"/>
  <path d="M100 357.6 l-1.2 -1.6 0.6 -1.5 c0.3 -0.9 1.3 -1.8 2.2 -2.2 l1.6 -0.6 1.6 1.7 1.7 1.6 -1.1 1.8 c-0.6 0.9 -1.8 1.8 -2.6 2 l-1.5 0.3 -1.3 -1.5z"/>
  <path d="M55.3 346.5 l-2.8 -2.4 2.6 -0.1 2.6 0 2.3 2.5 2.3 2.5 -2.1 0 -2.1 0 -2.8 -2.5z"/>
  <path d="M124 346.5 l2.3 -2.5 2.6 0 2.6 0.1 -3 2.4 -3 2.5 -1.9 0 -1.9 0 2.3 -2.5z"/>
  <path d="M542 315 l0 -19 2 0 2 0 0 19 0 19 -2 0 -2 0 0 -19z"/>
  <path d="M138 331.5 l0 -1.5 1.8 0 1.8 0 1.1 -1.1 1.2 -1.2 -1.4 -2.7 -1.4 -2.8 1.5 -1.3 1.6 -1.3 1.6 1.1 1.7 1 0.3 1.7 c0.2 1 0.1 2.8 -0.2 4.2 l-0.6 2.4 -3 1.5 c-1.6 0.8 -3.6 1.5 -4.5 1.5 l-1.5 0 0 -1.5z"/>
  <path d="M585.2 329.5 l-3.1 -3.4 -1 -3.8 c-1.4 -4.9 -1.4 -7.7 0 -12.4 l1.2 -3.8 2.9 -3.5 2.9 -3.6 1.5 0 1.4 0 0 1.1 c0 0.6 -1.1 2.5 -2.4 4.2 l-2.4 3.2 -1.1 4 -1 4 0.8 3.5 c0.9 4 2.7 7.7 4.8 10.2 l1.5 1.7 -0.7 1 c-1 1.8 -2.1 1.3 -5.3 -2.4z"/>
  <path d="M606.2 329.5 l-3.1 -3.4 -1 -3.8 c-1.4 -4.9 -1.4 -7.7 0 -12.4 l1.2 -3.8 2.9 -3.5 2.9 -3.6 1.5 0 1.4 0 0 1.1 c0 0.6 -1.1 2.5 -2.4 4.2 l-2.4 3.2 -1.1 4 -1 4 0.8 3.5 c0.9 4 2.7 7.7 4.8 10.2 l1.5 1.7 -0.7 1 c-1 1.8 -2.1 1.3 -5.3 -2.4z"/>
  <path d="M520.8 314.5 l-6.6 -15.5 2.2 0 2.2 0 6.2 14.8 c3.4 8.1 6.2 15.1 6.2 15.5 l0 0.7 -1.8 0 -1.9 0 -6.5 -15.5z"/>
  <path d="M58 324.6 l-1.2 -1.6 0.6 -1.5 c0.3 -0.9 1.3 -1.8 2.2 -2.2 l1.6 -0.6 1.6 1.7 1.7 1.6 -1.1 1.8 c-0.6 0.9 -1.8 1.8 -2.6 2 l-1.5 0.3 -1.3 -1.5z"/>
  <path d="M625 324.6 l-1.2 -1.6 0.6 -1.5 c0.3 -0.9 1.3 -1.8 2.2 -2.2 l1.6 -0.6 1.6 1.7 1.7 1.6 -1.1 1.8 c-0.6 0.9 -1.8 1.8 -2.6 2 l-1.5 0.3 -1.3 -1.5z"/>
  <path d="M646 324.6 l-1.2 -1.6 0.6 -1.5 c0.3 -0.9 1.3 -1.8 2.2 -2.2 l1.6 -0.6 1.6 1.7 1.7 1.6 -1.1 1.8 c-0.6 0.9 -1.8 1.8 -2.6 2 l-1.5 0.3 -1.3 -1.5z"/>
  <path d="M667 324.6 l-1.2 -1.6 0.6 -1.5 c0.3 -0.9 1.3 -1.8 2.2 -2.2 l1.6 -0.6 1.6 1.7 1.7 1.6 -1.1 1.8 c-0.6 0.9 -1.8 1.8 -2.6 2 l-1.5 0.3 -1.3 -1.5z"/>
  <path d="M688 324.6 l-1.2 -1.6 0.6 -1.5 c0.3 -0.9 1.3 -1.8 2.2 -2.2 l1.6 -0.6 1.6 1.7 1.7 1.6 -1.1 1.8 c-0.6 0.9 -1.8 1.8 -2.6 2 l-1.5 0.3 -1.3 -1.5z"/>
  <path d="M709 324.6 l-1.2 -1.6 0.6 -1.5 c0.3 -0.9 1.3 -1.8 2.2 -2.2 l1.6 -0.6 1.6 1.7 1.7 1.6 -1.1 1.8 c-0.6 0.9 -1.8 1.8 -2.6 2 l-1.5 0.3 -1.3 -1.5z"/>
  <path d="M730 324.6 l-1.2 -1.6 0.6 -1.5 c0.3 -0.9 1.3 -1.8 2.2 -2.2 l1.6 -0.6 1.6 1.7 1.7 1.6 -1.1 1.8 c-0.6 0.9 -1.8 1.8 -2.6 2 l-1.5 0.3 -1.3 -1.5z"/>
  <path d="M751 324.6 l-1.2 -1.6 0.6 -1.5 c0.3 -0.9 1.3 -1.8 2.2 -2.2 l1.6 -0.6 1.6 1.7 1.7 1.6 -1.1 1.8 c-0.6 0.9 -1.8 1.8 -2.6 2 l-1.5 0.3 -1.3 -1.5z"/>
  <path d="M772 324.6 l-1.2 -1.6 0.6 -1.5 c0.3 -0.9 1.3 -1.8 2.2 -2.2 l1.6 -0.6 1.6 1.7 1.7 1.6 -1.1 1.8 c-0.6 0.9 -1.8 1.8 -2.6 2 l-1.5 0.3 -1.3 -1.5z"/>
  <path d="M793 324.6 l-1.2 -1.6 0.6 -1.5 c0.3 -0.9 1.3 -1.8 2.2 -2.2 l1.6 -0.6 1.6 1.7 1.7 1.6 -1.1 1.8 c-0.6 0.9 -1.8 1.8 -2.6 2 l-1.5 0.3 -1.3 -1.5z"/>
  <path d="M814 324.6 l-1.2 -1.6 0.6 -1.5 c0.3 -0.9 1.3 -1.8 2.2 -2.2 l1.6 -0.6 1.6 1.7 1.7 1.6 -1.1 1.8 c-0.6 0.9 -1.8 1.8 -2.6 2 l-1.5 0.3 -1.3 -1.5z"/>
  <path d="M835 324.6 l-1.2 -1.6 0.6 -1.5 c0.3 -0.9 1.3 -1.8 2.2 -2.2 l1.6 -0.6 1.6 1.7 1.7 1.6 -1.1 1.8 c-0.6 0.9 -1.8 1.8 -2.6 2 l-1.5 0.3 -1.3 -1.5z"/>
  <path d="M856 324.6 l-1.2 -1.6 0.6 -1.5 c0.3 -0.9 1.3 -1.8 2.2 -2.2 l1.6 -0.6 1.6 1.7 1.7 1.6 -1.1 1.8 c-0.6 0.9 -1.8 1.8 -2.6 2 l-1.5 0.3 -1.3 -1.5z"/>
  <path d="M877 324.6 l-1.2 -1.6 0.6 -1.5 c0.3 -0.9 1.3 -1.8 2.2 -2.2 l1.6 -0.6 1.6 1.7 1.7 1.6 -1.1 1.8 c-0.6 0.9 -1.8 1.8 -2.6 2 l-1.5 0.3 -1.3 -1.5z"/>
  <path d="M898 324.6 l-1.2 -1.6 0.6 -1.5 c0.3 -0.9 1.3 -1.8 2.2 -2.2 l1.6 -0.6 1.6 1.7 1.7 1.6 -1.1 1.8 c-0.6 0.9 -1.8 1.8 -2.6 2 l-1.5 0.3 -1.3 -1.5z"/>
  <path d="M919 324.6 l-1.2 -1.6 0.6 -1.5 c0.3 -0.9 1.3 -1.8 2.2 -2.2 l1.6 -0.6 1.6 1.7 1.7 1.6 -1.1 1.8 c-0.6 0.9 -1.8 1.8 -2.6 2 l-1.5 0.3 -1.3 -1.5z"/>
  <path d="M940 324.6 l-1.2 -1.6 0.6 -1.5 c0.3 -0.9 1.3 -1.8 2.2 -2.2 l1.6 -0.6 1.6 1.7 1.7 1.6 -1.1 1.8 c-0.6 0.9 -1.8 1.8 -2.6 2 l-1.5 0.3 -1.3 -1.5z"/>
  <path d="M961 324.6 l-1.2 -1.6 0.6 -1.5 c0.3 -0.9 1.3 -1.8 2.2 -2.2 l1.6 -0.6 1.6 1.7 1.7 1.6 -1.1 1.8 c-0.6 0.9 -1.8 1.8 -2.6 2 l-1.5 0.3 -1.3 -1.5z"/>
  <path d="M982 324.6 l-1.2 -1.6 0.6 -1.5 c0.3 -0.9 1.3 -1.8 2.2 -2.2 l1.6 -0.6 1.6 1.7 1.7 1.6 -1.1 1.8 c-0.6 0.9 -1.8 1.8 -2.6 2 l-1.5 0.3 -1.3 -1.5z"/>
  <path d="M1003 324.6 l-1.2 -1.6 0.6 -1.5 c0.3 -0.9 1.3 -1.8 2.2 -2.2 l1.6 -0.6 1.6 1.7 1.7 1.6 -1.1 1.8 c-0.6 0.9 -1.8 1.8 -2.6 2 l-1.5 0.3 -1.3 -1.5z"/>
  <path d="M1024 324.6 l-1.2 -1.6 0.6 -1.5 c0.3 -0.9 1.3 -1.8 2.2 -2.2 l1.6 -0.6 1.6 1.7 1.7 1.6 -1.1 1.8 c-0.6 0.9 -1.8 1.8 -2.6 2 l-1.5 0.3 -1.3 -1.5z"/>
  <path d="M1045 324.6 l-1.2 -1.6 0.6 -1.5 c0.3 -0.9 1.3 -1.8 2.2 -2.2 l1.6 -0.6 1.6 1.7 1.7 1.6 -1.1 1.8 c-0.6 0.9 -1.8 1.8 -2.6 2 l-1.5 0.3 -1.3 -1.5z"/>
  <path d="M1066 324.6 l-1.2 -1.6 0.6 -1.5 c0.3 -0.9 1.3 -1.8 2.2 -2.2 l1.6 -0.6 1.6 1.7 1.7 1.6 -1.1 1.8 c-0.6 0.9 -1.8 1.8 -2.6 2 l-1.5 0.3 -1.3 -1.5z"/>
  <path d="M1087 324.6 l-1.2 -1.6 0.6 -1.5 c0.3 -0.9 1.3 -1.8 2.2 -2.2 l1.6 -0.6 1.6 1.7 1.7 1.6 -1.1 1.8 c-0.6 0.9 -1.8 1.8 -2.6 2 l-1.5 0.3 -1.3 -1.5z"/>
  <path d="M1108 324.6 l-1.2 -1.6 0.6 -1.5 c0.3 -0.9 1.3 -1.8 2.2 -2.2 l1.6 -0.6 1.6 1.7 1.7 1.6 -1.1 1.8 c-0.6 0.9 -1.8 1.8 -2.6 2 l-1.5 0.3 -1.3 -1.5z"/>
  <path d="M1129 324.6 l-1.2 -1.6 0.6 -1.5 c0.3 -0.9 1.3 -1.8 2.2 -2.2 l1.6 -0.6 1.6 1.7 1.7 1.6 -1.1 1.8 c-0.6 0.9 -1.8 1.8 -2.6 2 l-1.5 0.3 -1.3 -1.5z"/>
  <path d="M1150 324.6 l-1.2 -1.6 0.6 -1.5 c0.3 -0.9 1.3 -1.8 2.2 -2.2 l1.6 -0.6 1.6 1.7 1.7 1.6 -1.1 1.8 c-0.6 0.9 -1.8 1.8 -2.6 2 l-1.5 0.3 -1.3 -1.5z"/>
  <path d="M1171 324.6 l-1.2 -1.6 0.6 -1.5 c0.3 -0.9 1.3 -1.8 2.2 -2.2 l1.6 -0.6 1.6 1.7 1.7 1.6 -1.1 1.8 c-0.6 0.9 -1.8 1.8 -2.6 2 l-1.5 0.3 -1.3 -1.5z"/>
  <path d="M1192 324.6 l-1.2 -1.6 0.6 -1.5 c0.3 -0.9 1.3 -1.8 2.2 -2.2 l1.6 -0.6 1.6 1.7 1.7 1.6 -1.1 1.8 c-0.6 0.9 -1.8 1.8 -2.6 2 l-1.5 0.3 -1.3 -1.5z"/>
  <path d="M1213 324.6 l-1.2 -1.6 0.6 -1.5 c0.3 -0.9 1.3 -1.8 2.2 -2.2 l1.6 -0.6 1.6 1.7 1.7 1.6 -1.1 1.8 c-0.6 0.9 -1.8 1.8 -2.6 2 l-1.5 0.3 -1.3 -1.5z"/>
  <path d="M1234 324.6 l-1.2 -1.6 0.6 -1.5 c0.3 -0.9 1.3 -1.8 2.2 -2.2 l1.6 -0.6 1.6 1.7 1.7 1.6 -1.1 1.8 c-0.6 0.9 -1.8 1.8 -2.6 2 l-1.5 0.3 -1.3 -1.5z"/>
  <path d="M1255 324.6 l-1.2 -1.6 0.6 -1.5 c0.3 -0.9 1.3 -1.8 2.2 -2.2 l1.6 -0.6 1.6 1.7 1.7 1.6 -1.1 1.8 c-0.6 0.9 -1.8 1.8 -2.6 2 l-1.5 0.3 -1.3 -1.5z"/>
  <path d="M1276 324.6 l-1.2 -1.6 0.6 -1.5 c0.3 -0.9 1.3 -1.8 2.2 -2.2 l1.6 -0.6 1.6 1.7 1.7 1.6 -1.1 1.8 c-0.6 0.9 -1.8 1.8 -2.6 2 l-1.5 0.3 -1.3 -1.5z"/>
  <path d="M1297 324.6 l-1.2 -1.6 0.6 -1.5 c0.3 -0.9 1.3 -1.8 2.2 -2.2 l1.6 -0.6 1.6 1.7 1.7 1.6 -1.1 1.8 c-0.6 0.9 -1.8 1.8 -2.6 2 l-1.5 0.3 -1.3 -1.5z"/>
  <path d="M1318 324.6 l-1.2 -1.6 0.6 -1.5 c0.3 -0.9 1.3 -1.8 2.2 -2.2 l1.6 -0.6 1.6 1.7 1.7 1.6 -1.1 1.8 c-0.6 0.9 -1.8 1.8 -2.6 2 l-1.5 0.3 -1.3 -1.5z"/>
  <path d="M1339 324.6 l-1.2 -1.6 0.6 -1.5 c0.3 -0.9 1.3 -1.8 2.2 -2.2 l1.6 -0.6 1.6 1.7 1.7 1.6 -1.1 1.8 c-0.6 0.9 -1.8 1.8 -2.6 2 l-1.5 0.3 -1.3 -1.5z"/>
  <path d="M1360 324.6 l-1.2 -1.6 0.6 -1.5 c0.3 -0.9 1.3 -1.8 2.2 -2.2 l1.6 -0.6 1.6 1.7 1.7 1.6 -1.1 1.8 c-0.6 0.9 -1.8 1.8 -2.6 2 l-1.5 0.3 -1.3 -1.5z"/>
  <path d="M1381 324.6 l-1.2 -1.6 0.6 -1.5 c0.3 -0.9 1.3 -1.8 2.2 -2.2 l1.6 -0.6 1.6 1.7 1.7 1.6 -1.1 1.8 c-0.6 0.9 -1.8 1.8 -2.6 2 l-1.5 0.3 -1.3 -1.5z"/>
  <path d="M1402 324.6 l-1.2 -1.6 0.6 -1.5 c0.3 -0.9 1.3 -1.8 2.2 -2.2 l1.6 -0.6 1.6 1.7 1.7 1.6 -1.1 1.8 c-0.6 0.9 -1.8 1.8 -2.6 2 l-1.5 0.3 -1.3 -1.5z"/>
  <path d="M1423 324.6 l-1.2 -1.6 0.6 -1.5 c0.3 -0.9 1.3 -1.8 2.2 -2.2 l1.6 -0.6 1.6 1.7 1.7 1.6 -1.1 1.8 c-0.6 0.9 -1.8 1.8 -2.6 2 l-1.5 0.3 -1.3 -1.5z"/>
  <path d="M1444 324.6 l-1.2 -1.6 0.6 -1.5 c0.3 -0.9 1.3 -1.8 2.2 -2.2 l1.6 -0.6 1.6 1.7 1.7 1.6 -1.1 1.8 c-0.6 0.9 -1.8 1.8 -2.6 2 l-1.5 0.3 -1.3 -1.5z"/>
  <path d="M1465 324.6 l-1.2 -1.6 0.6 -1.5 c0.3 -0.9 1.3 -1.8 2.2 -2.2 l1.6 -0.6 1.6 1.7 1.7 1.6 -1.1 1.8 c-0.6 0.9 -1.8 1.8 -2.6 2 l-1.5 0.3 -1.3 -1.5z"/>
  <path d="M1486 324.6 l-1.2 -1.6 0.6 -1.5 c0.3 -0.9 1.3 -1.8 2.2 -2.2 l1.6 -0.6 1.6 1.7 1.7 1.6 -1.1 1.8 c-0.6 0.9 -1.8 1.8 -2.6 2 l-1.5 0.3 -1.3 -1.5z"/>
  <path d="M1507 324.6 l-1.2 -1.6 0.6 -1.5 c0.3 -0.9 1.3 -1.8 2.2 -2.2 l1.6 -0.6 1.6 1.7 1.7 1.6 -1.1 1.8 c-0.6 0.9 -1.8 1.8 -2.6 2 l-1.5 0.3 -1.3 -1.5z"/>
  <path d="M1528 324.6 l-1.2 -1.6 0.6 -1.5 c0.3 -0.9 1.3 -1.8 2.2 -2.2 l1.6 -0.6 1.6 1.7 1.7 1.6 -1.1 1.8 c-0.6 0.9 -1.8 1.8 -2.6 2 l-1.5 0.3 -1.3 -1.5z"/>
  <path d="M1549 324.6 l-1.2 -1.6 0.6 -1.5 c0.3 -0.9 1.3 -1.8 2.2 -2.2 l1.6 -0.6 1.6 1.7 1.7 1.6 -1.1 1.8 c-0.6 0.9 -1.8 1.8 -2.6 2 l-1.5 0.3 -1.3 -1.5z"/>
  <path d="M1570 324.6 l-1.2 -1.6 0.6 -1.5 c0.3 -0.9 1.3 -1.8 2.2 -2.2 l1.6 -0.6 1.6 1.7 1.7 1.6 -1.1 1.8 c-0.6 0.9 -1.8 1.8 -2.6 2 l-1.5 0.3 -1.3 -1.5z"/>
  <path d="M1591 324.6 l-1.2 -1.6 0.6 -1.5 c0.3 -0.9 1.3 -1.8 2.2 -2.2 l1.6 -0.6 1.6 1.7 1.7 1.6 -1.1 1.8 c-0.6 0.9 -1.8 1.8 -2.6 2 l-1.5 0.3 -1.3 -1.5z"/>
  <path d="M118 316 l0 -2 5.5 0 5.5 0 0 2 0 2 -5.5 0 -5.5 0 0 -2z"/>
  <path d="M160 316 l0 -2 5.5 0 5.5 0 0 2 0 2 -5.5 0 -5.5 0 0 -2z"/>
  <path d="M202 316 l0 -2 5.5 0 5.5 0 0 2 0 2 -5.5 0 -5.5 0 0 -2z"/>
  <path d="M244 316 l0 -2 5.5 0 5.5 0 0 2 0 2 -5.5 0 -5.5 0 0 -2z"/>
  <path d="M286 316 l0 -2 5.5 0 5.5 0 0 2 0 2 -5.5 0 -5.5 0 0 -2z"/>
  <path d="M328 316 l0 -2 5.5 0 5.5 0 0 2 0 2 -5.5 0 -5.5 0 0 -2z"/>
  <path d="M370 316 l0 -2 5.5 0 5.5 0 0 2 0 2 -5.5 0 -5.5 0 0 -2z"/>
  <path d="M412 316 l0 -2 5.5 0 5.5 0 0 2 0 2 -5.5 0 -5.5 0 0 -2z"/>
  <path d="M454 316 l0 -2 5.5 0 5.5 0 0 2 0 2 -5.5 0 -5.5 0 0 -2z"/>
  <path d="M496 316 l0 -2 5.5 0 5.5 0 0 2 0 2 -5.5 0 -5.5 0 0 -2z"/>
  <path d="M142 312.6 l-1.2 -1.6 0.6 -1.5 c0.3 -0.9 1.3 -1.8 2.2 -2.2 l1.6 -0.6 1.6 1.7 1.7 1.6 -1.1 1.8 c-0.6 0.9 -1.8 1.8 -2.6 2 l-1.5 0.3 -1.3 -1.5z"/>
  <path d="M625 312.6 l-1.2 -1.6 0.6 -1.5 c0.3 -0.9 1.3 -1.8 2.2 -2.2 l1.6 -0.6 1.6 1.7 1.7 1.6 -1.1 1.8 c-0.6 0.9 -1.8 1.8 -2.6 2 l-1.5 0.3 -1.3 -1.5z"/>
  <path d="M646 312.6 l-1.2 -1.6 0.6 -1.5 c0.3 -0.9 1.3 -1.8 2.2 -2.2 l1.6 -0.6 1.6 1.7 1.7 1.6 -1.1 1.8 c-0.6 0.9 -1.8 1.8 -2.6 2 l-1.5 0.3 -1.3 -1.5z"/>
  <path d="M667 312.6 l-1.2 -1.6 0.6 -1.5 c0.3 -0.9 1.3 -1.8 2.2 -2.2 l1.6 -0.6 1.6 1.7 1.7 1.6 -1.1 1.8 c-0.6 0.9 -1.8 1.8 -2.6 2 l-1.5 0.3 -1.3 -1.5z"/>
  <path d="M688 312.6 l-1.2 -1.6 0.6 -1.5 c0.3 -0.9 1.3 -1.8 2.2 -2.2 l1.6 -0.6 1.6 1.7 1.7 1.6 -1.1 1.8 c-0.6 0.9 -1.8 1.8 -2.6 2 l-1.5 0.3 -1.3 -1.5z"/>
  <path d="M709 312.6 l-1.2 -1.6 0.6 -1.5 c0.3 -0.9 1.3 -1.8 2.2 -2.2 l1.6 -0.6 1.6 1.7 1.7 1.6 -1.1 1.8 c-0.6 0.9 -1.8 1.8 -2.6 2 l-1.5 0.3 -1.3 -1.5z"/>
  <path d="M730 312.6 l-1.2 -1.6 0.6 -1.5 c0.3 -0.9 1.3 -1.8 2.2 -2.2 l1.6 -0.6 1.6 1.7 1.7 1.6 -1.1 1.8 c-0.6 0.9 -1.8 1.8 -2.6 2 l-1.5 0.3 -1.3 -1.5z"/>
  <path d="M751 312.6 l-1.2 -1.6 0.6 -1.5 c0.3 -0.9 1.3 -1.8 2.2 -2.2 l1.6 -0.6 1.6 1.7 1.7 1.6 -1.1 1.8 c-0.6 0.9 -1.8 1.8 -2.6 2 l-1.5 0.3 -1.3 -1.5z"/>
  <path d="M772 312.6 l-1.2 -1.6 0.6 -1.5 c0.3 -0.9 1.3 -1.8 2.2 -2.2 l1.6 -0.6 1.6 1.7 1.7 1.6 -1.1 1.8 c-0.6 0.9 -1.8 1.8 -2.6 2 l-1.5 0.3 -1.3 -1.5z"/>
  <path d="M793 312.6 l-1.2 -1.6 0.6 -1.5 c0.3 -0.9 1.3 -1.8 2.2 -2.2 l1.6 -0.6 1.6 1.7 1.7 1.6 -1.1 1.8 c-0.6 0.9 -1.8 1.8 -2.6 2 l-1.5 0.3 -1.3 -1.5z"/>
  <path d="M814 312.6 l-1.2 -1.6 0.6 -1.5 c0.3 -0.9 1.3 -1.8 2.2 -2.2 l1.6 -0.6 1.6 1.7 1.7 1.6 -1.1 1.8 c-0.6 0.9 -1.8 1.8 -2.6 2 l-1.5 0.3 -1.3 -1.5z"/>
  <path d="M835 312.6 l-1.2 -1.6 0.6 -1.5 c0.3 -0.9 1.3 -1.8 2.2 -2.2 l1.6 -0.6 1.6 1.7 1.7 1.6 -1.1 1.8 c-0.6 0.9 -1.8 1.8 -2.6 2 l-1.5 0.3 -1.3 -1.5z"/>
  <path d="M856 312.6 l-1.2 -1.6 0.6 -1.5 c0.3 -0.9 1.3 -1.8 2.2 -2.2 l1.6 -0.6 1.6 1.7 1.7 1.6 -1.1 1.8 c-0.6 0.9 -1.8 1.8 -2.6 2 l-1.5 0.3 -1.3 -1.5z"/>
  <path d="M877 312.6 l-1.2 -1.6 0.6 -1.5 c0.3 -0.9 1.3 -1.8 2.2 -2.2 l1.6 -0.6 1.6 1.7 1.7 1.6 -1.1 1.8 c-0.6 0.9 -1.8 1.8 -2.6 2 l-1.5 0.3 -1.3 -1.5z"/>
  <path d="M898 312.6 l-1.2 -1.6 0.6 -1.5 c0.3 -0.9 1.3 -1.8 2.2 -2.2 l1.6 -0.6 1.6 1.7 1.7 1.6 -1.1 1.8 c-0.6 0.9 -1.8 1.8 -2.6 2 l-1.5 0.3 -1.3 -1.5z"/>
  <path d="M919 312.6 l-1.2 -1.6 0.6 -1.5 c0.3 -0.9 1.3 -1.8 2.2 -2.2 l1.6 -0.6 1.6 1.7 1.7 1.6 -1.1 1.8 c-0.6 0.9 -1.8 1.8 -2.6 2 l-1.5 0.3 -1.3 -1.5z"/>
  <path d="M940 312.6 l-1.2 -1.6 0.6 -1.5 c0.3 -0.9 1.3 -1.8 2.2 -2.2 l1.6 -0.6 1.6 1.7 1.7 1.6 -1.1 1.8 c-0.6 0.9 -1.8 1.8 -2.6 2 l-1.5 0.3 -1.3 -1.5z"/>
  <path d="M961 312.6 l-1.2 -1.6 0.6 -1.5 c0.3 -0.9 1.3 -1.8 2.2 -2.2 l1.6 -0.6 1.6 1.7 1.7 1.6 -1.1 1.8 c-0.6 0.9 -1.8 1.8 -2.6 2 l-1.5 0.3 -1.3 -1.5z"/>
  <path d="M982 312.6 l-1.2 -1.6 0.6 -1.5 c0.3 -0.9 1.3 -1.8 2.2 -2.2 l1.6 -0.6 1.6 1.7 1.7 1.6 -1.1 1.8 c-0.6 0.9 -1.8 1.8 -2.6 2 l-1.5 0.3 -1.3 -1.5z"/>
  <path d="M1003 312.6 l-1.2 -1.6 0.6 -1.5 c0.3 -0.9 1.3 -1.8 2.2 -2.2 l1.6 -0.6 1.6 1.7 1.7 1.6 -1.1 1.8 c-0.6 0.9 -1.8 1.8 -2.6 2 l-1.5 0.3 -1.3 -1.5z"/>
  <path d="M1024 312.6 l-1.2 -1.6 0.6 -1.5 c0.3 -0.9 1.3 -1.8 2.2 -2.2 l1.6 -0.6 1.6 1.7 1.7 1.6 -1.1 1.8 c-0.6 0.9 -1.8 1.8 -2.6 2 l-1.5 0.3 -1.3 -1.5z"/>
  <path d="M1045 312.6 l-1.2 -1.6 0.6 -1.5 c0.3 -0.9 1.3 -1.8 2.2 -2.2 l1.6 -0.6 1.6 1.7 1.7 1.6 -1.1 1.8 c-0.6 0.9 -1.8 1.8 -2.6 2 l-1.5 0.3 -1.3 -1.5z"/>
  <path d="M1066 312.6 l-1.2 -1.6 0.6 -1.5 c0.3 -0.9 1.3 -1.8 2.2 -2.2 l1.6 -0.6 1.6 1.7 1.7 1.6 -1.1 1.8 c-0.6 0.9 -1.8 1.8 -2.6 2 l-1.5 0.3 -1.3 -1.5z"/>
  <path d="M1087 312.6 l-1.2 -1.6 0.6 -1.5 c0.3 -0.9 1.3 -1.8 2.2 -2.2 l1.6 -0.6 1.6 1.7 1.7 1.6 -1.1 1.8 c-0.6 0.9 -1.8 1.8 -2.6 2 l-1.5 0.3 -1.3 -1.5z"/>
  <path d="M1108 312.6 l-1.2 -1.6 0.6 -1.5 c0.3 -0.9 1.3 -1.8 2.2 -2.2 l1.6 -0.6 1.6 1.7 1.7 1.6 -1.1 1.8 c-0.6 0.9 -1.8 1.8 -2.6 2 l-1.5 0.3 -1.3 -1.5z"/>
  <path d="M1129 312.6 l-1.2 -1.6 0.6 -1.5 c0.3 -0.9 1.3 -1.8 2.2 -2.2 l1.6 -0.6 1.6 1.7 1.7 1.6 -1.1 1.8 c-0.6 0.9 -1.8 1.8 -2.6 2 l-1.5 0.3 -1.3 -1.5z"/>
  <path d="M1150 312.6 l-1.2 -1.6 0.6 -1.5 c0.3 -0.9 1.3 -1.8 2.2 -2.2 l1.6 -0.6 1.6 1.7 1.7 1.6 -1.1 1.8 c-0.6 0.9 -1.8 1.8 -2.6 2 l-1.5 0.3 -1.3 -1.5z"/>
  <path d="M1171 312.6 l-1.2 -1.6 0.6 -1.5 c0.3 -0.9 1.3 -1.8 2.2 -2.2 l1.6 -0.6 1.6 1.7 1.7 1.6 -1.1 1.8 c-0.6 0.9 -1.8 1.8 -2.6 2 l-1.5 0.3 -1.3 -1.5z"/>
  <path d="M1192 312.6 l-1.2 -1.6 0.6 -1.5 c0.3 -0.9 1.3 -1.8 2.2 -2.2 l1.6 -0.6 1.6 1.7 1.7 1.6 -1.1 1.8 c-0.6 0.9 -1.8 1.8 -2.6 2 l-1.5 0.3 -1.3 -1.5z"/>
  <path d="M1213 312.6 l-1.2 -1.6 0.6 -1.5 c0.3 -0.9 1.3 -1.8 2.2 -2.2 l1.6 -0.6 1.6 1.7 1.7 1.6 -1.1 1.8 c-0.6 0.9 -1.8 1.8 -2.6 2 l-1.5 0.3 -1.3 -1.5z"/>
  <path d="M1234 312.6 l-1.2 -1.6 0.6 -1.5 c0.3 -0.9 1.3 -1.8 2.2 -2.2 l1.6 -0.6 1.6 1.7 1.7 1.6 -1.1 1.8 c-0.6 0.9 -1.8 1.8 -2.6 2 l-1.5 0.3 -1.3 -1.5z"/>
  <path d="M1255 312.6 l-1.2 -1.6 0.6 -1.5 c0.3 -0.9 1.3 -1.8 2.2 -2.2 l1.6 -0.6 1.6 1.7 1.7 1.6 -1.1 1.8 c-0.6 0.9 -1.8 1.8 -2.6 2 l-1.5 0.3 -1.3 -1.5z"/>
  <path d="M1276 312.6 l-1.2 -1.6 0.6 -1.5 c0.3 -0.9 1.3 -1.8 2.2 -2.2 l1.6 -0.6 1.6 1.7 1.7 1.6 -1.1 1.8 c-0.6 0.9 -1.8 1.8 -2.6 2 l-1.5 0.3 -1.3 -1.5z"/>
  <path d="M1297 312.6 l-1.2 -1.6 0.6 -1.5 c0.3 -0.9 1.3 -1.8 2.2 -2.2 l1.6 -0.6 1.6 1.7 1.7 1.6 -1.1 1.8 c-0.6 0.9 -1.8 1.8 -2.6 2 l-1.5 0.3 -1.3 -1.5z"/>
  <path d="M1318 312.6 l-1.2 -1.6 0.6 -1.5 c0.3 -0.9 1.3 -1.8 2.2 -2.2 l1.6 -0.6 1.6 1.7 1.7 1.6 -1.1 1.8 c-0.6 0.9 -1.8 1.8 -2.6 2 l-1.5 0.3 -1.3 -1.5z"/>
  <path d="M1339 312.6 l-1.2 -1.6 0.6 -1.5 c0.3 -0.9 1.3 -1.8 2.2 -2.2 l1.6 -0.6 1.6 1.7 1.7 1.6 -1.1 1.8 c-0.6 0.9 -1.8 1.8 -2.6 2 l-1.5 0.3 -1.3 -1.5z"/>
  <path d="M1360 312.6 l-1.2 -1.6 0.6 -1.5 c0.3 -0.9 1.3 -1.8 2.2 -2.2 l1.6 -0.6 1.6 1.7 1.7 1.6 -1.1 1.8 c-0.6 0.9 -1.8 1.8 -2.6 2 l-1.5 0.3 -1.3 -1.5z"/>
  <path d="M1381 312.6 l-1.2 -1.6 0.6 -1.5 c0.3 -0.9 1.3 -1.8 2.2 -2.2 l1.6 -0.6 1.6 1.7 1.7 1.6 -1.1 1.8 c-0.6 0.9 -1.8 1.8 -2.6 2 l-1.5 0.3 -1.3 -1.5z"/>
  <path d="M1402 312.6 l-1.2 -1.6 0.6 -1.5 c0.3 -0.9 1.3 -1.8 2.2 -2.2 l1.6 -0.6 1.6 1.7 1.7 1.6 -1.1 1.8 c-0.6 0.9 -1.8 1.8 -2.6 2 l-1.5 0.3 -1.3 -1.5z"/>
  <path d="M1423 312.6 l-1.2 -1.6 0.6 -1.5 c0.3 -0.9 1.3 -1.8 2.2 -2.2 l1.6 -0.6 1.6 1.7 1.7 1.6 -1.1 1.8 c-0.6 0.9 -1.8 1.8 -2.6 2 l-1.5 0.3 -1.3 -1.5z"/>
  <path d="M1444 312.6 l-1.2 -1.6 0.6 -1.5 c0.3 -0.9 1.3 -1.8 2.2 -2.2 l1.6 -0.6 1.6 1.7 1.7 1.6 -1.1 1.8 c-0.6 0.9 -1.8 1.8 -2.6 2 l-1.5 0.3 -1.3 -1.5z"/>
  <path d="M1465 312.6 l-1.2 -1.6 0.6 -1.5 c0.3 -0.9 1.3 -1.8 2.2 -2.2 l1.6 -0.6 1.6 1.7 1.7 1.6 -1.1 1.8 c-0.6 0.9 -1.8 1.8 -2.6 2 l-1.5 0.3 -1.3 -1.5z"/>
  <path d="M1486 312.6 l-1.2 -1.6 0.6 -1.5 c0.3 -0.9 1.3 -1.8 2.2 -2.2 l1.6 -0.6 1.6 1.7 1.7 1.6 -1.1 1.8 c-0.6 0.9 -1.8 1.8 -2.6 2 l-1.5 0.3 -1.3 -1.5z"/>
  <path d="M1507 312.6 l-1.2 -1.6 0.6 -1.5 c0.3 -0.9 1.3 -1.8 2.2 -2.2 l1.6 -0.6 1.6 1.7 1.7 1.6 -1.1 1.8 c-0.6 0.9 -1.8 1.8 -2.6 2 l-1.5 0.3 -1.3 -1.5z"/>
  <path d="M1528 312.6 l-1.2 -1.6 0.6 -1.5 c0.3 -0.9 1.3 -1.8 2.2 -2.2 l1.6 -0.6 1.6 1.7 1.7 1.6 -1.1 1.8 c-0.6 0.9 -1.8 1.8 -2.6 2 l-1.5 0.3 -1.3 -1.5z"/>
  <path d="M1549 312.6 l-1.2 -1.6 0.6 -1.5 c0.3 -0.9 1.3 -1.8 2.2 -2.2 l1.6 -0.6 1.6 1.7 1.7 1.6 -1.1 1.8 c-0.6 0.9 -1.8 1.8 -2.6 2 l-1.5 0.3 -1.3 -1.5z"/>
  <path d="M1570 312.6 l-1.2 -1.6 0.6 -1.5 c0.3 -0.9 1.3 -1.8 2.2 -2.2 l1.6 -0.6 1.6 1.7 1.7 1.6 -1.1 1.8 c-0.6 0.9 -1.8 1.8 -2.6 2 l-1.5 0.3 -1.3 -1.5z"/>
  <path d="M1591 312.6 l-1.2 -1.6 0.6 -1.5 c0.3 -0.9 1.3 -1.8 2.2 -2.2 l1.6 -0.6 1.6 1.7 1.7 1.6 -1.1 1.8 c-0.6 0.9 -1.8 1.8 -2.6 2 l-1.5 0.3 -1.3 -1.5z"/>
  <path d="M34.3 301.5 l-2.8 -2.4 2.6 -0.1 2.6 0 2.3 2.5 2.3 2.5 -2.1 0 -2.1 0 -2.8 -2.5z"/>
  <path d="M97.3 301.5 l-2.8 -2.4 2.6 -0.1 2.6 0 2.3 2.5 2.3 2.5 -2.1 0 -2.1 0 -2.8 -2.5z"/>
  <path d="M181.3 301.5 l-2.8 -2.4 2.6 -0.1 2.6 0 2.3 2.5 2.3 2.5 -2.1 0 -2.1 0 -2.8 -2.5z"/>
  <path d="M223.3 301.5 l-2.8 -2.4 2.6 -0.1 2.6 0 2.3 2.5 2.3 2.5 -2.1 0 -2.1 0 -2.8 -2.5z"/>
  <path d="M265.3 301.5 l-2.8 -2.4 2.6 -0.1 2.6 0 2.3 2.5 2.3 2.5 -2.1 0 -2.1 0 -2.8 -2.5z"/>
  <path d="M307.3 301.5 l-2.8 -2.4 2.6 -0.1 2.6 0 2.3 2.5 2.3 2.5 -2.1 0 -2.1 0 -2.8 -2.5z"/>
  <path d="M349.3 301.5 l-2.8 -2.4 2.6 -0.1 2.6 0 2.3 2.5 2.3 2.5 -2.1 0 -2.1 0 -2.8 -2.5z"/>
  <path d="M391.3 301.5 l-2.8 -2.4 2.6 -0.1 2.6 0 2.3 2.5 2.3 2.5 -2.1 0 -2.1 0 -2.8 -2.5z"/>
  <path d="M433.3 301.5 l-2.8 -2.4 2.6 -0.1 2.6 0 2.3 2.5 2.3 2.5 -2.1 0 -2.1 0 -2.8 -2.5z"/>
  <path d="M475.3 301.5 l-2.8 -2.4 2.6 -0.1 2.6 0 2.3 2.5 2.3 2.5 -2.1 0 -2.1 0 -2.8 -2.5z"/>
  <path d="M1615 301.5 l2.3 -2.5 2.6 0 2.6 0.1 -3 2.4 -3 2.5 -1.9 0 -1.9 0 2.3 -2.5z"/>
  <path d="M542 270 l0 -19 2 0 2 0 0 19 0 19 -2 0 -2 0 0 -19z"/>
  <path d="M1625 287 l0 -2 10.5 0 10.5 0 0 2 0 2 -10.5 0 -10.5 0 0 -2z"/>
  <path d="M18.2 284.5 l-3.1 -3.4 -1 -3.8 c-1.4 -4.9 -1.4 -7.7 0 -12.4 l1.2 -3.8 2.9 -3.5 2.9 -3.6 1.5 0 1.4 0 0 1.1 c0 0.6 -1.1 2.5 -2.4 4.2 l-2.4 3.2 -1.1 4 -1 4 0.8 3.5 c0.9 4 2.7 7.7 4.8 10.2 l1.5 1.7 -0.7 1 c-1 1.8 -2.1 1.3 -5.3 -2.4z"/>
  <path d="M81.2 284.5 l-3.1 -3.4 -1 -3.8 c-1.4 -4.9 -1.4 -7.7 0 -12.4 l1.2 -3.8 2.9 -3.5 2.9 -3.6 1.5 0 1.4 0 0 1.1 c0 0.6 -1.1 2.5 -2.4 4.2 l-2.4 3.2 -1.1 4 -1 4 0.8 3.5 c0.9 4 2.7 7.7 4.8 10.2 l1.5 1.7 -0.7 1 c-1 1.8 -2.1 1.3 -5.3 -2.4z"/>
  <path d="M123.2 284.5 l-3.1 -3.4 -1 -3.8 c-1.4 -4.9 -1.4 -7.7 0 -12.4 l1.2 -3.8 2.9 -3.5 2.9 -3.6 1.5 0 1.4 0 0 1.1 c0 0.6 -1.1 2.5 -2.4 4.2 l-2.4 3.2 -1.1 4 -1 4 0.8 3.5 c0.9 4 2.7 7.7 4.8 10.2 l1.5 1.7 -0.7 1 c-1 1.8 -2.1 1.3 -5.3 -2.4z"/>
  <path d="M165.2 284.5 l-3.1 -3.4 -1 -3.8 c-1.4 -4.9 -1.4 -7.7 0 -12.4 l1.2 -3.8 2.9 -3.5 2.9 -3.6 1.5 0 1.4 0 0 1.1 c0 0.6 -1.1 2.5 -2.4 4.2 l-2.4 3.2 -1.1 4 -1 4 0.8 3.5 c0.9 4 2.7 7.7 4.8 10.2 l1.5 1.7 -0.7 1 c-1 1.8 -2.1 1.3 -5.3 -2.4z"/>
  <path d="M207.2 284.5 l-3.1 -3.4 -1 -3.8 c-1.4 -4.9 -1.4 -7.7 0 -12.4 l1.2 -3.8 2.9 -3.5 2.9 -3.6 1.5 0 1.4 0 0 1.1 c0 0.6 -1.1 2.5 -2.4 4.2 l-2.4 3.2 -1.1 4 -1 4 0.8 3.5 c0.9 4 2.7 7.7 4.8 10.2 l1.5 1.7 -0.7 1 c-1 1.8 -2.1 1.3 -5.3 -2.4z"/>
  <path d="M249.2 284.5 l-3.1 -3.4 -1 -3.8 c-1.4 -4.9 -1.4 -7.7 0 -12.4 l1.2 -3.8 2.9 -3.5 2.9 -3.6 1.5 0 1.4 0 0 1.1 c0 0.6 -1.1 2.5 -2.4 4.2 l-2.4 3.2 -1.1 4 -1 4 0.8 3.5 c0.9 4 2.7 7.7 4.8 10.2 l1.5 1.7 -0.7 1 c-1 1.8 -2.1 1.3 -5.3 -2.4z"/>
  <path d="M291.2 284.5 l-3.1 -3.4 -1 -3.8 c-1.4 -4.9 -1.4 -7.7 0 -12.4 l1.2 -3.8 2.9 -3.5 2.9 -3.6 1.5 0 1.4 0 0 1.1 c0 0.6 -1.1 2.5 -2.4 4.2 l-2.4 3.2 -1.1 4 -1 4 0.8 3.5 c0.9 4 2.7 7.7 4.8 10.2 l1.5 1.7 -0.7 1 c-1 1.8 -2.1 1.3 -5.3 -2.4z"/>
  <path d="M333.2 284.5 l-3.1 -3.4 -1 -3.8 c-1.4 -4.9 -1.4 -7.7 0 -12.4 l1.2 -3.8 2.9 -3.5 2.9 -3.6 1.5 0 1.4 0 0 1.1 c0 0.6 -1.1 2.5 -2.4 4.2 l-2.4 3.2 -1.1 4 -1 4 0.8 3.5 c0.9 4 2.7 7.7 4.8 10.2 l1.5 1.7 -0.7 1 c-1 1.8 -2.1 1.3 -5.3 -2.4z"/>
  <path d="M375.2 284.5 l-3.1 -3.4 -1 -3.8 c-1.4 -4.9 -1.4 -7.7 0 -12.4 l1.2 -3.8 2.9 -3.5 2.9 -3.6 1.5 0 1.4 0 0 1.1 c0 0.6 -1.1 2.5 -2.4 4.2 l-2.4 3.2 -1.1 4 -1 4 0.8 3.5 c0.9 4 2.7 7.7 4.8 10.2 l1.5 1.7 -0.7 1 c-1 1.8 -2.1 1.3 -5.3 -2.4z"/>
  <path d="M417.2 284.5 l-3.1 -3.4 -1 -3.8 c-1.4 -4.9 -1.4 -7.7 0 -12.4 l1.2 -3.8 2.9 -3.5 2.9 -3.6 1.5 0 1.4 0 0 1.1 c0 0.6 -1.1 2.5 -2.4 4.2 l-2.4 3.2 -1.1 4 -1 4 0.8 3.5 c0.9 4 2.7 7.7 4.8 10.2 l1.5 1.7 -0.7 1 c-1 1.8 -2.1 1.3 -5.3 -2.4z"/>
  <path d="M459.2 284.5 l-3.1 -3.4 -1 -3.8 c-1.4 -4.9 -1.4 -7.7 0 -12.4 l1.2 -3.8 2.9 -3.5 2.9 -3.6 1.5 0 1.4 0 0 1.1 c0 0.6 -1.1 2.5 -2.4 4.2 l-2.4 3.2 -1.1 4 -1 4 0.8 3.5 c0.9 4 2.7 7.7 4.8 10.2 l1.5 1.7 -0.7 1 c-1 1.8 -2.1 1.3 -5.3 -2.4z"/>
  <path d="M501.2 284.5 l-3.1 -3.4 -1 -3.8 c-1.4 -4.9 -1.4 -7.7 0 -12.4 l1.2 -3.8 2.9 -3.5 2.9 -3.6 1.5 0 1.4 0 0 1.1 c0 0.6 -1.1 2.5 -2.4 4.2 l-2.4 3.2 -1.1 4 -1 4 0.8 3.5 c0.9 4 2.7 7.7 4.8 10.2 l1.5 1.7 -0.7 1 c-1 1.8 -2.1 1.3 -5.3 -2.4z"/>
  <path d="M601.5 287 l-0.6 -1 2.5 -3.1 2.5 -3 1.2 -4.1 1.1 -4.1 -1.2 -4.6 -1.2 -4.6 -2.4 -3.3 -2.5 -3.2 0.6 -1 c0.3 -0.6 1.2 -1 1.9 -1 l1.3 0 2.6 3.8 c4.8 6.9 5.7 12 3.6 19.5 l-1 3.8 -3.1 3.4 c-3.2 3.7 -4.3 4.2 -5.3 2.5z"/>
  <path d="M622.5 287 l-0.6 -1 2.5 -3.1 2.5 -3 1.2 -4.1 1.1 -4.1 -1.2 -4.6 -1.2 -4.6 -2.4 -3.3 -2.5 -3.2 0.6 -1 c0.3 -0.6 1.2 -1 1.9 -1 l1.3 0 2.6 3.8 c4.8 6.9 5.7 12 3.6 19.5 l-1 3.8 -3.1 3.4 c-3.2 3.7 -4.3 4.2 -5.3 2.5z"/>
  <path d="M1654 279.6 l-1.2 -1.6 0.6 -1.5 c0.3 -0.9 1.3 -1.8 2.2 -2.2 l1.6 -0.6 1.6 1.7 1.7 1.6 -1.1 1.8 c-0.6 0.9 -1.8 1.8 -2.6 2 l-1.5 0.3 -1.3 -1.5z"/>
  <path d="M1672.1 279.6 l-1.2 -1.4 4.6 -3.8 4.6 -3.7 -4.6 -4 -4.6 -3.9 1.2 -1.4 1.1 -1.4 5.7 4.8 c3.1 2.6 5.8 5.1 5.9 5.5 l0.3 0.8 -5.9 4.9 -6 5 -1.1 -1.4z"/>
  <path d="M725 275 l0 -2 7.5 0 7.5 0 0 2 0 2 -7.5 0 -7.5 0 0 -2z"/>
  <path d="M746 275 l0 -2 7.5 0 7.5 0 0 2 0 2 -7.5 0 -7.5 0 0 -2z"/>
  <path d="M767 275 l0 -2 7.5 0 7.5 0 0 2 0 2 -7.5 0 -7.5 0 0 -2z"/>
  <path d="M788 275 l0 -2 7.5 0 7.5 0 0 2 0 2 -7.5 0 -7.5 0 0 -2z"/>
  <path d="M809 275 l0 -2 7.5 0 7.5 0 0 2 0 2 -7.5 0 -7.5 0 0 -2z"/>
  <path d="M830 275 l0 -2 7.5 0 7.5 0 0 2 0 2 -7.5 0 -7.5 0 0 -2z"/>
  <path d="M851 275 l0 -2 7.5 0 7.5 0 0 2 0 2 -7.5 0 -7.5 0 0 -2z"/>
  <path d="M872 275 l0 -2 7.5 0 7.5 0 0 2 0 2 -7.5 0 -7.5 0 0 -2z"/>
  <path d="M893 275 l0 -2 7.5 0 7.5 0 0 2 0 2 -7.5 0 -7.5 0 0 -2z"/>
  <path d="M914 275 l0 -2 7.5 0 7.5 0 0 2 0 2 -7.5 0 -7.5 0 0 -2z"/>
  <path d="M935 275 l0 -2 7.5 0 7.5 0 0 2 0 2 -7.5 0 -7.5 0 0 -2z"/>
  <path d="M956 275 l0 -2 7.5 0 7.5 0 0 2 0 2 -7.5 0 -7.5 0 0 -2z"/>
  <path d="M977 275 l0 -2 7.5 0 7.5 0 0 2 0 2 -7.5 0 -7.5 0 0 -2z"/>
  <path d="M998 275 l0 -2 7.5 0 7.5 0 0 2 0 2 -7.5 0 -7.5 0 0 -2z"/>
  <path d="M1019 275 l0 -2 7.5 0 7.5 0 0 2 0 2 -7.5 0 -7.5 0 0 -2z"/>
  <path d="M1040 275 l0 -2 7.5 0 7.5 0 0 2 0 2 -7.5 0 -7.5 0 0 -2z"/>
  <path d="M1061 275 l0 -2 7.5 0 7.5 0 0 2 0 2 -7.5 0 -7.5 0 0 -2z"/>
  <path d="M1082 275 l0 -2 7.5 0 7.5 0 0 2 0 2 -7.5 0 -7.5 0 0 -2z"/>
  <path d="M1103 275 l0 -2 7.5 0 7.5 0 0 2 0 2 -7.5 0 -7.5 0 0 -2z"/>
  <path d="M1124 275 l0 -2 7.5 0 7.5 0 0 2 0 2 -7.5 0 -7.5 0 0 -2z"/>
  <path d="M1145 275 l0 -2 7.5 0 7.5 0 0 2 0 2 -7.5 0 -7.5 0 0 -2z"/>
  <path d="M1166 275 l0 -2 7.5 0 7.5 0 0 2 0 2 -7.5 0 -7.5 0 0 -2z"/>
  <path d="M1187 275 l0 -2 7.5 0 7.5 0 0 2 0 2 -7.5 0 -7.5 0 0 -2z"/>
  <path d="M1208 275 l0 -2 7.5 0 7.5 0 0 2 0 2 -7.5 0 -7.5 0 0 -2z"/>
  <path d="M1229 275 l0 -2 7.5 0 7.5 0 0 2 0 2 -7.5 0 -7.5 0 0 -2z"/>
  <path d="M1250 275 l0 -2 7.5 0 7.5 0 0 2 0 2 -7.5 0 -7.5 0 0 -2z"/>
  <path d="M1271 275 l0 -2 7.5 0 7.5 0 0 2 0 2 -7.5 0 -7.5 0 0 -2z"/>
  <path d="M1292 275 l0 -2 7.5 0 7.5 0 0 2 0 2 -7.5 0 -7.5 0 0 -2z"/>
  <path d="M1313 275 l0 -2 7.5 0 7.5 0 0 2 0 2 -7.5 0 -7.5 0 0 -2z"/>
  <path d="M1334 275 l0 -2 7.5 0 7.5 0 0 2 0 2 -7.5 0 -7.5 0 0 -2z"/>
  <path d="M1355 275 l0 -2 7.5 0 7.5 0 0 2 0 2 -7.5 0 -7.5 0 0 -2z"/>
  <path d="M1376 275 l0 -2 7.5 0 7.5 0 0 2 0 2 -7.5 0 -7.5 0 0 -2z"/>
  <path d="M1397 275 l0 -2 7.5 0 7.5 0 0 2 0 2 -7.5 0 -7.5 0 0 -2z"/>
  <path d="M1418 275 l0 -2 7.5 0 7.5 0 0 2 0 2 -7.5 0 -7.5 0 0 -2z"/>
  <path d="M1439 275 l0 -2 7.5 0 7.5 0 0 2 0 2 -7.5 0 -7.5 0 0 -2z"/>
  <path d="M1460 275 l0 -2 7.5 0 7.5 0 0 2 0 2 -7.5 0 -7.5 0 0 -2z"/>
  <path d="M706 271 l0 -2 5.5 0 5.5 0 0 2 0 2 -5.5 0 -5.5 0 0 -2z"/>
  <path d="M1483 271 l0 -2 5.5 0 5.5 0 0 2 0 2 -5.5 0 -5.5 0 0 -2z"/>
  <path d="M725 267 l0 -2 7.5 0 7.5 0 0 2 0 2 -7.5 0 -7.5 0 0 -2z"/>
  <path d="M746 267 l0 -2 7.5 0 7.5 0 0 2 0 2 -7.5 0 -7.5 0 0 -2z"/>
  <path d="M767 267 l0 -2 7.5 0 7.5 0 0 2 0 2 -7.5 0 -7.5 0 0 -2z"/>
  <path d="M788 267 l0 -2 7.5 0 7.5 0 0 2 0 2 -7.5 0 -7.5 0 0 -2z"/>
  <path d="M809 267 l0 -2 7.5 0 7.5 0 0 2 0 2 -7.5 0 -7.5 0 0 -2z"/>
  <path d="M830 267 l0 -2 7.5 0 7.5 0 0 2 0 2 -7.5 0 -7.5 0 0 -2z"/>
  <path d="M851 267 l0 -2 7.5 0 7.5 0 0 2 0 2 -7.5 0 -7.5 0 0 -2z"/>
  <path d="M872 267 l0 -2 7.5 0 7.5 0 0 2 0 2 -7.5 0 -7.5 0 0 -2z"/>
  <path d="M893 267 l0 -2 7.5 0 7.5 0 0 2 0 2 -7.5 0 -7.5 0 0 -2z"/>
  <path d="M914 267 l0 -2 7.5 0 7.5 0 0 2 0 2 -7.5 0 -7.5 0 0 -2z"/>
  <path d="M935 267 l0 -2 7.5 0 7.5 0 0 2 0 2 -7.5 0 -7.5 0 0 -2z"/>
  <path d="M956 267 l0 -2 7.5 0 7.5 0 0 2 0 2 -7.5 0 -7.5 0 0 -2z"/>
  <path d="M977 267 l0 -2 7.5 0 7.5 0 0 2 0 2 -7.5 0 -7.5 0 0 -2z"/>
  <path d="M998 267 l0 -2 7.5 0 7.5 0 0 2 0 2 -7.5 0 -7.5 0 0 -2z"/>
  <path d="M1019 267 l0 -2 7.5 0 7.5 0 0 2 0 2 -7.5 0 -7.5 0 0 -2z"/>
  <path d="M1040 267 l0 -2 7.5 0 7.5 0 0 2 0 2 -7.5 0 -7.5 0 0 -2z"/>
  <path d="M1061 267 l0 -2 7.5 0 7.5 0 0 2 0 2 -7.5 0 -7.5 0 0 -2z"/>
  <path d="M1082 267 l0 -2 7.5 0 7.5 0 0 2 0 2 -7.5 0 -7.5 0 0 -2z"/>
  <path d="M1103 267 l0 -2 7.5 0 7.5 0 0 2 0 2 -7.5 0 -7.5 0 0 -2z"/>
  <path d="M1124 267 l0 -2 7.5 0 7.5 0 0 2 0 2 -7.5 0 -7.5 0 0 -2z"/>
  <path d="M1145 267 l0 -2 7.5 0 7.5 0 0 2 0 2 -7.5 0 -7.5 0 0 -2z"/>
  <path d="M1166 267 l0 -2 7.5 0 7.5 0 0 2 0 2 -7.5 0 -7.5 0 0 -2z"/>
  <path d="M1187 267 l0 -2 7.5 0 7.5 0 0 2 0 2 -7.5 0 -7.5 0 0 -2z"/>
  <path d="M1208 267 l0 -2 7.5 0 7.5 0 0 2 0 2 -7.5 0 -7.5 0 0 -2z"/>
  <path d="M1229 267 l0 -2 7.5 0 7.5 0 0 2 0 2 -7.5 0 -7.5 0 0 -2z"/>
  <path d="M1250 267 l0 -2 7.5 0 7.5 0 0 2 0 2 -7.5 0 -7.5 0 0 -2z"/>
  <path d="M1271 267 l0 -2 7.5 0 7.5 0 0 2 0 2 -7.5 0 -7.5 0 0 -2z"/>
  <path d="M1292 267 l0 -2 7.5 0 7.5 0 0 2 0 2 -7.5 0 -7.5 0 0 -2z"/>
  <path d="M1313 267 l0 -2 7.5 0 7.5 0 0 2 0 2 -7.5 0 -7.5 0 0 -2z"/>
  <path d="M1334 267 l0 -2 7.5 0 7.5 0 0 2 0 2 -7.5 0 -7.5 0 0 -2z"/>
  <path d="M1355 267 l0 -2 7.5 0 7.5 0 0 2 0 2 -7.5 0 -7.5 0 0 -2z"/>
  <path d="M1376 267 l0 -2 7.5 0 7.5 0 0 2 0 2 -7.5 0 -7.5 0 0 -2z"/>
  <path d="M1397 267 l0 -2 7.5 0 7.5 0 0 2 0 2 -7.5 0 -7.5 0 0 -2z"/>
  <path d="M1418 267 l0 -2 7.5 0 7.5 0 0 2 0 2 -7.5 0 -7.5 0 0 -2z"/>
  <path d="M1439 267 l0 -2 7.5 0 7.5 0 0 2 0 2 -7.5 0 -7.5 0 0 -2z"/>
  <path d="M1460 267 l0 -2 7.5 0 7.5 0 0 2 0 2 -7.5 0 -7.5 0 0 -2z"/>
  <path d="M542 225 l0 -19 2 0 2 0 0 19 0 19 -2 0 -2 0 0 -19z"/>
  <path d="M1625 242 l0 -2 10.5 0 10.5 0 0 2 0 2 -10.5 0 -10.5 0 0 -2z"/>
  <path d="M138 241.5 l0 -1.5 1.8 0 1.8 0 1.1 -1.1 1.2 -1.2 -1.4 -2.7 -1.4 -2.8 1.5 -1.3 1.6 -1.3 1.6 1.1 1.7 1 0.3 1.7 c0.2 1 0.1 2.8 -0.2 4.2 l-0.6 2.4 -3 1.5 c-1.6 0.8 -3.6 1.5 -4.5 1.5 l-1.5 0 0 -1.5z"/>
  <path d="M585.2 239.5 l-3.1 -3.4 -1 -3.8 c-1.4 -4.9 -1.4 -7.7 0 -12.4 l1.2 -3.8 2.9 -3.5 2.9 -3.6 1.5 0 1.4 0 0 1.1 c0 0.6 -1.1 2.5 -2.4 4.2 l-2.4 3.2 -1.1 4 -1 4 0.8 3.5 c0.9 4 2.7 7.7 4.8 10.2 l1.5 1.7 -0.7 1 c-1 1.8 -2.1 1.3 -5.3 -2.4z"/>
  <path d="M606.2 239.5 l-3.1 -3.4 -1 -3.8 c-1.4 -4.9 -1.4 -7.7 0 -12.4 l1.2 -3.8 2.9 -3.5 2.9 -3.6 1.5 0 1.4 0 0 1.1 c0 0.6 -1.1 2.5 -2.4 4.2 l-2.4 3.2 -1.1 4 -1 4 0.8 3.5 c0.9 4 2.7 7.7 4.8 10.2 l1.5 1.7 -0.7 1 c-1 1.8 -2.1 1.3 -5.3 -2.4z"/>
  <path d="M514 239.4 c0 -0.3 2.8 -7.2 6.2 -15.5 l6.2 -14.9 1.8 0 1.8 0 0 0.8 c0 0.4 -2.8 7.3 -6.2 15.5 l-6.1 14.7 -1.9 0 c-1 0 -1.8 -0.2 -1.8 -0.6z"/>
  <path d="M100 234.6 l-1.2 -1.6 0.6 -1.5 c0.3 -0.9 1.3 -1.8 2.2 -2.2 l1.6 -0.6 1.6 1.7 1.7 1.6 -1.1 1.8 c-0.6 0.9 -1.8 1.8 -2.6 2 l-1.5 0.3 -1.3 -1.5z"/>
  <path d="M184 234.6 l-1.2 -1.6 0.6 -1.5 c0.3 -0.9 1.3 -1.8 2.2 -2.2 l1.6 -0.6 1.6 1.7 1.7 1.6 -1.1 1.8 c-0.6 0.9 -1.8 1.8 -2.6 2 l-1.5 0.3 -1.3 -1.5z"/>
  <path d="M226 234.6 l-1.2 -1.6 0.6 -1.5 c0.3 -0.9 1.3 -1.8 2.2 -2.2 l1.6 -0.6 1.6 1.7 1.7 1.6 -1.1 1.8 c-0.6 0.9 -1.8 1.8 -2.6 2 l-1.5 0.3 -1.3 -1.5z"/>
  <path d="M268 234.6 l-1.2 -1.6 0.6 -1.5 c0.3 -0.9 1.3 -1.8 2.2 -2.2 l1.6 -0.6 1.6 1.7 1.7 1.6 -1.1 1.8 c-0.6 0.9 -1.8 1.8 -2.6 2 l-1.5 0.3 -1.3 -1.5z"/>
  <path d="M310 234.6 l-1.2 -1.6 0.6 -1.5 c0.3 -0.9 1.3 -1.8 2.2 -2.2 l1.6 -0.6 1.6 1.7 1.7 1.6 -1.1 1.8 c-0.6 0.9 -1.8 1.8 -2.6 2 l-1.5 0.3 -1.3 -1.5z"/>
  <path d="M352 234.6 l-1.2 -1.6 0.6 -1.5 c0.3 -0.9 1.3 -1.8 2.2 -2.2 l1.6 -0.6 1.6 1.7 1.7 1.6 -1.1 1.8 c-0.6 0.9 -1.8 1.8 -2.6 2 l-1.5 0.3 -1.3 -1.5z"/>
  <path d="M394 234.6 l-1.2 -1.6 0.6 -1.5 c0.3 -0.9 1.3 -1.8 2.2 -2.2 l1.6 -0.6 1.6 1.7 1.7 1.6 -1.1 1.8 c-0.6 0.9 -1.8 1.8 -2.6 2 l-1.5 0.3 -1.3 -1.5z"/>
  <path d="M436 234.6 l-1.2 -1.6 0.6 -1.5 c0.3 -0.9 1.3 -1.8 2.2 -2.2 l1.6 -0.6 1.6 1.7 1.7 1.6 -1.1 1.8 c-0.6 0.9 -1.8 1.8 -2.6 2 l-1.5 0.3 -1.3 -1.5z"/>
  <path d="M478 234.6 l-1.2 -1.6 0.6 -1.5 c0.3 -0.9 1.3 -1.8 2.2 -2.2 l1.6 -0.6 1.6 1.7 1.7 1.6 -1.1 1.8 c-0.6 0.9 -1.8 1.8 -2.6 2 l-1.5 0.3 -1.3 -1.5z"/>
  <path d="M625 234.6 l-1.2 -1.6 0.6 -1.5 c0.3 -0.9 1.3 -1.8 2.2 -2.2 l1.6 -0.6 1.6 1.7 1.7 1.6 -1.1 1.8 c-0.6 0.9 -1.8 1.8 -2.6 2 l-1.5 0.3 -1.3 -1.5z"/>
  <path d="M646 234.6 l-1.2 -1.6 0.6 -1.5 c0.3 -0.9 1.3 -1.8 2.2 -2.2 l1.6 -0.6 1.6 1.7 1.7 1.6 -1.1 1.8 c-0.6 0.9 -1.8 1.8 -2.6 2 l-1.5 0.3 -1.3 -1.5z"/>
  <path d="M667 234.6 l-1.2 -1.6 0.6 -1.5 c0.3 -0.9 1.3 -1.8 2.2 -2.2 l1.6 -0.6 1.6 1.7 1.7 1.6 -1.1 1.8 c-0.6 0.9 -1.8 1.8 -2.6 2 l-1.5 0.3 -1.3 -1.5z"/>
  <path d="M688 234.6 l-1.2 -1.6 0.6 -1.5 c0.3 -0.9 1.3 -1.8 2.2 -2.2 l1.6 -0.6 1.6 1.7 1.7 1.6 -1.1 1.8 c-0.6 0.9 -1.8 1.8 -2.6 2 l-1.5 0.3 -1.3 -1.5z"/>
  <path d="M709 234.6 l-1.2 -1.6 0.6 -1.5 c0.3 -0.9 1.3 -1.8 2.2 -2.2 l1.6 -0.6 1.6 1.7 1.7 1.6 -1.1 1.8 c-0.6 0.9 -1.8 1.8 -2.6 2 l-1.5 0.3 -1.3 -1.5z"/>
  <path d="M730 234.6 l-1.2 -1.6 0.6 -1.5 c0.3 -0.9 1.3 -1.8 2.2 -2.2 l1.6 -0.6 1.6 1.7 1.7 1.6 -1.1 1.8 c-0.6 0.9 -1.8 1.8 -2.6 2 l-1.5 0.3 -1.3 -1.5z"/>
  <path d="M751 234.6 l-1.2 -1.6 0.6 -1.5 c0.3 -0.9 1.3 -1.8 2.2 -2.2 l1.6 -0.6 1.6 1.7 1.7 1.6 -1.1 1.8 c-0.6 0.9 -1.8 1.8 -2.6 2 l-1.5 0.3 -1.3 -1.5z"/>
  <path d="M772 234.6 l-1.2 -1.6 0.6 -1.5 c0.3 -0.9 1.3 -1.8 2.2 -2.2 l1.6 -0.6 1.6 1.7 1.7 1.6 -1.1 1.8 c-0.6 0.9 -1.8 1.8 -2.6 2 l-1.5 0.3 -1.3 -1.5z"/>
  <path d="M793 234.6 l-1.2 -1.6 0.6 -1.5 c0.3 -0.9 1.3 -1.8 2.2 -2.2 l1.6 -0.6 1.6 1.7 1.7 1.6 -1.1 1.8 c-0.6 0.9 -1.8 1.8 -2.6 2 l-1.5 0.3 -1.3 -1.5z"/>
  <path d="M814 234.6 l-1.2 -1.6 0.6 -1.5 c0.3 -0.9 1.3 -1.8 2.2 -2.2 l1.6 -0.6 1.6 1.7 1.7 1.6 -1.1 1.8 c-0.6 0.9 -1.8 1.8 -2.6 2 l-1.5 0.3 -1.3 -1.5z"/>
  <path d="M835 234.6 l-1.2 -1.6 0.6 -1.5 c0.3 -0.9 1.3 -1.8 2.2 -2.2 l1.6 -0.6 1.6 1.7 1.7 1.6 -1.1 1.8 c-0.6 0.9 -1.8 1.8 -2.6 2 l-1.5 0.3 -1.3 -1.5z"/>
  <path d="M856 234.6 l-1.2 -1.6 0.6 -1.5 c0.3 -0.9 1.3 -1.8 2.2 -2.2 l1.6 -0.6 1.6 1.7 1.7 1.6 -1.1 1.8 c-0.6 0.9 -1.8 1.8 -2.6 2 l-1.5 0.3 -1.3 -1.5z"/>
  <path d="M877 234.6 l-1.2 -1.6 0.6 -1.5 c0.3 -0.9 1.3 -1.8 2.2 -2.2 l1.6 -0.6 1.6 1.7 1.7 1.6 -1.1 1.8 c-0.6 0.9 -1.8 1.8 -2.6 2 l-1.5 0.3 -1.3 -1.5z"/>
  <path d="M898 234.6 l-1.2 -1.6 0.6 -1.5 c0.3 -0.9 1.3 -1.8 2.2 -2.2 l1.6 -0.6 1.6 1.7 1.7 1.6 -1.1 1.8 c-0.6 0.9 -1.8 1.8 -2.6 2 l-1.5 0.3 -1.3 -1.5z"/>
  <path d="M919 234.6 l-1.2 -1.6 0.6 -1.5 c0.3 -0.9 1.3 -1.8 2.2 -2.2 l1.6 -0.6 1.6 1.7 1.7 1.6 -1.1 1.8 c-0.6 0.9 -1.8 1.8 -2.6 2 l-1.5 0.3 -1.3 -1.5z"/>
  <path d="M940 234.6 l-1.2 -1.6 0.6 -1.5 c0.3 -0.9 1.3 -1.8 2.2 -2.2 l1.6 -0.6 1.6 1.7 1.7 1.6 -1.1 1.8 c-0.6 0.9 -1.8 1.8 -2.6 2 l-1.5 0.3 -1.3 -1.5z"/>
  <path d="M961 234.6 l-1.2 -1.6 0.6 -1.5 c0.3 -0.9 1.3 -1.8 2.2 -2.2 l1.6 -0.6 1.6 1.7 1.7 1.6 -1.1 1.8 c-0.6 0.9 -1.8 1.8 -2.6 2 l-1.5 0.3 -1.3 -1.5z"/>
  <path d="M982 234.6 l-1.2 -1.6 0.6 -1.5 c0.3 -0.9 1.3 -1.8 2.2 -2.2 l1.6 -0.6 1.6 1.7 1.7 1.6 -1.1 1.8 c-0.6 0.9 -1.8 1.8 -2.6 2 l-1.5 0.3 -1.3 -1.5z"/>
  <path d="M1003 234.6 l-1.2 -1.6 0.6 -1.5 c0.3 -0.9 1.3 -1.8 2.2 -2.2 l1.6 -0.6 1.6 1.7 1.7 1.6 -1.1 1.8 c-0.6 0.9 -1.8 1.8 -2.6 2 l-1.5 0.3 -1.3 -1.5z"/>
  <path d="M1024 234.6 l-1.2 -1.6 0.6 -1.5 c0.3 -0.9 1.3 -1.8 2.2 -2.2 l1.6 -0.6 1.6 1.7 1.7 1.6 -1.1 1.8 c-0.6 0.9 -1.8 1.8 -2.6 2 l-1.5 0.3 -1.3 -1.5z"/>
  <path d="M1045 234.6 l-1.2 -1.6 0.6 -1.5 c0.3 -0.9 1.3 -1.8 2.2 -2.2 l1.6 -0.6 1.6 1.7 1.7 1.6 -1.1 1.8 c-0.6 0.9 -1.8 1.8 -2.6 2 l-1.5 0.3 -1.3 -1.5z"/>
  <path d="M1066 234.6 l-1.2 -1.6 0.6 -1.5 c0.3 -0.9 1.3 -1.8 2.2 -2.2 l1.6 -0.6 1.6 1.7 1.7 1.6 -1.1 1.8 c-0.6 0.9 -1.8 1.8 -2.6 2 l-1.5 0.3 -1.3 -1.5z"/>
  <path d="M1087 234.6 l-1.2 -1.6 0.6 -1.5 c0.3 -0.9 1.3 -1.8 2.2 -2.2 l1.6 -0.6 1.6 1.7 1.7 1.6 -1.1 1.8 c-0.6 0.9 -1.8 1.8 -2.6 2 l-1.5 0.3 -1.3 -1.5z"/>
  <path d="M1108 234.6 l-1.2 -1.6 0.6 -1.5 c0.3 -0.9 1.3 -1.8 2.2 -2.2 l1.6 -0.6 1.6 1.7 1.7 1.6 -1.1 1.8 c-0.6 0.9 -1.8 1.8 -2.6 2 l-1.5 0.3 -1.3 -1.5z"/>
  <path d="M1129 234.6 l-1.2 -1.6 0.6 -1.5 c0.3 -0.9 1.3 -1.8 2.2 -2.2 l1.6 -0.6 1.6 1.7 1.7 1.6 -1.1 1.8 c-0.6 0.9 -1.8 1.8 -2.6 2 l-1.5 0.3 -1.3 -1.5z"/>
  <path d="M1150 234.6 l-1.2 -1.6 0.6 -1.5 c0.3 -0.9 1.3 -1.8 2.2 -2.2 l1.6 -0.6 1.6 1.7 1.7 1.6 -1.1 1.8 c-0.6 0.9 -1.8 1.8 -2.6 2 l-1.5 0.3 -1.3 -1.5z"/>
  <path d="M1171 234.6 l-1.2 -1.6 0.6 -1.5 c0.3 -0.9 1.3 -1.8 2.2 -2.2 l1.6 -0.6 1.6 1.7 1.7 1.6 -1.1 1.8 c-0.6 0.9 -1.8 1.8 -2.6 2 l-1.5 0.3 -1.3 -1.5z"/>
  <path d="M1192 234.6 l-1.2 -1.6 0.6 -1.5 c0.3 -0.9 1.3 -1.8 2.2 -2.2 l1.6 -0.6 1.6 1.7 1.7 1.6 -1.1 1.8 c-0.6 0.9 -1.8 1.8 -2.6 2 l-1.5 0.3 -1.3 -1.5z"/>
  <path d="M1213 234.6 l-1.2 -1.6 0.6 -1.5 c0.3 -0.9 1.3 -1.8 2.2 -2.2 l1.6 -0.6 1.6 1.7 1.7 1.6 -1.1 1.8 c-0.6 0.9 -1.8 1.8 -2.6 2 l-1.5 0.3 -1.3 -1.5z"/>
  <path d="M1234 234.6 l-1.2 -1.6 0.6 -1.5 c0.3 -0.9 1.3 -1.8 2.2 -2.2 l1.6 -0.6 1.6 1.7 1.7 1.6 -1.1 1.8 c-0.6 0.9 -1.8 1.8 -2.6 2 l-1.5 0.3 -1.3 -1.5z"/>
  <path d="M1255 234.6 l-1.2 -1.6 0.6 -1.5 c0.3 -0.9 1.3 -1.8 2.2 -2.2 l1.6 -0.6 1.6 1.7 1.7 1.6 -1.1 1.8 c-0.6 0.9 -1.8 1.8 -2.6 2 l-1.5 0.3 -1.3 -1.5z"/>
  <path d="M1276 234.6 l-1.2 -1.6 0.6 -1.5 c0.3 -0.9 1.3 -1.8 2.2 -2.2 l1.6 -0.6 1.6 1.7 1.7 1.6 -1.1 1.8 c-0.6 0.9 -1.8 1.8 -2.6 2 l-1.5 0.3 -1.3 -1.5z"/>
  <path d="M1297 234.6 l-1.2 -1.6 0.6 -1.5 c0.3 -0.9 1.3 -1.8 2.2 -2.2 l1.6 -0.6 1.6 1.7 1.7 1.6 -1.1 1.8 c-0.6 0.9 -1.8 1.8 -2.6 2 l-1.5 0.3 -1.3 -1.5z"/>
  <path d="M1318 234.6 l-1.2 -1.6 0.6 -1.5 c0.3 -0.9 1.3 -1.8 2.2 -2.2 l1.6 -0.6 1.6 1.7 1.7 1.6 -1.1 1.8 c-0.6 0.9 -1.8 1.8 -2.6 2 l-1.5 0.3 -1.3 -1.5z"/>
  <path d="M1339 234.6 l-1.2 -1.6 0.6 -1.5 c0.3 -0.9 1.3 -1.8 2.2 -2.2 l1.6 -0.6 1.6 1.7 1.7 1.6 -1.1 1.8 c-0.6 0.9 -1.8 1.8 -2.6 2 l-1.5 0.3 -1.3 -1.5z"/>
  <path d="M1360 234.6 l-1.2 -1.6 0.6 -1.5 c0.3 -0.9 1.3 -1.8 2.2 -2.2 l1.6 -0.6 1.6 1.7 1.7 1.6 -1.1 1.8 c-0.6 0.9 -1.8 1.8 -2.6 2 l-1.5 0.3 -1.3 -1.5z"/>
  <path d="M1381 234.6 l-1.2 -1.6 0.6 -1.5 c0.3 -0.9 1.3 -1.8 2.2 -2.2 l1.6 -0.6 1.6 1.7 1.7 1.6 -1.1 1.8 c-0.6 0.9 -1.8 1.8 -2.6 2 l-1.5 0.3 -1.3 -1.5z"/>
  <path d="M1402 234.6 l-1.2 -1.6 0.6 -1.5 c0.3 -0.9 1.3 -1.8 2.2 -2.2 l1.6 -0.6 1.6 1.7 1.7 1.6 -1.1 1.8 c-0.6 0.9 -1.8 1.8 -2.6 2 l-1.5 0.3 -1.3 -1.5z"/>
  <path d="M1423 234.6 l-1.2 -1.6 0.6 -1.5 c0.3 -0.9 1.3 -1.8 2.2 -2.2 l1.6 -0.6 1.6 1.7 1.7 1.6 -1.1 1.8 c-0.6 0.9 -1.8 1.8 -2.6 2 l-1.5 0.3 -1.3 -1.5z"/>
  <path d="M1444 234.6 l-1.2 -1.6 0.6 -1.5 c0.3 -0.9 1.3 -1.8 2.2 -2.2 l1.6 -0.6 1.6 1.7 1.7 1.6 -1.1 1.8 c-0.6 0.9 -1.8 1.8 -2.6 2 l-1.5 0.3 -1.3 -1.5z"/>
  <path d="M1465 234.6 l-1.2 -1.6 0.6 -1.5 c0.3 -0.9 1.3 -1.8 2.2 -2.2 l1.6 -0.6 1.6 1.7 1.7 1.6 -1.1 1.8 c-0.6 0.9 -1.8 1.8 -2.6 2 l-1.5 0.3 -1.3 -1.5z"/>
  <path d="M1486 234.6 l-1.2 -1.6 0.6 -1.5 c0.3 -0.9 1.3 -1.8 2.2 -2.2 l1.6 -0.6 1.6 1.7 1.7 1.6 -1.1 1.8 c-0.6 0.9 -1.8 1.8 -2.6 2 l-1.5 0.3 -1.3 -1.5z"/>
  <path d="M1507 234.6 l-1.2 -1.6 0.6 -1.5 c0.3 -0.9 1.3 -1.8 2.2 -2.2 l1.6 -0.6 1.6 1.7 1.7 1.6 -1.1 1.8 c-0.6 0.9 -1.8 1.8 -2.6 2 l-1.5 0.3 -1.3 -1.5z"/>
  <path d="M1528 234.6 l-1.2 -1.6 0.6 -1.5 c0.3 -0.9 1.3 -1.8 2.2 -2.2 l1.6 -0.6 1.6 1.7 1.7 1.6 -1.1 1.8 c-0.6 0.9 -1.8 1.8 -2.6 2 l-1.5 0.3 -1.3 -1.5z"/>
  <path d="M1549 234.6 l-1.2 -1.6 0.6 -1.5 c0.3 -0.9 1.3 -1.8 2.2 -2.2 l1.6 -0.6 1.6 1.7 1.7 1.6 -1.1 1.8 c-0.6 0.9 -1.8 1.8 -2.6 2 l-1.5 0.3 -1.3 -1.5z"/>
  <path d="M1570 234.6 l-1.2 -1.6 0.6 -1.5 c0.3 -0.9 1.3 -1.8 2.2 -2.2 l1.6 -0.6 1.6 1.7 1.7 1.6 -1.1 1.8 c-0.6 0.9 -1.8 1.8 -2.6 2 l-1.5 0.3 -1.3 -1.5z"/>
  <path d="M1591 234.6 l-1.2 -1.6 0.6 -1.5 c0.3 -0.9 1.3 -1.8 2.2 -2.2 l1.6 -0.6 1.6 1.7 1.7 1.6 -1.1 1.8 c-0.6 0.9 -1.8 1.8 -2.6 2 l-1.5 0.3 -1.3 -1.5z"/>
  <path d="M1612 234.6 l-1.2 -1.6 0.6 -1.5 c0.3 -0.9 1.3 -1.8 2.2 -2.2 l1.6 -0.6 1.6 1.7 1.7 1.6 -1.1 1.8 c-0.6 0.9 -1.8 1.8 -2.6 2 l-1.5 0.3 -1.3 -1.5z"/>
  <path d="M118 226 l0 -2 5.5 0 5.5 0 0 2 0 2 -5.5 0 -5.5 0 0 -2z"/>
  <path d="M160 226 l0 -2 5.5 0 5.5 0 0 2 0 2 -5.5 0 -5.5 0 0 -2z"/>
  <path d="M202 226 l0 -2 5.5 0 5.5 0 0 2 0 2 -5.5 0 -5.5 0 0 -2z"/>
  <path d="M244 226 l0 -2 5.5 0 5.5 0 0 2 0 2 -5.5 0 -5.5 0 0 -2z"/>
  <path d="M286 226 l0 -2 5.5 0 5.5 0 0 2 0 2 -5.5 0 -5.5 0 0 -2z"/>
  <path d="M328 226 l0 -2 5.5 0 5.5 0 0 2 0 2 -5.5 0 -5.5 0 0 -2z"/>
  <path d="M370 226 l0 -2 5.5 0 5.5 0 0 2 0 2 -5.5 0 -5.5 0 0 -2z"/>
  <path d="M412 226 l0 -2 5.5 0 5.5 0 0 2 0 2 -5.5 0 -5.5 0 0 -2z"/>
  <path d="M454 226 l0 -2 5.5 0 5.5 0 0 2 0 2 -5.5 0 -5.5 0 0 -2z"/>
  <path d="M496 226 l0 -2 5.5 0 5.5 0 0 2 0 2 -5.5 0 -5.5 0 0 -2z"/>
  <path d="M142 222.6 l-1.2 -1.6 0.6 -1.5 c0.3 -0.9 1.3 -1.8 2.2 -2.2 l1.6 -0.6 1.6 1.7 1.7 1.6 -1.1 1.8 c-0.6 0.9 -1.8 1.8 -2.6 2 l-1.5 0.3 -1.3 -1.5z"/>
  <path d="M625 222.6 l-1.2 -1.6 0.6 -1.5 c0.3 -0.9 1.3 -1.8 2.2 -2.2 l1.6 -0.6 1.6 1.7 1.7 1.6 -1.1 1.8 c-0.6 0.9 -1.8 1.8 -2.6 2 l-1.5 0.3 -1.3 -1.5z"/>
  <path d="M646 222.6 l-1.2 -1.6 0.6 -1.5 c0.3 -0.9 1.3 -1.8 2.2 -2.2 l1.6 -0.6 1.6 1.7 1.7 1.6 -1.1 1.8 c-0.6 0.9 -1.8 1.8 -2.6 2 l-1.5 0.3 -1.3 -1.5z"/>
  <path d="M667 222.6 l-1.2 -1.6 0.6 -1.5 c0.3 -0.9 1.3 -1.8 2.2 -2.2 l1.6 -0.6 1.6 1.7 1.7 1.6 -1.1 1.8 c-0.6 0.9 -1.8 1.8 -2.6 2 l-1.5 0.3 -1.3 -1.5z"/>
  <path d="M688 222.6 l-1.2 -1.6 0.6 -1.5 c0.3 -0.9 1.3 -1.8 2.2 -2.2 l1.6 -0.6 1.6 1.7 1.7 1.6 -1.1 1.8 c-0.6 0.9 -1.8 1.8 -2.6 2 l-1.5 0.3 -1.3 -1.5z"/>
  <path d="M709 222.6 l-1.2 -1.6 0.6 -1.5 c0.3 -0.9 1.3 -1.8 2.2 -2.2 l1.6 -0.6 1.6 1.7 1.7 1.6 -1.1 1.8 c-0.6 0.9 -1.8 1.8 -2.6 2 l-1.5 0.3 -1.3 -1.5z"/>
  <path d="M730 222.6 l-1.2 -1.6 0.6 -1.5 c0.3 -0.9 1.3 -1.8 2.2 -2.2 l1.6 -0.6 1.6 1.7 1.7 1.6 -1.1 1.8 c-0.6 0.9 -1.8 1.8 -2.6 2 l-1.5 0.3 -1.3 -1.5z"/>
  <path d="M751 222.6 l-1.2 -1.6 0.6 -1.5 c0.3 -0.9 1.3 -1.8 2.2 -2.2 l1.6 -0.6 1.6 1.7 1.7 1.6 -1.1 1.8 c-0.6 0.9 -1.8 1.8 -2.6 2 l-1.5 0.3 -1.3 -1.5z"/>
  <path d="M772 222.6 l-1.2 -1.6 0.6 -1.5 c0.3 -0.9 1.3 -1.8 2.2 -2.2 l1.6 -0.6 1.6 1.7 1.7 1.6 -1.1 1.8 c-0.6 0.9 -1.8 1.8 -2.6 2 l-1.5 0.3 -1.3 -1.5z"/>
  <path d="M793 222.6 l-1.2 -1.6 0.6 -1.5 c0.3 -0.9 1.3 -1.8 2.2 -2.2 l1.6 -0.6 1.6 1.7 1.7 1.6 -1.1 1.8 c-0.6 0.9 -1.8 1.8 -2.6 2 l-1.5 0.3 -1.3 -1.5z"/>
  <path d="M814 222.6 l-1.2 -1.6 0.6 -1.5 c0.3 -0.9 1.3 -1.8 2.2 -2.2 l1.6 -0.6 1.6 1.7 1.7 1.6 -1.1 1.8 c-0.6 0.9 -1.8 1.8 -2.6 2 l-1.5 0.3 -1.3 -1.5z"/>
  <path d="M835 222.6 l-1.2 -1.6 0.6 -1.5 c0.3 -0.9 1.3 -1.8 2.2 -2.2 l1.6 -0.6 1.6 1.7 1.7 1.6 -1.1 1.8 c-0.6 0.9 -1.8 1.8 -2.6 2 l-1.5 0.3 -1.3 -1.5z"/>
  <path d="M856 222.6 l-1.2 -1.6 0.6 -1.5 c0.3 -0.9 1.3 -1.8 2.2 -2.2 l1.6 -0.6 1.6 1.7 1.7 1.6 -1.1 1.8 c-0.6 0.9 -1.8 1.8 -2.6 2 l-1.5 0.3 -1.3 -1.5z"/>
  <path d="M877 222.6 l-1.2 -1.6 0.6 -1.5 c0.3 -0.9 1.3 -1.8 2.2 -2.2 l1.6 -0.6 1.6 1.7 1.7 1.6 -1.1 1.8 c-0.6 0.9 -1.8 1.8 -2.6 2 l-1.5 0.3 -1.3 -1.5z"/>
  <path d="M898 222.6 l-1.2 -1.6 0.6 -1.5 c0.3 -0.9 1.3 -1.8 2.2 -2.2 l1.6 -0.6 1.6 1.7 1.7 1.6 -1.1 1.8 c-0.6 0.9 -1.8 1.8 -2.6 2 l-1.5 0.3 -1.3 -1.5z"/>
  <path d="M919 222.6 l-1.2 -1.6 0.6 -1.5 c0.3 -0.9 1.3 -1.8 2.2 -2.2 l1.6 -0.6 1.6 1.7 1.7 1.6 -1.1 1.8 c-0.6 0.9 -1.8 1.8 -2.6 2 l-1.5 0.3 -1.3 -1.5z"/>
  <path d="M940 222.6 l-1.2 -1.6 0.6 -1.5 c0.3 -0.9 1.3 -1.8 2.2 -2.2 l1.6 -0.6 1.6 1.7 1.7 1.6 -1.1 1.8 c-0.6 0.9 -1.8 1.8 -2.6 2 l-1.5 0.3 -1.3 -1.5z"/>
  <path d="M961 222.6 l-1.2 -1.6 0.6 -1.5 c0.3 -0.9 1.3 -1.8 2.2 -2.2 l1.6 -0.6 1.6 1.7 1.7 1.6 -1.1 1.8 c-0.6 0.9 -1.8 1.8 -2.6 2 l-1.5 0.3 -1.3 -1.5z"/>
  <path d="M982 222.6 l-1.2 -1.6 0.6 -1.5 c0.3 -0.9 1.3 -1.8 2.2 -2.2 l1.6 -0.6 1.6 1.7 1.7 1.6 -1.1 1.8 c-0.6 0.9 -1.8 1.8 -2.6 2 l-1.5 0.3 -1.3 -1.5z"/>
  <path d="M1003 222.6 l-1.2 -1.6 0.6 -1.5 c0.3 -0.9 1.3 -1.8 2.2 -2.2 l1.6 -0.6 1.6 1.7 1.7 1.6 -1.1 1.8 c-0.6 0.9 -1.8 1.8 -2.6 2 l-1.5 0.3 -1.3 -1.5z"/>
  <path d="M1024 222.6 l-1.2 -1.6 0.6 -1.5 c0.3 -0.9 1.3 -1.8 2.2 -2.2 l1.6 -0.6 1.6 1.7 1.7 1.6 -1.1 1.8 c-0.6 0.9 -1.8 1.8 -2.6 2 l-1.5 0.3 -1.3 -1.5z"/>
  <path d="M1045 222.6 l-1.2 -1.6 0.6 -1.5 c0.3 -0.9 1.3 -1.8 2.2 -2.2 l1.6 -0.6 1.6 1.7 1.7 1.6 -1.1 1.8 c-0.6 0.9 -1.8 1.8 -2.6 2 l-1.5 0.3 -1.3 -1.5z"/>
  <path d="M1066 222.6 l-1.2 -1.6 0.6 -1.5 c0.3 -0.9 1.3 -1.8 2.2 -2.2 l1.6 -0.6 1.6 1.7 1.7 1.6 -1.1 1.8 c-0.6 0.9 -1.8 1.8 -2.6 2 l-1.5 0.3 -1.3 -1.5z"/>
  <path d="M1087 222.6 l-1.2 -1.6 0.6 -1.5 c0.3 -0.9 1.3 -1.8 2.2 -2.2 l1.6 -0.6 1.6 1.7 1.7 1.6 -1.1 1.8 c-0.6 0.9 -1.8 1.8 -2.6 2 l-1.5 0.3 -1.3 -1.5z"/>
  <path d="M1108 222.6 l-1.2 -1.6 0.6 -1.5 c0.3 -0.9 1.3 -1.8 2.2 -2.2 l1.6 -0.6 1.6 1.7 1.7 1.6 -1.1 1.8 c-0.6 0.9 -1.8 1.8 -2.6 2 l-1.5 0.3 -1.3 -1.5z"/>
  <path d="M1129 222.6 l-1.2 -1.6 0.6 -1.5 c0.3 -0.9 1.3 -1.8 2.2 -2.2 l1.6 -0.6 1.6 1.7 1.7 1.6 -1.1 1.8 c-0.6 0.9 -1.8 1.8 -2.6 2 l-1.5 0.3 -1.3 -1.5z"/>
  <path d="M1150 222.6 l-1.2 -1.6 0.6 -1.5 c0.3 -0.9 1.3 -1.8 2.2 -2.2 l1.6 -0.6 1.6 1.7 1.7 1.6 -1.1 1.8 c-0.6 0.9 -1.8 1.8 -2.6 2 l-1.5 0.3 -1.3 -1.5z"/>
  <path d="M1171 222.6 l-1.2 -1.6 0.6 -1.5 c0.3 -0.9 1.3 -1.8 2.2 -2.2 l1.6 -0.6 1.6 1.7 1.7 1.6 -1.1 1.8 c-0.6 0.9 -1.8 1.8 -2.6 2 l-1.5 0.3 -1.3 -1.5z"/>
  <path d="M1192 222.6 l-1.2 -1.6 0.6 -1.5 c0.3 -0.9 1.3 -1.8 2.2 -2.2 l1.6 -0.6 1.6 1.7 1.7 1.6 -1.1 1.8 c-0.6 0.9 -1.8 1.8 -2.6 2 l-1.5 0.3 -1.3 -1.5z"/>
  <path d="M1213 222.6 l-1.2 -1.6 0.6 -1.5 c0.3 -0.9 1.3 -1.8 2.2 -2.2 l1.6 -0.6 1.6 1.7 1.7 1.6 -1.1 1.8 c-0.6 0.9 -1.8 1.8 -2.6 2 l-1.5 0.3 -1.3 -1.5z"/>
  <path d="M1234 222.6 l-1.2 -1.6 0.6 -1.5 c0.3 -0.9 1.3 -1.8 2.2 -2.2 l1.6 -0.6 1.6 1.7 1.7 1.6 -1.1 1.8 c-0.6 0.9 -1.8 1.8 -2.6 2 l-1.5 0.3 -1.3 -1.5z"/>
  <path d="M1255 222.6 l-1.2 -1.6 0.6 -1.5 c0.3 -0.9 1.3 -1.8 2.2 -2.2 l1.6 -0.6 1.6 1.7 1.7 1.6 -1.1 1.8 c-0.6 0.9 -1.8 1.8 -2.6 2 l-1.5 0.3 -1.3 -1.5z"/>
  <path d="M1276 222.6 l-1.2 -1.6 0.6 -1.5 c0.3 -0.9 1.3 -1.8 2.2 -2.2 l1.6 -0.6 1.6 1.7 1.7 1.6 -1.1 1.8 c-0.6 0.9 -1.8 1.8 -2.6 2 l-1.5 0.3 -1.3 -1.5z"/>
  <path d="M1297 222.6 l-1.2 -1.6 0.6 -1.5 c0.3 -0.9 1.3 -1.8 2.2 -2.2 l1.6 -0.6 1.6 1.7 1.7 1.6 -1.1 1.8 c-0.6 0.9 -1.8 1.8 -2.6 2 l-1.5 0.3 -1.3 -1.5z"/>
  <path d="M1318 222.6 l-1.2 -1.6 0.6 -1.5 c0.3 -0.9 1.3 -1.8 2.2 -2.2 l1.6 -0.6 1.6 1.7 1.7 1.6 -1.1 1.8 c-0.6 0.9 -1.8 1.8 -2.6 2 l-1.5 0.3 -1.3 -1.5z"/>
  <path d="M1339 222.6 l-1.2 -1.6 0.6 -1.5 c0.3 -0.9 1.3 -1.8 2.2 -2.2 l1.6 -0.6 1.6 1.7 1.7 1.6 -1.1 1.8 c-0.6 0.9 -1.8 1.8 -2.6 2 l-1.5 0.3 -1.3 -1.5z"/>
  <path d="M1360 222.6 l-1.2 -1.6 0.6 -1.5 c0.3 -0.9 1.3 -1.8 2.2 -2.2 l1.6 -0.6 1.6 1.7 1.7 1.6 -1.1 1.8 c-0.6 0.9 -1.8 1.8 -2.6 2 l-1.5 0.3 -1.3 -1.5z"/>
  <path d="M1381 222.6 l-1.2 -1.6 0.6 -1.5 c0.3 -0.9 1.3 -1.8 2.2 -2.2 l1.6 -0.6 1.6 1.7 1.7 1.6 -1.1 1.8 c-0.6 0.9 -1.8 1.8 -2.6 2 l-1.5 0.3 -1.3 -1.5z"/>
  <path d="M1402 222.6 l-1.2 -1.6 0.6 -1.5 c0.3 -0.9 1.3 -1.8 2.2 -2.2 l1.6 -0.6 1.6 1.7 1.7 1.6 -1.1 1.8 c-0.6 0.9 -1.8 1.8 -2.6 2 l-1.5 0.3 -1.3 -1.5z"/>
  <path d="M1423 222.6 l-1.2 -1.6 0.6 -1.5 c0.3 -0.9 1.3 -1.8 2.2 -2.2 l1.6 -0.6 1.6 1.7 1.7 1.6 -1.1 1.8 c-0.6 0.9 -1.8 1.8 -2.6 2 l-1.5 0.3 -1.3 -1.5z"/>
  <path d="M1444 222.6 l-1.2 -1.6 0.6 -1.5 c0.3 -0.9 1.3 -1.8 2.2 -2.2 l1.6 -0.6 1.6 1.7 1.7 1.6 -1.1 1.8 c-0.6 0.9 -1.8 1.8 -2.6 2 l-1.5 0.3 -1.3 -1.5z"/>
  <path d="M1465 222.6 l-1.2 -1.6 0.6 -1.5 c0.3 -0.9 1.3 -1.8 2.2 -2.2 l1.6 -0.6 1.6 1.7 1.7 1.6 -1.1 1.8 c-0.6 0.9 -1.8 1.8 -2.6 2 l-1.5 0.3 -1.3 -1.5z"/>
  <path d="M1486 222.6 l-1.2 -1.6 0.6 -1.5 c0.3 -0.9 1.3 -1.8 2.2 -2.2 l1.6 -0.6 1.6 1.7 1.7 1.6 -1.1 1.8 c-0.6 0.9 -1.8 1.8 -2.6 2 l-1.5 0.3 -1.3 -1.5z"/>
  <path d="M1507 222.6 l-1.2 -1.6 0.6 -1.5 c0.3 -0.9 1.3 -1.8 2.2 -2.2 l1.6 -0.6 1.6 1.7 1.7 1.6 -1.1 1.8 c-0.6 0.9 -1.8 1.8 -2.6 2 l-1.5 0.3 -1.3 -1.5z"/>
  <path d="M1528 222.6 l-1.2 -1.6 0.6 -1.5 c0.3 -0.9 1.3 -1.8 2.2 -2.2 l1.6 -0.6 1.6 1.7 1.7 1.6 -1.1 1.8 c-0.6 0.9 -1.8 1.8 -2.6 2 l-1.5 0.3 -1.3 -1.5z"/>
  <path d="M1549 222.6 l-1.2 -1.6 0.6 -1.5 c0.3 -0.9 1.3 -1.8 2.2 -2.2 l1.6 -0.6 1.6 1.7 1.7 1.6 -1.1 1.8 c-0.6 0.9 -1.8 1.8 -2.6 2 l-1.5 0.3 -1.3 -1.5z"/>
  <path d="M1570 222.6 l-1.2 -1.6 0.6 -1.5 c0.3 -0.9 1.3 -1.8 2.2 -2.2 l1.6 -0.6 1.6 1.7 1.7 1.6 -1.1 1.8 c-0.6 0.9 -1.8 1.8 -2.6 2 l-1.5 0.3 -1.3 -1.5z"/>
  <path d="M37.6 216.4 c-0.3 -0.9 -0.6 -2.9 -0.6 -4.5 l0 -2.9 2.5 0 2.5 0 0 2.9 c0 1.6 -0.3 3.6 -0.6 4.5 l-0.6 1.6 -1.3 0 -1.3 0 -0.6 -1.6z"/>
  <path d="M627.2 194.5 l-3.1 -3.4 -1 -3.8 c-1.4 -4.9 -1.4 -7.7 0 -12.4 l1.2 -3.8 2.9 -3.5 2.9 -3.6 1.5 0 1.4 0 0 1.1 c0 0.6 -1.1 2.5 -2.4 4.2 l-2.4 3.2 -1.1 4 -1 4 0.8 3.5 c0.9 4 2.7 7.7 4.8 10.2 l1.5 1.7 -0.7 1 c-1 1.8 -2.1 1.3 -5.3 -2.4z"/>
  <path d="M556 194.4 c0 -0.3 2.8 -7.2 6.2 -15.5 l6.2 -14.9 1.8 0 1.8 0 0 0.8 c0 0.4 -2.8 7.3 -6.2 15.5 l-6.1 14.7 -1.9 0 c-1 0 -1.8 -0.2 -1.8 -0.6z"/>
  <path d="M598 194.4 c0 -0.3 2.8 -7.2 6.2 -15.5 l6.2 -14.9 1.8 0 1.8 0 0 0.8 c0 0.4 -2.8 7.3 -6.2 15.5 l-6.1 14.7 -1.9 0 c-1 0 -1.8 -0.2 -1.8 -0.6z"/>
  <path d="M58 189.6 l-1.2 -1.6 0.6 -1.5 c0.3 -0.9 1.3 -1.8 2.2 -2.2 l1.6 -0.6 1.6 1.7 1.7 1.6 -1.1 1.8 c-0.6 0.9 -1.8 1.8 -2.6 2 l-1.5 0.3 -1.3 -1.5z"/>
  <path d="M79 189.6 l-1.2 -1.6 0.6 -1.5 c0.3 -0.9 1.3 -1.8 2.2 -2.2 l1.6 -0.6 1.6 1.7 1.7 1.6 -1.1 1.8 c-0.6 0.9 -1.8 1.8 -2.6 2 l-1.5 0.3 -1.3 -1.5z"/>
  <path d="M100 189.6 l-1.2 -1.6 0.6 -1.5 c0.3 -0.9 1.3 -1.8 2.2 -2.2 l1.6 -0.6 1.6 1.7 1.7 1.6 -1.1 1.8 c-0.6 0.9 -1.8 1.8 -2.6 2 l-1.5 0.3 -1.3 -1.5z"/>
  <path d="M121 189.6 l-1.2 -1.6 0.6 -1.5 c0.3 -0.9 1.3 -1.8 2.2 -2.2 l1.6 -0.6 1.6 1.7 1.7 1.6 -1.1 1.8 c-0.6 0.9 -1.8 1.8 -2.6 2 l-1.5 0.3 -1.3 -1.5z"/>
  <path d="M79 177.6 l-1.2 -1.6 0.6 -1.5 c0.3 -0.9 1.3 -1.8 2.2 -2.2 l1.6 -0.6 1.6 1.7 1.7 1.6 -1.1 1.8 c-0.6 0.9 -1.8 1.8 -2.6 2 l-1.5 0.3 -1.3 -1.5z"/>
  <path d="M100 177.6 l-1.2 -1.6 0.6 -1.5 c0.3 -0.9 1.3 -1.8 2.2 -2.2 l1.6 -0.6 1.6 1.7 1.7 1.6 -1.1 1.8 c-0.6 0.9 -1.8 1.8 -2.6 2 l-1.5 0.3 -1.3 -1.5z"/>
  <path d="M580.5 152 l-0.6 -1 2.5 -3.1 2.5 -3 1.2 -4.1 1.1 -4.1 -1.2 -4.6 -1.2 -4.6 -2.4 -3.3 -2.5 -3.2 0.6 -1 c0.3 -0.6 1.2 -1 1.9 -1 l1.3 0 2.6 3.8 c4.8 6.9 5.7 12 3.6 19.5 l-1 3.8 -3.1 3.4 c-3.2 3.7 -4.3 4.2 -5.3 2.5z"/>
  <path d="M622.5 152 l-0.6 -1 2.5 -3.1 2.5 -3 1.2 -4.1 1.1 -4.1 -1.2 -4.6 -1.2 -4.6 -2.4 -3.3 -2.5 -3.2 0.6 -1 c0.3 -0.6 1.2 -1 1.9 -1 l1.3 0 2.6 3.8 c4.8 6.9 5.7 12 3.6 19.5 l-1 3.8 -3.1 3.4 c-3.2 3.7 -4.3 4.2 -5.3 2.5z"/>
  <path d="M643.5 152 l-0.6 -1 2.5 -3.1 2.5 -3 1.2 -4.1 1.1 -4.1 -1.2 -4.6 -1.2 -4.6 -2.4 -3.3 -2.5 -3.2 0.6 -1 c0.3 -0.6 1.2 -1 1.9 -1 l1.3 0 2.6 3.8 c4.8 6.9 5.7 12 3.6 19.5 l-1 3.8 -3.1 3.4 c-3.2 3.7 -4.3 4.2 -5.3 2.5z"/>
  <path d="M564.2 104.5 l-3.1 -3.4 -1 -3.8 c-1.4 -4.9 -1.4 -7.7 0 -12.4 l1.2 -3.8 2.9 -3.5 2.9 -3.6 1.5 0 1.4 0 0 1.1 c0 0.6 -1.1 2.5 -2.4 4.2 l-2.4 3.2 -1.1 4 -1 4 0.8 3.5 c0.9 4 2.7 7.7 4.8 10.2 l1.5 1.7 -0.7 1 c-1 1.8 -2.1 1.3 -5.3 -2.4z"/>
  <path d="M606.2 104.5 l-3.1 -3.4 -1 -3.8 c-1.4 -4.9 -1.4 -7.7 0 -12.4 l1.2 -3.8 2.9 -3.5 2.9 -3.6 1.5 0 1.4 0 0 1.1 c0 0.6 -1.1 2.5 -2.4 4.2 l-2.4 3.2 -1.1 4 -1 4 0.8 3.5 c0.9 4 2.7 7.7 4.8 10.2 l1.5 1.7 -0.7 1 c-1 1.8 -2.1 1.3 -5.3 -2.4z"/>
  <path d="M627.2 104.5 l-3.1 -3.4 -1 -3.8 c-1.4 -4.9 -1.4 -7.7 0 -12.4 l1.2 -3.8 2.9 -3.5 2.9 -3.6 1.5 0 1.4 0 0 1.1 c0 0.6 -1.1 2.5 -2.4 4.2 l-2.4 3.2 -1.1 4 -1 4 0.8 3.5 c0.9 4 2.7 7.7 4.8 10.2 l1.5 1.7 -0.7 1 c-1 1.8 -2.1 1.3 -5.3 -2.4z"/>
  <path d="M575 62 l0 -2 10.5 0 10.5 0 0 2 0 2 -10.5 0 -10.5 0 0 -2z"/>
 </g>
</svg>